<?xml version="1.0" encoding="utf-8"?>
<!-- Generator: Adobe Illustrator 22.0.1, SVG Export Plug-In . SVG Version: 6.00 Build 0)  -->
<svg version="1.1" id="Layer_1" xmlns="http://www.w3.org/2000/svg" xmlns:xlink="http://www.w3.org/1999/xlink" x="0px" y="0px"
	 viewBox="0 0 64 64" style="enable-background:new 0 0 64 64;" xml:space="preserve">
<style type="text/css">
	.st0{fill:#FFFFFF;}
	.st1{opacity:0;fill:none;stroke:#FFFFFF;stroke-miterlimit:10;}
</style>
<path id="logo" class="st0" d="M46.4,21.2c0,0-4.1-3.2-9-3.6L37,18.5c4.4,1.1,6.4,2.6,8.6,4.5c-3.6-1.9-7.3-3.6-13.5-3.6
	s-9.9,1.7-13.5,3.6c2.1-1.9,4.5-3.6,8.6-4.5l-0.4-0.9c-5.1,0.5-9,3.6-9,3.6s-4.6,6.7-5.4,19.8c4.7,5.4,11.7,5.4,11.7,5.4l1.5-2
	c-2.5-0.9-5.3-2.4-7.8-5.2c2.9,2.2,7.3,4.5,14.4,4.5s11.5-2.3,14.4-4.5c-2.4,2.8-5.3,4.4-7.8,5.2l1.5,2c0,0,7.1,0,11.7-5.4
	C51,27.9,46.4,21.2,46.4,21.2z M26.1,37.4c-1.7,0-3.2-1.6-3.2-3.6c0-2,1.4-3.6,3.2-3.6s3.2,1.6,3.2,3.6
	C29.3,35.8,27.9,37.4,26.1,37.4z M37.8,37.4c-1.7,0-3.2-1.6-3.2-3.6c0-2,1.4-3.6,3.2-3.6c1.7,0,3.2,1.6,3.2,3.6
	C41,35.8,39.6,37.4,37.8,37.4z"/>
<rect class="st1" width="64" height="64"/>
</svg>
