<?xml version="1.0" encoding="UTF-8"?>
<svg width="40px" height="40px" viewBox="0 0 40 40" version="1.1" xmlns="http://www.w3.org/2000/svg" xmlns:xlink="http://www.w3.org/1999/xlink">
    <!-- Generator: Sketch 52.2 (67145) - http://www.bohemiancoding.com/sketch -->
    <title>ic_linkedin</title>
    <desc>Created with Sketch.</desc>
    <g id="ic_linkedin" stroke="none" stroke-width="1" fill="none" fill-rule="evenodd">
        <rect id="Rectangle" x="0" y="0" width="40" height="40" rx="20"></rect>
        <path d="M11.3676986,16.7391937 L14.9114855,16.7391937 L14.9114855,29.0897449 L11.3676986,29.0897449 L11.3676986,16.7391937 Z M13.0492602,15.1943562 L13.0236039,15.1943562 C11.7407851,15.1943562 10.9090909,14.2502241 10.9090909,13.0546339 C10.9090909,11.8345964 11.7653724,10.9090909 13.0738476,10.9090909 C14.3812537,10.9090909 15.1851535,11.8322681 15.2108099,13.0511415 C15.2108099,14.2467316 14.3812537,15.1943562 13.0492602,15.1943562 L13.0492602,15.1943562 Z M29.0909091,29.0909091 L25.0724793,29.0909091 L25.0724793,22.698518 C25.0724793,21.0256231 24.4438981,19.8847484 23.0616608,19.8847484 C22.0044043,19.8847484 21.4164457,20.6542567 21.1427777,21.3981536 C21.0401522,21.6635816 21.0561875,22.034948 21.0561875,22.4074786 L21.0561875,29.0909091 L17.0751732,29.0909091 C17.0751732,29.0909091 17.1264859,17.7683093 17.0751732,16.7391937 L21.0561875,16.7391937 L21.0561875,18.6775166 C21.2913709,17.8300097 22.5634995,16.6204496 24.5935602,16.6204496 C27.1121611,16.6204496 29.0909091,18.3981187 29.0909091,22.2223774 L29.0909091,29.0909091 L29.0909091,29.0909091 Z" id="Shape" fill="#FFFFFF"></path>
    </g>
</svg>