<?xml version="1.0" encoding="utf-8"?>
<!-- Generator: Adobe Illustrator 22.0.1, SVG Export Plug-In . SVG Version: 6.00 Build 0)  -->
<svg version="1.1" id="Layer_1" xmlns="http://www.w3.org/2000/svg" xmlns:xlink="http://www.w3.org/1999/xlink" x="0px" y="0px"
	 viewBox="0 0 64 64" style="enable-background:new 0 0 64 64;" xml:space="preserve">
<style type="text/css">
	.st0{fill:#D7D6DA;}
	.st1{clip-path:url(#SVGID_4_);fill:#D7D6DA;}
	.st2{fill:#FFFFFF;}
	.st3{clip-path:url(#SVGID_7_);fill:#FFFFFF;}
	.st4{clip-path:url(#SVGID_9_);fill:#FFFFFF;}
</style>
<g>
	<g>
		<g>
			<path id="SVGID_1_" class="st0" d="M23.5,34.1l3.7,10.3c0,0,0.5,1,0.9,1s7.8-7.7,7.8-7.7L44,21.8l-20.4,9.7L23.5,34.1z"/>
		</g>
		<g>
			<defs>
				<path id="SVGID_2_" d="M23.5,34.1l3.7,10.3c0,0,0.5,1,0.9,1s7.8-7.7,7.8-7.7L44,21.8l-20.4,9.7L23.5,34.1z"/>
			</defs>
			<use xlink:href="#SVGID_2_"  style="overflow:visible;fill:#D7D6DA;"/>
			<clipPath id="SVGID_4_">
				<use xlink:href="#SVGID_2_"  style="overflow:visible;"/>
			</clipPath>
			<rect x="18.5" y="16.7" class="st1" width="30.5" height="33.6"/>
		</g>
	</g>
	<g>
		<g>
			<path id="SVGID_3_" class="st2" d="M28.3,36.7l-0.7,7.6c0,0-0.3,2.3,2,0s4.5-4.1,4.5-4.1"/>
		</g>
		<g>
			<defs>
				<path id="SVGID_6_" d="M28.3,36.7l-0.7,7.6c0,0-0.3,2.3,2,0s4.5-4.1,4.5-4.1"/>
			</defs>
			<clipPath id="SVGID_7_">
				<use xlink:href="#SVGID_6_"  style="overflow:visible;"/>
			</clipPath>
			<rect x="22.6" y="31.7" class="st3" width="16.5" height="18.6"/>
		</g>
	</g>
	<g>
		<g>
			<path id="SVGID_5_" class="st2" d="M23.5,34.4L16,31.9c0,0-0.9-0.4-0.6-1.2c0.1-0.2,0.2-0.3,0.5-0.6c1.7-1.2,30.9-11.9,30.9-11.9
				s0.8-0.3,1.3-0.1c0.2,0.1,0.4,0.2,0.5,0.5c0,0.1,0.1,0.4,0.1,0.7c0,0.2,0,0.4,0,0.7c-0.2,2.9-5.5,24.7-5.5,24.7S42.9,46,41.7,46
				c-0.4,0-0.9-0.1-1.5-0.6c-2.2-2-10-7.3-11.7-8.4c-0.1-0.1-0.1-0.2-0.1-0.2c0-0.1,0.1-0.3,0.1-0.3s13.4-12.1,13.7-13.4
				c0-0.1-0.1-0.1-0.2-0.1c-0.9,0.3-16.4,10.3-18.1,11.4C23.8,34.5,23.5,34.4,23.5,34.4"/>
		</g>
		<g>
			<defs>
				<path id="SVGID_8_" d="M23.5,34.4L16,31.9c0,0-0.9-0.4-0.6-1.2c0.1-0.2,0.2-0.3,0.5-0.6c1.7-1.2,30.9-11.9,30.9-11.9
					s0.8-0.3,1.3-0.1c0.2,0.1,0.4,0.2,0.5,0.5c0,0.1,0.1,0.4,0.1,0.7c0,0.2,0,0.4,0,0.7c-0.2,2.9-5.5,24.7-5.5,24.7S42.9,46,41.7,46
					c-0.4,0-0.9-0.1-1.5-0.6c-2.2-2-10-7.3-11.7-8.4c-0.1-0.1-0.1-0.2-0.1-0.2c0-0.1,0.1-0.3,0.1-0.3s13.4-12.1,13.7-13.4
					c0-0.1-0.1-0.1-0.2-0.1c-0.9,0.3-16.4,10.3-18.1,11.4C23.8,34.5,23.5,34.4,23.5,34.4"/>
			</defs>
			<clipPath id="SVGID_9_">
				<use xlink:href="#SVGID_8_"  style="overflow:visible;"/>
			</clipPath>
			<rect x="10.3" y="13.1" class="st4" width="43.3" height="38"/>
		</g>
	</g>
</g>
</svg>
