<?xml version="1.0" encoding="UTF-8"?>
<svg width="40px" height="40px" viewBox="0 0 40 40" version="1.1" xmlns="http://www.w3.org/2000/svg" xmlns:xlink="http://www.w3.org/1999/xlink">
    <!-- Generator: Sketch 56.1 (81669) - https://sketch.com -->
    <title>Icon / socila / ic_youtube</title>
    <desc>Created with Sketch.</desc>
    <g id="Icon-/-socila-/-ic_youtube" stroke="none" stroke-width="1" fill="none" fill-rule="evenodd">
        <rect id="Rectangle" x="0" y="0" width="40" height="40" rx="20"></rect>
        <path d="M17.522,23.634958 L17.52125,16.8438708 L24.00575,20.2511219 L17.522,23.634958 Z M31.76,15.6670814 C31.76,15.6670814 31.52525,14.0015995 30.806,13.2681832 C29.89325,12.3051495 28.87025,12.3006176 28.4015,12.2447239 C25.043,12 20.00525,12 20.00525,12 L19.99475,12 C19.99475,12 14.957,12 11.5985,12.2447239 C11.129,12.3006176 10.10675,12.3051495 9.19325,13.2681832 C8.474,14.0015995 8.24,15.6670814 8.24,15.6670814 C8.24,15.6670814 8,17.6233616 8,19.5788866 L8,21.4128049 C8,23.3690852 8.24,25.3246101 8.24,25.3246101 C8.24,25.3246101 8.474,26.990092 9.19325,27.7235082 C10.10675,28.686542 11.306,28.6563291 11.84,28.7567868 C13.76,28.9425956 20,29 20,29 C20,29 25.043,28.9924468 28.4015,28.7477229 C28.87025,28.6910739 29.89325,28.686542 30.806,27.7235082 C31.52525,26.990092 31.76,25.3246101 31.76,25.3246101 C31.76,25.3246101 32,23.3690852 32,21.4128049 L32,19.5788866 C32,17.6233616 31.76,15.6670814 31.76,15.6670814 L31.76,15.6670814 Z" id="Youtube" fill="#FFFFFF"></path>
    </g>
</svg>