<?xml version="1.0" encoding="UTF-8"?>
<svg width="64px" height="64px" viewBox="0 0 64 64" version="1.1" xmlns="http://www.w3.org/2000/svg" xmlns:xlink="http://www.w3.org/1999/xlink">
    <!-- Generator: Sketch 52.6 (67491) - http://www.bohemiancoding.com/sketch -->
    <title>Coin / BTC Bitcoin</title>
    <desc>Created with Sketch.</desc>
    <defs>
        <linearGradient x1="100%" y1="0%" x2="0%" y2="100%" id="linearGradient-1">
            <stop stop-color="#767FFF" offset="0%"></stop>
            <stop stop-color="#5560FF" offset="100%"></stop>
        </linearGradient>
    </defs>
    <g id="Coin-/-BTC-Bitcoin" stroke="none" stroke-width="1" fill="none" fill-rule="evenodd">
        <g id="Group">
            <circle id="Oval" fill="url(#linearGradient-1)" cx="32" cy="32" r="32"></circle>
            <path d="M23.1,16.0492308 C24.2,16.3446154 25.3,16.5415385 26.4,16.8369231 C27.5,17.1323077 28.6,17.3292308 29.7,17.6246154 C30,17.7230769 30.1,17.6246154 30.2,17.3292308 C30.6,15.6553846 31,14.08 31.4,12.4061538 C31.5,12.1107692 31.6,12.0123077 31.9,12.1107692 C32.9,12.4061538 33.8,12.6030769 34.8,12.8 C35.1,12.8984615 35.1,12.9969231 35,13.1938462 C34.6,14.7692308 34.2,16.4430769 33.8,18.0184615 C33.8,18.1169231 33.8,18.2153846 33.7,18.4123077 C34.5,18.6092308 35.4,18.8061538 36.2,19.0030769 C36.3,19.0030769 36.4,18.8061538 36.5,18.7076923 C36.8,17.4276923 37.1,16.2461538 37.5,14.9661538 C37.6,14.5723077 37.7,14.1784615 37.8,13.7846154 C37.8,13.5876923 37.9,13.4892308 38.1,13.5876923 C39.1,13.8830769 40.1,14.08 41.2,14.3753846 C41.3,14.3753846 41.3,14.4738462 41.4,14.4738462 C41.1,15.7538462 40.8,16.9353846 40.5,18.1169231 C40.4,18.6092308 40.3,19.1015385 40.1,19.5938462 C40,19.8892308 40.1,19.9876923 40.4,20.0861538 C41.5,20.5784615 42.6,21.0707692 43.7,21.5630769 C44.7,22.1538462 45.6,22.9415385 46.3,23.9261538 C47.2,25.4030769 47.3,26.9784615 46.9,28.5538462 C46.6,29.6369231 46.2,30.6215385 45.4,31.4092308 C44.8,32 44,32.3938462 43.2,32.6892308 C43.1,32.6892308 43,32.7876923 42.8,32.7876923 C43.2,33.0830769 43.6,33.28 44,33.5753846 C45.2,34.4615385 46,35.5446154 46.4,36.9230769 C46.6,38.0061538 46.5,39.1876923 46.2,40.2707692 C45.8,41.6492308 45.3,42.8307692 44.4,43.9138462 C43.3,45.1938462 41.9,45.8830769 40.3,46.08 C38.2,46.3753846 36.2,46.1784615 34.2,45.8830769 C33.9,45.7846154 33.7,45.8830769 33.6,46.1784615 C33.2,47.7538462 32.8,49.4276923 32.4,51.0030769 C32.3,51.3969231 32.3,51.4953846 31.8,51.2984615 C30.9,51.1015385 29.9,50.8061538 29,50.6092308 C28.7,50.5107692 28.7,50.4123077 28.8,50.2153846 C29.2,48.5415385 29.6,46.8676923 30.1,45.2923077 C30.1,45.0953846 30.2,44.9969231 30,44.8984615 C29.2,44.7015385 28.4,44.5046154 27.5,44.3076923 C27.3,45.1938462 27,46.08 26.8,46.9661538 C26.6,47.8523077 26.3,48.7384615 26.1,49.6246154 C26,49.8215385 26,49.92 25.7,49.8215385 C24.7,49.5261538 23.7,49.3292308 22.7,49.1323077 C22.4,49.0338462 22.4,48.9353846 22.5,48.7384615 C22.9,47.0646154 23.3,45.3907692 23.8,43.8153846 C23.8,43.7169231 23.9,43.6184615 23.9,43.4215385 C21.6,42.8307692 19.3,42.24 16.9,41.6492308 C17.1,41.2553846 17.2,40.96 17.4,40.5661538 C17.8,39.68 18.2,38.7938462 18.5,38.0061538 C18.6,37.7107692 18.7,37.7107692 19,37.7107692 C19.7,37.9076923 20.5,38.1046154 21.2,38.2030769 C22,38.4 22.6,38.0061538 22.7,37.3169231 C24,32.2953846 25.3,27.2738462 26.5,22.1538462 C26.7,21.3661538 26.2,20.48 25.3,20.1846154 C24.4,19.8892308 23.5,19.6923077 22.7,19.4953846 C22.5,19.4953846 22.4,19.3969231 22.5,19.2 C22.8,18.1169231 23.1,16.9353846 23.4,15.8523077 C23,16.1476923 23,16.1476923 23.1,16.0492308 Z M36.6,30.3261538 C36.8,30.3261538 37.3,30.2276923 37.7,30.1292308 C39.6,29.7353846 40.6,27.5692308 39.6,25.8953846 C39.1,25.0092308 38.2,24.4184615 37.3,24.0246154 C35.9,23.4338462 34.5,23.1384615 33,22.7446154 C32.7,22.6461538 32.6,22.7446154 32.5,23.04 C32,25.1076923 31.5,27.0769231 30.9,29.1446154 C30.8,29.3415385 30.9,29.44 31.1,29.5384615 C31.5,29.6369231 31.8,29.7353846 32.2,29.8338462 C33.7,30.0307692 35,30.3261538 36.6,30.3261538 Z M28.2,40.3692308 C28.3,40.3692308 28.4,40.4676923 28.4,40.4676923 C30,40.8615385 31.7,41.3538462 33.4,41.4523077 C34.6,41.5507692 35.7,41.5507692 36.8,41.1569231 C38.7,40.5661538 39.5,38.1046154 38.4,36.5292308 C37.9,35.7415385 37.1,35.2492308 36.3,34.7569231 C34.5,33.7723077 32.4,33.3784615 30.4,32.9846154 C30.1,32.8861538 30.1,32.9846154 30,33.28 C29.8,34.2646154 29.5,35.1507692 29.3,36.1353846 C28.9,37.5138462 28.6,38.8923077 28.2,40.3692308 Z" id="Combined-Shape" fill="#FFFFFF" fill-rule="nonzero"></path>
        </g>
    </g>
</svg>