<?xml version="1.0" encoding="UTF-8"?>
<svg width="64px" height="64px" viewBox="0 0 64 64" version="1.1" xmlns="http://www.w3.org/2000/svg" xmlns:xlink="http://www.w3.org/1999/xlink">
    <!-- Generator: Sketch 52.6 (67491) - http://www.bohemiancoding.com/sketch -->
    <title>Coin / ETH Ethereum </title>
    <desc>Created with Sketch.</desc>
    <defs>
        <linearGradient x1="100%" y1="0%" x2="0%" y2="100%" id="linearGradient-1">
            <stop stop-color="#767FFF" offset="0%"></stop>
            <stop stop-color="#5560FF" offset="100%"></stop>
        </linearGradient>
        <polygon id="path-2" points="2.02618854e-05 0.164475792 26.966636 0.164475792 26.966636 20.9120724 2.02618854e-05 20.9120724"></polygon>
    </defs>
    <g id="Coin-/-ETH-Ethereum-" stroke="none" stroke-width="1" fill="none" fill-rule="evenodd">
        <circle id="Oval" fill="url(#linearGradient-1)" cx="32" cy="32" r="32"></circle>
        <g id="Group-6" transform="translate(18.000000, 11.000000)">
            <path d="M12.0019657,0.720466946 L0.021948954,18.8354711 L12.7685096,27.5333372 C13.1145264,27.7693456 13.5698485,27.7693456 13.9158653,27.5333372 L26.6626017,18.8354711 L14.6824092,0.720466946 C14.0471372,-0.240085356 12.6372377,-0.240085356 12.0019657,0.720466946" id="Fill-1" fill="#FFFFFF"></path>
            <g id="Group-5" transform="translate(0.000000, 20.942360)">
                <mask id="mask-3" fill="white">
                    <use xlink:href="#path-2"></use>
                </mask>
                <g id="Clip-4"></g>
                <path d="M12.7198318,8.8610159 L0.41945523,0.510396653 C0.180283682,0.348020084 -0.110553138,0.627961506 0.0426853556,0.87310795 L12.1581916,20.2558444 C12.7050703,21.1308151 13.9793046,21.1308151 14.5261833,20.2558444 L26.943246,0.391074477 C27.0275975,0.255936402 26.867154,0.101467782 26.7353548,0.191091213 L13.9645431,8.8610159 C13.5888276,9.11617908 13.0955473,9.11617908 12.7198318,8.8610159" id="Fill-3" fill="#FFFFFF" mask="url(#mask-3)"></path>
            </g>
        </g>
    </g>
</svg>