<?xml version="1.0" encoding="UTF-8"?>
<svg width="64px" height="64px" viewBox="0 0 64 64" version="1.1" xmlns="http://www.w3.org/2000/svg" xmlns:xlink="http://www.w3.org/1999/xlink">
    <!-- Generator: Sketch 52.6 (67491) - http://www.bohemiancoding.com/sketch -->
    <title>Coin / ADA cardano</title>
    <desc>Created with Sketch.</desc>
    <defs>
        <linearGradient x1="100%" y1="0%" x2="0%" y2="100%" id="linearGradient-1">
            <stop stop-color="#767FFF" offset="0%"></stop>
            <stop stop-color="#5560FF" offset="100%"></stop>
        </linearGradient>
    </defs>
    <g id="Coin-/-ADA-cardano" stroke="none" stroke-width="1" fill="none" fill-rule="evenodd">
        <circle id="Oval" fill="url(#linearGradient-1)" cx="32" cy="32" r="32"></circle>
        <g id="cardano-ada-seeklogo.com" transform="translate(6.000000, 8.000000)" fill="#FFFFFF" fill-rule="nonzero">
            <path d="M25.247329,0.142041205 C26.3755443,-0.448348851 27.7527486,0.921262572 27.1533115,2.05243226 C26.8051927,2.97451087 25.4851886,3.21970586 24.8109512,2.51684819 C24.096596,1.84230223 24.3295379,0.509054469 25.247329,0.142041205 Z M13.1123499,1.45476947 C13.7977168,1.17165237 14.665296,1.80178272 14.5954134,2.55139367 C14.668143,3.36516052 13.676587,3.96412201 12.9780201,3.57736847 C12.0524643,3.21762794 12.1583234,1.7098346 13.1123499,1.45476947 Z M37.9662158,3.60022563 C36.8952007,3.4703554 36.7256708,1.780484 37.756827,1.440224 C38.5565942,1.04879514 39.2903612,1.78282166 39.4073498,2.54360146 C39.2396316,3.19321234 38.6976534,3.78801798 37.9662158,3.60022563 Z M15.873488,6.63789026 C17.0193033,5.91061699 18.6542967,6.99373469 18.4780373,8.32932011 C18.4185077,9.67789255 16.6336551,10.4591918 15.6265696,9.54750285 C14.6528724,8.83139841 14.8004023,7.18854003 15.873488,6.63789026 Z M33.3650956,7.40957915 C33.8762737,6.08750024 35.9476448,6.04750021 36.5294819,7.33451416 C37.1045896,8.33607336 36.3972227,9.57633404 35.3725372,9.91685377 C34.0152623,10.1711397 32.7260583,8.69867104 33.3650956,7.40957915 Z M23.7860068,9.84178878 C23.7748774,8.70542429 24.8062924,7.8586704 25.882484,7.78126775 C26.5963215,7.92490422 27.3743475,8.23009925 27.6805366,8.95295694 C28.2512443,9.95010055 27.7444663,11.3230886 26.7133101,11.7807513 C26.2417321,12.0459463 25.6842245,11.9464657 25.170717,11.9155566 C24.3857028,11.528803 23.7246655,10.7703609 23.7860068,9.84178878 Z M5.73947984,11.4976342 C6.78616547,10.8519194 8.19831106,12.0303619 7.802051,13.1714017 C7.58386208,14.1584154 6.26178736,14.5599742 5.50602029,13.9298438 C4.69926483,13.3394538 4.82712405,11.9199722 5.73947984,11.4976342 Z M44.4919539,11.4955563 C45.3799802,10.8036077 46.8454436,11.5973745 46.7395844,12.7225702 C46.799114,13.748545 45.5321689,14.5223118 44.6506132,13.9939997 C43.6797631,13.5560773 43.5806334,12.0571151 44.4919539,11.4955563 Z M28.8610345,13.5384149 C30.3264979,13.0101029 32.0670915,13.6423111 32.9023177,14.9534809 C34.0041329,16.5563393 33.4178957,18.9973801 31.7081022,19.9171211 C29.9364496,21.0049141 27.3495003,20.0828355 26.6951924,18.0973794 C25.9523665,16.3199755 27.0345111,14.0955582 28.8610345,13.5384149 Z M20.2628899,13.7132203 C21.8870127,12.943869 24.0727842,13.5893241 24.8572808,15.2565981 C25.7805072,16.8794564 25.0666697,19.1391984 23.4161468,19.9771211 C21.7635534,20.91894 19.4320638,20.2049135 18.6322966,18.4625745 C17.7354703,16.7776382 18.5318728,14.489065 20.2628899,13.7132203 Z M11.653616,16.6669887 C11.7770752,15.6168581 12.7642312,14.9334809 13.7601873,14.8628315 C14.833273,14.9927018 15.6904992,15.829066 15.807229,16.918937 C15.7368287,17.9978988 14.9060026,19.0524451 13.7666579,19.0459516 C12.5131716,19.1542633 11.4142035,17.9028338 11.653616,16.6669887 Z M37.0825896,15.0911434 C38.3694642,14.3394545 40.1563874,15.4337411 40.0991872,16.9173785 C40.1874463,18.4893278 38.2097695,19.5971208 36.9283302,18.6750422 C35.5971967,17.9072494 35.7009852,15.7449101 37.0825896,15.0911434 Z M16.7638437,20.6314073 C18.2689072,20.2158226 19.9898303,20.9277712 20.7279973,22.3160839 C21.5365645,23.7134876 21.2060458,25.6547877 19.9502301,26.6797236 C18.3395663,28.1831013 15.3690393,27.5794645 14.5118131,25.5277746 C13.5267277,23.646994 14.7232726,21.1264726 16.7638437,20.6314073 Z M33.0721064,20.6236151 C34.5352404,20.2036148 36.2540928,20.7695892 37.04066,22.1072526 C38.0806162,23.6371239 37.5841911,25.9189438 36.0359039,26.9051783 C34.4141106,28.0503739 31.9019616,27.4490748 31.0095353,25.6584241 C29.9276495,23.8062149 31.0162647,21.1885506 33.0721064,20.6236151 Z M7.08355463,22.369071 C8.38362928,21.8755641 9.8247632,23.3153054 9.29805567,24.6088129 C8.97633702,25.7872554 7.3214142,26.2228401 6.46651741,25.3540083 C5.46616134,24.5381635 5.83653897,22.7228375 7.08355463,22.369071 Z M42.3224883,24.2462152 C42.2849588,23.1651755 43.0730789,22.2077721 44.1777411,22.1480318 C45.0680969,22.2895904 45.9338643,23.0103701 45.8634641,23.9830982 C45.9449937,25.2677744 44.4024007,26.1410219 43.3117149,25.537385 C42.8005368,25.2766056 42.5383478,24.7503715 42.3224883,24.2462152 Z M0.691111128,23.0036169 C1.47327828,22.6610192 2.44076365,23.3412795 2.26217486,24.2129685 C2.22024532,25.1999822 0.768240781,25.579463 0.23480382,24.754787 C-0.2365153,24.1820593 0.0456032283,23.2989418 0.691111128,23.0036169 Z M50.008277,22.9838766 C50.5590552,22.5903698 51.4426815,22.8732272 51.6608704,23.518942 C52.0309892,24.2241373 51.3523518,25.1903718 50.5613846,25.0711509 C49.4510282,25.1727094 49.09178,23.4745263 50.008277,22.9838766 Z M21.0121864,27.7218023 C23.0703575,27.184659 25.282788,28.906998 25.2957292,31.0337528 C25.430059,33.1828454 23.2510169,35.0885611 21.1441868,34.5921971 C19.5156641,34.32908 18.2378483,32.7547931 18.2906485,31.1033633 C18.2862485,29.5238816 19.4739934,28.0558285 21.0121864,27.7218023 Z M29.1630825,27.7173867 C31.2520537,27.1314122 33.5304843,28.8846603 33.4973548,31.0605061 C33.607614,33.1698583 31.4966427,35.0114182 29.4338127,34.5929763 C27.4926302,34.341028 26.0602963,32.2007667 26.6022745,30.3103757 C26.8758518,29.0506344 27.924608,28.0262181 29.1630825,27.7173867 Z M13.4475275,29.0264786 C14.8930614,28.7789459 16.2482656,30.3973887 15.6620285,31.7747923 C15.2344507,33.2425857 13.1058793,33.6407678 12.164794,32.4418058 C11.0609082,31.2903764 11.8850049,29.1854397 13.4475275,29.0264786 Z M37.3512492,29.091154 C38.6401944,28.5493354 40.2223876,29.6682972 40.1232579,31.0721944 C40.1750227,32.6176501 38.2216755,33.6833652 36.9612009,32.7812866 C35.5335259,31.9714159 35.7933855,29.5880374 37.3512492,29.091154 Z M44.0325407,35.8163538 C43.5278332,34.8721973 44.444589,33.6207678 45.4892041,33.7955731 C46.0091822,33.7867419 46.3728304,34.1979111 46.7056784,34.5428464 C46.7740081,35.1023273 46.8886673,35.7698603 46.4258893,36.2010294 C45.7974638,36.9992119 44.37393,36.7714195 44.0325407,35.8163538 Z M5.73507983,34.0584304 C6.71136523,33.4062221 8.11626374,34.3789501 7.8967807,35.5244056 C7.78005093,36.5373933 6.50844695,37.1163548 5.6708914,36.5415492 C4.77199447,36.0197306 4.80512398,34.5340152 5.73507983,34.0584304 Z M25.0226695,36.1789515 C26.3007441,35.6129771 27.929008,36.7296013 27.8078782,38.1423296 C27.9026079,39.7033697 25.8886958,40.7844095 24.6390918,39.8470062 C23.2510169,39.0420705 23.4824059,36.6740168 25.0226695,36.1789515 Z M16.0893475,38.2703817 C17.1779626,37.695576 18.6387672,38.688304 18.5396375,39.9109024 C18.572767,40.9147992 17.5964816,41.7703843 16.6093256,41.6220725 C15.7916995,41.6044101 15.2585214,40.8688252 14.9963323,40.1693441 C15.0097912,39.4070059 15.322451,38.5579143 16.0893475,38.2703817 Z M34.1847923,38.288044 C35.3042075,37.5937578 36.8952007,38.5909014 36.7893416,39.8984348 C36.8180711,41.2649294 35.0200184,42.1402547 33.9777328,41.2425917 C32.9685767,40.5389548 33.0917771,38.8475249 34.1847923,38.288044 Z M37.3315786,46.0950629 C36.8336005,45.3389584 37.4198377,44.4280486 38.2284049,44.255581 C38.8785716,44.3883083 39.5660091,44.8789581 39.4293498,45.6353223 C39.3346201,46.6589594 37.8427566,46.9729856 37.3315786,46.0950629 Z M12.3521829,45.438439 C12.5504423,44.8392178 13.0308203,44.2436329 13.7337872,44.3994772 C14.7584727,44.4724643 15.0625913,46.0223356 14.165765,46.4999983 C13.3592684,47.045713 12.4236184,46.2984397 12.3521829,45.438439 Z M24.4033029,46.125972 C24.5994917,45.2394778 25.7429776,44.8083087 26.4966741,45.2792181 C26.9946521,45.4937637 27.1401114,46.0529849 27.2679706,46.52831 C27.199641,46.7758426 27.1385585,47.023635 27.0785112,47.2711677 C26.7699926,47.6381809 26.3734737,48.0051942 25.8599662,47.9919474 C24.9056809,48.1041553 24.0448312,47.0215571 24.4033029,46.125972 Z" id="Shape"></path>
        </g>
    </g>
</svg>