<?xml version="1.0" encoding="UTF-8"?>
<svg width="10px" height="7px" viewBox="0 0 10 7" version="1.1" xmlns="http://www.w3.org/2000/svg" xmlns:xlink="http://www.w3.org/1999/xlink">
    <!-- Generator: Sketch 52.5 (67469) - http://www.bohemiancoding.com/sketch -->
    <title>Fill 4</title>
    <desc>Created with Sketch.</desc>
    <g id="⭐️-Register-&amp;-Login" stroke="none" stroke-width="1" fill="none" fill-rule="evenodd">
        <g id="3.1-Reset-password" transform="translate(-999.000000, -678.000000)" fill="#878BC8">
            <g id="Group-20-Copy" transform="translate(842.000000, 303.000000)">
                <g id="Group-5-Copy" transform="translate(157.000000, 369.000000)">
                    <path d="M9.77620549,8.99038693 L6.81176139,6.2112473 C6.5113179,5.92958423 6.02527622,5.92958423 5.72483273,6.2112473 C5.42438924,6.49291036 5.42438924,6.94953136 5.72483273,7.23119442 L7.37573381,8.7788993 L0.769053295,8.7788993 C0.344535876,8.7788993 0,9.10189858 0,9.49987984 C0,9.89786109 0.344535876,10.2208604 0.769053295,10.2208604 L7.37573381,10.2208604 L5.72483273,11.7685652 C5.42438924,12.0502283 5.42438924,12.5068493 5.72483273,12.7885124 C5.87454177,12.9288633 6.07141942,13 6.26829706,13 C6.4651747,13 6.66205235,12.9288633 6.81176139,12.7885124 L9.77620549,10.0093727 C9.84695839,9.94304254 9.90335564,9.86325403 9.942321,9.77577505 C10.0192263,9.5998558 10.0192263,9.40086518 9.942321,9.22398462 C9.90335564,9.13650565 9.84695839,9.05671714 9.77620549,8.99038693 Z" id="Fill-4" transform="translate(5.000000, 9.500000) rotate(-180.000000) translate(-5.000000, -9.500000) "></path>
                </g>
            </g>
        </g>
    </g>
</svg>