<?xml version="1.0" encoding="UTF-8"?>
<svg width="121px" height="33px" viewBox="0 0 121 33" version="1.1" xmlns="http://www.w3.org/2000/svg" xmlns:xlink="http://www.w3.org/1999/xlink">
    <!-- Generator: Sketch 61 (89581) - https://sketch.com -->
    <title>Group 32</title>
    <desc>Created with Sketch.</desc>
    <defs>
        <path d="M77.837,0.345 C77.646,0.345 77.493,0.5 77.493,0.691 L77.493,0.691 L77.493,27.654 C77.493,27.845 77.646,28 77.837,28 L77.837,28 L79.912,28 C80.103,28 80.257,27.845 80.257,27.654 L80.257,27.654 L80.257,0.691 C80.257,0.5 80.103,0.345 79.912,0.345 L79.912,0.345 L77.837,0.345 Z M55.638,0.345 C55.497,0.345 55.37,0.431 55.318,0.561 L55.318,0.561 L44.423,27.524 C44.331,27.752 44.499,28 44.744,28 L44.744,28 L46.981,28 C47.122,28 47.248,27.914 47.301,27.784 L47.301,27.784 L56.575,4.83 C56.692,4.542 57.1,4.542 57.216,4.83 L57.216,4.83 L62.109,16.938 L54.899,16.938 C54.758,16.938 54.632,17.023 54.579,17.154 L54.579,17.154 L53.741,19.228 C53.649,19.455 53.816,19.703 54.061,19.703 L54.061,19.703 L63.226,19.703 L66.49,27.784 C66.543,27.914 66.67,28 66.811,28 L66.811,28 L69.105,28 C69.333,28 69.5,27.782 69.438,27.56 L69.438,27.56 L58.458,0.598 C58.416,0.449 58.279,0.345 58.125,0.345 L58.125,0.345 L55.638,0.345 Z M24.43,0.345 C24.24,0.345 24.085,0.5 24.085,0.691 L24.085,0.691 L24.085,2.764 C24.085,2.956 24.24,3.111 24.43,3.111 L24.43,3.111 L45.171,3.111 C45.362,3.111 45.516,2.956 45.516,2.764 L45.516,2.764 L45.516,0.691 C45.516,0.5 45.362,0.345 45.171,0.345 L45.171,0.345 L24.43,0.345 Z M11.645,0.345 C11.505,0.345 11.378,0.431 11.325,0.561 L11.325,0.561 L0.431,27.524 C0.339,27.752 0.507,28 0.751,28 L0.751,28 L2.989,28 C3.13,28 3.256,27.914 3.309,27.784 L3.309,27.784 L12.583,4.83 C12.7,4.542 13.107,4.542 13.224,4.83 L13.224,4.83 L18.116,16.938 L10.906,16.938 C10.766,16.938 10.639,17.023 10.587,17.154 L10.587,17.154 L9.749,19.228 C9.656,19.455 9.823,19.703 10.068,19.703 L10.068,19.703 L19.233,19.703 L22.498,27.784 C22.55,27.914 22.677,28 22.818,28 L22.818,28 L25.113,28 C25.341,28 25.507,27.782 25.446,27.56 L25.446,27.56 L14.465,0.598 C14.423,0.449 14.287,0.345 14.133,0.345 L14.133,0.345 L11.645,0.345 Z M33.763,5.876 C33.573,5.876 33.418,6.031 33.418,6.222 L33.418,6.222 L33.418,27.654 C33.418,27.845 33.573,28 33.763,28 L33.763,28 L35.838,28 C36.029,28 36.184,27.845 36.184,27.654 L36.184,27.654 L36.184,6.222 C36.184,6.031 36.029,5.876 35.838,5.876 L35.838,5.876 L33.763,5.876 Z" id="path-1"></path>
        <path d="M0.524,0.345 C0.24,0.345 0.077,0.666 0.243,0.894 L0.243,0.894 L9.743,13.969 C9.832,14.091 9.832,14.255 9.743,14.375 L9.743,14.375 L0.243,27.451 C0.077,27.679 0.24,28 0.523,28 L0.523,28 L3.086,28 C3.198,28 3.301,27.947 3.366,27.857 L3.366,27.857 L13.162,14.375 C13.249,14.255 13.249,14.091 13.162,13.969 L13.162,13.969 L11.6,11.82 L3.366,0.488 C3.301,0.398 3.198,0.345 3.087,0.345 L3.087,0.345 L0.524,0.345 Z" id="path-3"></path>
        <path d="M7.112,0.345 C7.003,0.345 6.899,0.398 6.833,0.488 L6.833,0.488 L0.456,9.264 C0.369,9.386 0.369,9.55 0.456,9.671 L0.456,9.671 L1.739,11.435 C1.876,11.625 2.16,11.625 2.297,11.435 L2.297,11.435 L9.956,0.893 C10.122,0.666 9.959,0.345 9.676,0.345 L9.676,0.345 L7.112,0.345 Z" id="path-5"></path>
        <path d="M1.739,0.91 L0.456,2.674 C0.369,2.795 0.369,2.959 0.456,3.081 L0.456,3.081 L6.833,11.857 C6.899,11.947 7.003,12.001 7.112,12.001 L7.112,12.001 L9.676,12.001 C9.959,12.001 10.122,11.679 9.956,11.451 L9.956,11.451 L2.297,0.91 C2.228,0.815 2.123,0.768 2.018,0.768 L2.018,0.768 C1.912,0.768 1.807,0.815 1.739,0.91 L1.739,0.91 Z" id="path-7"></path>
        <polygon id="path-9" points="0 0.83982188 4.82537966 0.83982188 4.82537966 6.12776147 0 6.12776147"></polygon>
        <polygon id="path-11" points="0 0.6013 4.2528 0.6013 4.2528 4.12776147 0 4.12776147"></polygon>
    </defs>
    <g id="Landing" stroke="none" stroke-width="1" fill="none" fill-rule="evenodd">
        <g id="1.-Landing-Page--Copy-2" transform="translate(-22.000000, -21.000000)">
            <g id="Group-32" transform="translate(22.000000, 21.000000)">
                <g id="Group-3" transform="translate(10.000000, 4.654700)">
                    <mask id="mask-2" fill="white">
                        <use xlink:href="#path-1"></use>
                    </mask>
                    <g id="Clip-2"></g>
                    <polygon id="Fill-1" fill="#302D43" mask="url(#mask-2)" points="-4.594 32.999 85.258 32.999 85.258 -4.655 -4.594 -4.655"></polygon>
                </g>
                <g id="Group-6" transform="translate(98.000000, 4.654700)">
                    <mask id="mask-4" fill="white">
                        <use xlink:href="#path-3"></use>
                    </mask>
                    <g id="Clip-5"></g>
                    <polygon id="Fill-4" fill="#656FFF" mask="url(#mask-4)" points="-4.823 32.999 18.227 32.999 18.227 -4.655 -4.823 -4.655"></polygon>
                </g>
                <g id="Group-9" transform="translate(111.000000, 4.654700)">
                    <mask id="mask-6" fill="white">
                        <use xlink:href="#path-5"></use>
                    </mask>
                    <g id="Clip-8"></g>
                    <polygon id="Fill-7" fill="#F55E6E" mask="url(#mask-6)" points="-4.61 16.577 15.023 16.577 15.023 -4.655 -4.61 -4.655"></polygon>
                </g>
                <g id="Group-12" transform="translate(111.000000, 20.654700)">
                    <mask id="mask-8" fill="white">
                        <use xlink:href="#path-7"></use>
                    </mask>
                    <g id="Clip-11"></g>
                    <polygon id="Fill-10" fill="#F55E6E" mask="url(#mask-8)" points="-4.61 16.999 15.023 16.999 15.023 -4.233 -4.61 -4.233"></polygon>
                </g>
                <g id="Group-31" transform="translate(0.000000, 0.654700)">
                    <path d="M28.013,9.198 C27.584,7.462 27.155,5.726 26.156,4.187 C25.156,2.649 23.586,1.306 22.235,0.668 C20.884,0.03 19.752,0.095 17.772,0.604 C15.793,1.113 12.967,2.067 10.938,3.4 C8.909,4.734 7.677,6.448 6.865,8.857 C6.053,11.266 5.662,14.369 5.013,16.242 C4.365,18.115 3.459,18.758 2.553,19.4 C3.8,19.113 5.047,18.824 6.174,17.545 C7.302,16.264 8.309,13.992 9.161,12.342 C10.013,10.691 10.71,9.662 11.253,9.265 C11.795,8.868 12.183,9.103 12.572,9.338 C12.358,9.743 12.144,10.149 12.277,10.436 C12.409,10.722 12.888,10.891 13.366,11.059 C12.995,11.441 12.625,11.822 12.746,12.506 C12.866,13.189 13.477,14.175 14.089,15.161 C15.472,14.05 16.856,12.939 18.693,12.029 C20.529,11.117 22.818,10.406 24.447,9.968 C26.076,9.53 27.044,9.364 28.013,9.198" id="Fill-13" fill="#E80E0E"></path>
                    <path d="M27.7913,8.3132 C27.4213,6.8772 26.9853,5.4642 26.1553,4.1872 C25.7553,3.5712 25.2633,2.9862 24.7303,2.4652 C25.0573,2.9192 25.3393,3.3992 25.5703,3.8762 C26.1293,5.0312 26.3873,6.1652 26.3533,6.9982 C26.3293,7.5622 26.1713,7.9882 25.4303,8.4412 C25.9863,8.3862 26.4843,8.3472 26.8863,8.3262 C27.2673,8.3062 27.5623,8.3022 27.7913,8.3132" id="Fill-15" fill="#BF2000"></path>
                    <path d="M15.7766,10.7785 C14.5926,10.5385 14.8466,9.5635 15.1006,8.5875 C14.5766,9.3975 14.0526,10.2075 13.9836,10.0845 C13.9146,9.9605 14.2996,8.9025 14.6856,7.8445 C14.1686,8.6245 13.6516,9.4055 13.3476,9.4135 C13.0456,9.4225 12.9556,8.6585 13.1966,7.9225 C13.4386,7.1865 14.0106,6.4785 14.5826,5.7705 C12.9406,6.4895 11.2986,7.2085 10.2106,8.4905 C9.1216,9.7715 8.5866,11.6145 7.8906,13.2895 C7.1946,14.9645 6.3386,16.4705 5.4406,17.4495 C5.0166,17.9105 4.5846,18.2555 4.1466,18.5375 C4.2276,18.6445 4.2966,18.7545 4.3516,18.8685 C4.9806,18.6005 5.5926,18.2045 6.1736,17.5445 C7.3016,16.2645 8.3086,13.9915 9.1616,12.3415 C10.0136,10.6915 10.7106,9.6625 11.2526,9.2655 C11.7956,8.8685 12.1836,9.1035 12.5716,9.3375 C12.3576,9.7435 12.1446,10.1485 12.2766,10.4355 C12.4086,10.7225 12.8876,10.8905 13.3656,11.0595 C12.9956,11.4405 12.6256,11.8215 12.7456,12.5055 C12.7836,12.7225 12.8716,12.9705 12.9936,13.2395 C13.0156,13.1975 13.0396,13.1555 13.0666,13.1115 C13.4516,12.4785 14.3286,11.6265 15.5416,10.9125 C15.6186,10.8675 15.6966,10.8225 15.7766,10.7785" id="Fill-17" fill="#C40808"></path>
                    <path d="M26.4846,8.3508 C26.4406,8.3538 26.3956,8.3568 26.3496,8.3608 C26.1476,7.9738 25.5566,8.2358 25.4586,8.4388 C23.9666,8.5848 22.0506,8.8458 20.4666,9.1738 C19.8306,9.3058 19.2456,9.4498 18.7086,9.6038 C18.6086,9.5148 18.3196,9.5398 18.2396,9.7458 C18.1926,9.7598 18.1476,9.7748 18.1026,9.7888 C18.0356,9.6628 17.7966,9.4818 17.6856,9.6258 C17.4616,9.6468 17.2626,9.8788 17.2226,10.1028 C16.5936,10.3508 16.0396,10.6208 15.5416,10.9128 C15.4466,10.9688 15.3546,11.0258 15.2636,11.0828 C15.1996,11.0508 14.8956,11.0358 14.8266,11.1178 C14.6786,11.1318 14.4876,11.3648 14.4566,11.5418 C13.9806,11.5858 13.5956,11.7638 13.6796,12.3458 C13.4146,12.6188 13.2076,12.8808 13.0666,13.1118 C12.6806,13.7458 12.7856,14.1608 12.9076,14.5978 C13.0296,15.0358 13.1686,15.4958 13.2076,15.9788 C13.2476,16.4628 13.1876,16.9698 13.2566,17.4648 C13.3266,17.9598 13.5256,18.4438 13.8816,18.7538 C14.2376,19.0628 14.7516,19.1998 15.4686,18.8058 C16.1846,18.4128 17.1036,17.4888 18.3866,16.7008 C19.6706,15.9128 21.3176,15.2608 22.8516,14.7828 C24.3846,14.3048 25.8036,14.0008 26.9996,13.8338 C28.1946,13.6668 29.1666,13.6358 29.7456,13.4808 C30.3246,13.3268 30.5116,13.0488 30.4516,12.7658 C30.3916,12.4808 30.0856,12.1908 29.7346,11.7218 C29.3826,11.2518 28.9846,10.6038 28.8096,10.0508 C28.6386,9.5128 28.8016,7.7448 27.9496,8.1758 C27.9426,8.1798 27.9086,8.2058 27.9026,8.2138 C27.8476,8.2188 27.7886,8.2708 27.7546,8.3118 C27.7416,8.3108 27.7296,8.3108 27.7156,8.3098 C27.5836,7.7828 26.6156,7.5998 26.4846,8.3508" id="Fill-19" fill="#EDF3F7"></path>
                    <path d="M30.4519,12.7654 C30.4019,12.5294 30.1819,12.2884 29.9069,11.9444 C29.8509,11.8744 29.7929,11.8004 29.7339,11.7214 C29.3829,11.2524 28.9849,10.6034 28.8089,10.0504 C28.7069,9.7304 28.6799,9.4414 28.6609,9.1944 C28.6589,9.1674 28.6569,9.1404 28.6549,9.1144 C28.6479,9.1194 28.6399,9.1254 28.6329,9.1314 C28.3689,9.3364 28.2299,9.7144 28.2389,10.0834 C28.2509,10.5844 28.5359,11.0694 28.6819,11.5044 C28.8279,11.9394 28.8339,12.3254 28.3129,12.5324 C27.7919,12.7394 26.7429,12.7674 25.1909,13.2034 C23.6399,13.6404 21.5849,14.4844 20.0049,15.3524 C19.0979,15.8504 18.3479,16.3564 17.7089,16.7824 C17.2339,17.0984 16.8209,17.3714 16.4499,17.5634 C15.9789,17.8074 15.5769,17.9224 15.2469,17.9264 C14.9659,17.9304 14.7379,17.8534 14.5619,17.7074 C14.1809,17.3904 14.0549,16.7454 13.8409,16.2014 C13.6269,15.6564 13.3259,15.2114 13.0059,14.8204 C12.9879,14.7994 12.9699,14.7784 12.9519,14.7564 C13.0619,15.1464 13.1729,15.5534 13.2079,15.9784 C13.2469,16.4624 13.1879,16.9694 13.2569,17.4654 C13.3269,17.9604 13.5249,18.4434 13.8819,18.7534 C14.2379,19.0634 14.7519,19.1994 15.4689,18.8064 C16.0659,18.4774 16.8049,17.7804 17.7789,17.1004 C17.9719,16.9654 18.1739,16.8314 18.3869,16.7014 C18.5649,16.5914 18.7499,16.4844 18.9419,16.3804 C20.1259,15.7354 21.5309,15.1944 22.8509,14.7824 C24.3849,14.3044 25.8039,14.0014 26.9999,13.8334 C28.1949,13.6664 29.1659,13.6354 29.7449,13.4814 C30.0839,13.3904 30.2889,13.2584 30.3889,13.1074 C30.3979,13.0934 30.4069,13.0784 30.4139,13.0634 C30.4629,12.9684 30.4729,12.8674 30.4519,12.7654" id="Fill-21" fill="#B7D1E4"></path>
                    <g id="Group-25" transform="translate(0.000000, 16.000000)">
                        <mask id="mask-10" fill="white">
                            <use xlink:href="#path-9"></use>
                        </mask>
                        <g id="Clip-24"></g>
                        <path d="M0.0701,2.9973 C0.1281,2.7283 0.2921,2.4933 0.2691,2.2393 C0.2311,1.8273 0.1901,1.3073 0.7491,1.3123 C0.8591,1.3123 0.9761,1.4433 1.0391,1.5293 C1.1771,1.4523 1.3271,1.3963 1.4881,1.3663 C1.5151,1.3613 1.5431,1.3563 1.5701,1.3533 C1.6251,1.2403 2.1511,0.7903 2.3331,0.8443 C2.5201,0.8993 2.5841,1.2313 2.6221,1.3863 C2.8271,1.3683 3.3381,0.9043 3.4361,1.7463 C3.4421,1.7933 3.4461,1.8483 3.4481,1.8953 C3.5811,1.9843 3.7051,2.0803 3.8171,2.1813 C4.1541,2.4843 4.3841,2.8353 4.4791,3.2153 C4.8941,3.2613 4.9591,4.2113 4.5481,4.2493 L4.4001,4.2633 C4.1141,5.0013 3.3491,5.7703 2.5801,6.0273 C1.7891,6.2923 0.9951,6.0163 0.5221,5.3963 C0.0481,4.7773 -0.1049,3.8153 0.0701,2.9973" id="Fill-23" fill="#EDF3F7" mask="url(#mask-10)"></path>
                    </g>
                    <g id="Group-28" transform="translate(0.000000, 18.000000)">
                        <mask id="mask-12" fill="white">
                            <use xlink:href="#path-11"></use>
                        </mask>
                        <g id="Clip-27"></g>
                        <path d="M1.5808,2.6033 C2.2448,3.2623 2.8038,3.1913 3.3188,3.0123 C3.6438,2.8993 3.9518,2.7453 4.2528,2.5743 C3.8998,3.2063 3.2408,3.8063 2.5808,4.0273 C1.7888,4.2923 0.9958,4.0163 0.5218,3.3963 C0.0478,2.7773 -0.1052,1.8153 0.0698,0.9973 C0.0998,0.8603 0.1378,0.7283 0.1848,0.6013 C0.6758,1.4433 1.1508,2.1773 1.5808,2.6033 Z" id="Fill-26" fill="#B7D1E4" mask="url(#mask-12)"></path>
                    </g>
                    <path d="M26.0349,5.0315 C25.9139,4.6565 25.7599,4.2675 25.5709,3.8765 C25.3389,3.3995 25.0569,2.9195 24.7299,2.4655 C23.9329,1.6865 23.0449,1.0515 22.2349,0.6685 C20.8839,0.0295 19.7519,0.0945 17.7719,0.6045 C16.8279,0.8465 15.6919,1.1905 14.5409,1.6285 C14.3379,2.2035 14.2529,2.8145 14.3099,3.4385 C14.5659,6.2285 17.5479,8.2365 20.9719,7.9225 C23.2059,7.7185 25.0769,6.5755 26.0349,5.0315" id="Fill-29" fill="#FC2424"></path>
                </g>
            </g>
        </g>
    </g>
</svg>