<?xml version="1.0" encoding="UTF-8"?>
<svg width="64px" height="64px" viewBox="0 0 64 64" version="1.1" xmlns="http://www.w3.org/2000/svg" xmlns:xlink="http://www.w3.org/1999/xlink">
    <!-- Generator: Sketch 58 (84663) - https://sketch.com -->
    <title>BBK</title>
    <desc>Created with Sketch.</desc>
    <defs>
        <linearGradient x1="100%" y1="0%" x2="0%" y2="100%" id="linearGradient-1">
            <stop stop-color="#767FFF" offset="0%"></stop>
            <stop stop-color="#5560FF" offset="100%"></stop>
        </linearGradient>
        <polygon id="path-2" points="0.00832771084 0.06272 18.6088132 0.06272 18.6088132 16.9466624 0.00832771084 16.9466624"></polygon>
    </defs>
    <g id="BBK" stroke="none" stroke-width="1" fill="none" fill-rule="evenodd">
        <g id="CYVA" fill="url(#linearGradient-1)" fill-rule="nonzero">
            <circle id="Oval" cx="32" cy="32" r="32"></circle>
        </g>
        <g id="Group-9" transform="translate(16.000000, 16.000000)">
            <polygon id="Fill-1" fill="#FFFFFF" points="21 0 21 3.00997487 28.8334719 3.00997487 28.8334719 12 32 12 32 0"></polygon>
            <polygon id="Fill-2" fill="#FFFFFF" points="0 20 0 28.9899921 0 30.4554912 0 32 11 32 11 28.9899921 3.16676532 28.9899921 3.16676532 20"></polygon>
            <g id="Group-8">
                <g id="Group-5">
                    <mask id="mask-3" fill="white">
                        <use xlink:href="#path-2"></use>
                    </mask>
                    <g id="Clip-4"></g>
                    <path d="M3.90667309,3.0266624 L13.5119422,3.0266624 C14.1965365,3.0266624 14.7515888,3.5793664 14.7515888,4.2613504 L14.7515888,5.8897664 C14.7515888,6.5000704 14.2548819,6.9946624 13.6422554,6.9946624 L3.90667309,6.9946624 L3.90667309,3.0266624 Z M3.90667309,16.9254144 L10.0110908,16.9254144 L10.0110908,13.8534144 L3.90667309,13.8534144 L3.90667309,9.6186624 L13.5177253,9.6186624 C14.0297253,9.6186624 14.4448257,10.0321024 14.4448257,10.5420544 L14.4448257,11.8694144 L18.5056129,11.8694144 L18.5056129,11.1686144 C18.5056129,9.6025344 17.2308819,8.3329024 15.6583839,8.3329024 L15.4300145,8.3329024 C15.4300145,8.3329024 18.5572755,8.0751104 18.5572755,5.5494144 C18.5572755,5.4453504 18.575396,5.3114624 18.5733398,5.1814144 C18.5586892,4.2347264 19.1301912,0.3760384 16.1797655,0.1094144 L3.90667309,0.0626944 L0.00832771084,0.0626944 L0.00832771084,16.9466624 L3.90667309,16.9466624 L3.90667309,16.9254144 Z" id="Fill-3" fill="#FFFFFF" mask="url(#mask-3)"></path>
                </g>
                <path d="M27.8263518,26.6054144 L27.8263518,27.7200384 C27.8263518,28.2443264 27.3995566,28.6694144 26.8731631,28.6694144 L22.9588819,28.6694144 L22.9590104,28.6842624 L17.2400064,28.6694144 L17.277404,24.5680384 L26.8885847,24.5680384 C27.4005847,24.5680384 27.8155566,24.9813504 27.8155566,25.4914304 L27.8384321,26.6052864 L27.8263518,26.6054144 Z M17.277404,17.9760384 L26.8828016,17.9760384 C27.567396,17.9760384 28.1224482,18.5287424 28.1224482,19.2107264 L28.1224482,20.8390144 C28.1224482,21.4493184 27.6256129,21.9440384 27.0129863,21.9440384 L17.277404,21.9440384 L17.277404,17.9760384 Z M29.5504964,15.0586624 L17.277404,15.0120704 L13.3791871,15.0120704 L13.3791871,31.8960384 L17.277404,31.8746624 L23.3818217,31.8746624 L23.3818217,31.8507264 C24.5853558,31.8413824 28.3504321,31.9465984 29.3582394,31.7327104 C29.8111229,31.6364544 31.7572112,30.7513344 31.8906088,28.8934144 L31.9050024,26.7814144 L31.9066731,26.7814144 L31.9066731,26.1094144 C31.9066731,24.5433344 30.6016129,23.2821504 29.0291149,23.2821504 L28.8008739,23.2821504 C28.8008739,23.2821504 31.9280064,23.0244864 31.9280064,20.4986624 C31.9280064,20.3947264 31.9461269,20.2607104 31.9440707,20.1306624 C31.9295486,19.1841024 32.5010506,15.3254144 29.5504964,15.0586624 L29.5504964,15.0586624 Z" id="Fill-6" fill="#FFFFFF"></path>
            </g>
        </g>
    </g>
</svg>