<?xml version="1.0" encoding="UTF-8"?>
<svg width="64px" height="64px" viewBox="0 0 64 64" version="1.1" xmlns="http://www.w3.org/2000/svg" xmlns:xlink="http://www.w3.org/1999/xlink">
    <!-- Generator: Sketch 53 (72520) - https://sketchapp.com -->
    <title>Bitcoin Cash</title>
    <desc>Created with Sketch.</desc>
    <defs>
        <linearGradient x1="100%" y1="0%" x2="0%" y2="100%" id="linearGradient-1">
            <stop stop-color="#767FFF" offset="0%"></stop>
            <stop stop-color="#5560FF" offset="100%"></stop>
        </linearGradient>
        <polygon id="path-2" points="0 0.167030303 63.8329697 0.167030303 63.8329697 63.999903 0 63.999903"></polygon>
        <polygon id="path-4" points="0 0 26 0 26 32 0 32"></polygon>
    </defs>
    <g id="Bitcoin-Cash" stroke="none" stroke-width="1" fill="none" fill-rule="evenodd">
        <circle id="Oval" fill="url(#linearGradient-1)" cx="32" cy="32" r="32"></circle>
        <g id="Group-3">
            <mask id="mask-3" fill="white">
                <use xlink:href="#path-2"></use>
            </mask>
            <g id="Clip-2"></g>
        </g>
        <g id="Group" transform="translate(9.000000, 9.000000)">
            <g id="Group-3-Copy" transform="translate(10.000000, 7.000000)">
                <mask id="mask-5" fill="white">
                    <use xlink:href="#path-4"></use>
                </mask>
                <g id="Clip-2"></g>
                <path d="M20.2942794,18.4336286 L20.3016128,18.4469219 L20.3028498,18.4492677 C20.3055887,18.4649069 20.3094763,18.4772445 20.3122153,18.4927099 L20.3134522,18.494882 L20.3146892,18.497141 L20.3159261,18.4994868 L20.3171631,18.5016589 C20.4272521,19.0420791 20.3481753,19.6032647 20.0926558,20.0937264 L20.0676516,20.1384718 L20.0556355,20.1591503 L20.0468001,20.1752239 L20.0424707,20.1833041 L20.0347839,20.1959023 L20.0304546,20.2038957 L20.0227678,20.2165808 L20.0184385,20.2245741 L20.0085428,20.2383887 L20.0042135,20.2463821 L19.9943178,20.2601967 L19.9899885,20.26819 L19.9800928,20.2820046 L19.9757635,20.289998 L19.9658679,20.3038126 L19.9615385,20.3118059 L19.9516429,20.3256205 L19.9473135,20.3336139 L19.9374179,20.3474285 L19.9330886,20.3554219 L19.9231929,20.3692365 L19.9188636,20.3772298 L19.9089679,20.3910444 L19.9046386,20.3990378 L19.8947429,20.4128524 L19.8904136,20.4208457 L19.8782208,20.4359636 L19.8738914,20.4439569 L19.8616986,20.4589879 L19.8573692,20.4668944 L19.8464133,20.4843581 L19.842084,20.4922646 L19.8311281,20.5097283 L19.8267988,20.5176348 L19.8158429,20.5350985 L19.8092163,20.5443083 L19.7982605,20.5615982 L19.7916339,20.5708949 L19.7783808,20.5893143 L19.7717543,20.5985241 L19.7585012,20.6169435 L19.7518746,20.6260664 L19.7386216,20.6444858 L19.731995,20.6537825 L19.7186536,20.6722019 L19.712027,20.6813248 L19.6987739,20.6998311 L19.6876413,20.7114736 L19.6666131,20.7369307 C19.0430994,21.5198449 18.0373666,22.1640049 16.8158735,22.4722703 C16.0455156,22.6678468 13.7179196,23.2665664 13.151571,23.4087091 L11.5669432,17.3454899 C12.1324084,17.2010013 14.4661891,16.6248717 15.2364587,16.4292952 C16.4580401,16.120856 17.6573564,16.2084354 18.5842774,16.59759 L18.6144945,16.610362 L18.629603,16.6166177 L18.6516915,16.625393 L18.6621173,16.628434 L18.6819085,16.6379044 L18.6923343,16.6409453 L18.7121256,16.6505895 L18.7225513,16.6536304 L18.7423426,16.6631008 L18.7503828,16.6673581 L18.7701741,16.6769154 L18.7783027,16.6811727 L18.798094,16.69073 L18.8062225,16.6949873 L18.8260138,16.7046315 L18.8341424,16.7088019 L18.8504878,16.7174903 L18.8586164,16.7217477 L18.8749619,16.7304361 L18.8830904,16.7346934 L18.8994359,16.7433819 L18.9075645,16.7477261 L18.92391,16.7563276 L18.9320385,16.7605849 L18.948384,16.7693603 L18.9565126,16.7736176 L18.972858,16.7822191 L18.9809866,16.7864765 L18.9973321,16.7952518 L19.0054606,16.7994222 L19.0218061,16.8081106 L19.0299347,16.8124549 L19.0462801,16.8210564 L19.0544087,16.8253137 L19.068457,16.8351317 L19.0765855,16.8393021 L19.0906338,16.84912 L19.0987624,16.8533774 L19.1128107,16.8631084 L19.1209392,16.8673657 L19.1349875,16.8770968 L19.1431161,16.8813541 L19.1571643,16.8909982 L19.1652929,16.8953425 L19.1781926,16.9029014 L19.1863211,16.9071587 L19.2003694,16.9168898 L19.2191004,16.9298355 C19.2331487,16.9396534 19.2494942,16.9481681 19.2632774,16.957986 C19.7269588,17.2672072 20.071009,17.7212644 20.239765,18.2467405 L20.2446245,18.255342 C20.2496607,18.2698517 20.2534599,18.2822762 20.2584961,18.2967858 L20.259733,18.2989579 L20.2670664,18.3123381 C20.2722793,18.3324084 20.2774922,18.3525655 20.283942,18.3749817 C20.2953397,18.380021 20.2971951,18.4046961 20.2935726,18.4353662 L20.2942794,18.4336286 Z M9.38150872,8.98730947 C9.85782476,8.86714851 11.8272339,8.38068345 12.4766353,8.21473449 C13.509051,7.95486362 14.5264465,8.05573626 15.3207483,8.43194518 L15.3472545,8.44358767 L15.3589172,8.44880073 L15.3752627,8.45757604 L15.3833912,8.46183337 L15.3997367,8.47043491 L15.4078653,8.47469224 L15.4242108,8.48346755 L15.4323393,8.487638 L15.4486848,8.49632642 L15.4568134,8.50067064 L15.4731588,8.50927218 L15.4812874,8.51352951 L15.4976329,8.52230482 L15.5057614,8.52656215 L15.5221069,8.5351637 L15.5302355,8.53942102 L15.546581,8.54819634 L15.5547095,8.55236678 L15.571055,8.56105521 L15.5791836,8.56531254 L15.5932318,8.57504358 L15.6013604,8.57930091 L15.6154087,8.58903195 L15.6235372,8.59328928 L15.6375855,8.6031072 L15.6457141,8.60727764 L15.6586137,8.61483658 L15.6667423,8.61909391 L15.679642,8.62665284 L15.6877705,8.63099705 L15.7006702,8.63855598 L15.7088871,8.64281331 L15.7217868,8.65028536 L15.729827,8.65454269 L15.7427267,8.66210162 L15.7486464,8.66766222 L15.7615461,8.67522115 L15.7662288,8.67843587 L15.7791285,8.6859948 L15.7838113,8.68920952 L15.7967109,8.69676845 L15.8013937,8.69998317 L15.8142934,8.7075421 L15.8189761,8.71075682 L15.8295786,8.71935836 L15.8342614,8.72257308 L15.847161,8.73013201 L15.8648318,8.74090566 C15.8777315,8.74846459 15.8894826,8.75941201 15.9023822,8.76697094 C16.3090754,9.06880692 16.6078,9.48976123 16.7557045,9.96910178 L16.759327,9.97579187 C16.7631262,9.98821632 16.7681624,10.002726 16.7719616,10.0149767 L16.7731986,10.0173226 L16.7805319,10.030529 C16.7858332,10.050773 16.792018,10.0674548 16.7972308,10.0876119 C16.8029738,10.1082035 16.8066847,10.1293164 16.8083634,10.1505161 L16.8156968,10.1638094 L16.8170221,10.1661553 C16.8189659,10.179883 16.8224117,10.1933501 16.8273595,10.2064696 L16.830982,10.2131597 C16.9354164,10.7030133 16.8797534,11.213024 16.671945,11.6699484 L16.6536557,11.7111315 L16.6440251,11.7306805 L16.6363383,11.7432787 L16.6341295,11.7501425 L16.6288282,11.7616113 L16.6266194,11.7684751 L16.6189326,11.7812471 L16.6168121,11.788111 L16.6092137,11.8007092 L16.6070932,11.8075731 L16.5994064,11.820345 L16.5972859,11.827122 L16.5895991,11.8398071 L16.5873903,11.846671 L16.5797035,11.8593561 L16.5776713,11.8662199 L16.5699845,11.8789919 L16.5656552,11.8868984 L16.5579684,11.8995835 L16.5536391,11.9076637 L16.5460406,11.920262 L16.5416229,11.9282553 L16.5340245,11.9409404 L16.5296951,11.9489338 L16.5197995,11.9627484 L16.5152934,11.9707417 L16.5054862,11.9845563 L16.5011568,11.9925497 L16.4912612,12.0063643 L16.4869318,12.0143576 L16.4770362,12.0281722 L16.4727069,12.0361656 L16.4628112,12.0499802 L16.4583935,12.0579735 L16.4485862,12.0717881 L16.4442569,12.0797815 L16.4342729,12.0935961 L16.4300319,12.1015894 L16.4201363,12.115404 L16.4158069,12.1233974 L16.4036141,12.1384284 L16.3992847,12.1465086 L16.3870919,12.1615396 L16.3827626,12.1694461 L16.3705697,12.184477 L16.3662404,12.1924704 L16.3540475,12.2075014 L16.3452121,12.2179275 L16.3286899,12.2411256 C15.8152653,12.9484505 14.9738708,13.5199752 13.9414551,13.7798461 C13.2907284,13.9437098 11.3261787,14.4502452 10.8503045,14.570493 L9.38150872,8.98730947 Z M25.7853879,17.2301076 L25.7708095,17.203521 L25.7683356,17.199003 C25.7595002,17.1721558 25.7528736,17.1440921 25.7428013,17.1150728 L25.7415643,17.1128138 L25.7403274,17.1105548 L25.7391788,17.1082958 L25.7378535,17.1061237 L25.7366165,17.1037778 L25.7354679,17.1015188 L25.7329056,17.0970877 C25.4249922,16.0845384 24.8145549,15.1863288 23.9807588,14.5193182 L23.9795219,14.5170592 C23.9548711,14.4985528 23.9289834,14.4779613 23.9042443,14.4595418 L23.8701397,14.434606 L23.845489,14.4161865 L23.8348865,14.4074112 L23.8113843,14.3912508 L23.8008702,14.3824754 L23.7772797,14.366315 L23.7666773,14.3575397 L23.7420265,14.3391202 L23.7291268,14.3315613 L23.7044761,14.3131418 L23.6915764,14.3055829 L23.6650702,14.288206 L23.6521706,14.2806471 L23.6365319,14.257449 L23.6224836,14.247631 L23.5959775,14.2302542 L23.5819292,14.2205232 L23.555423,14.2032332 L23.5413747,14.1934153 L23.5148686,14.1760384 L23.5008203,14.1663074 L23.4727237,14.1468453 L23.4585871,14.1371142 L23.4281933,14.1187817 L23.4142334,14.1091375 L23.3837513,14.0908049 L23.3697914,14.080987 L23.3393093,14.0626544 L23.3253494,14.0529234 L23.2948673,14.0345908 L23.2785218,14.0259893 L23.2482164,14.0076567 L23.2318709,13.9988814 L23.1990916,13.9815045 L23.1827461,13.9728161 L23.1489066,13.9536147 L23.1325611,13.9448393 L23.0986332,13.925551 L23.0822877,13.9169495 L23.0482714,13.8975743 L23.030689,13.8868006 L22.9966727,13.8675123 L22.9790903,13.8567387 L22.9429536,13.8385799 L22.9251944,13.8278062 L22.889146,13.8096474 L22.864672,13.7967885 L22.8635234,13.7945295 C22.8457642,13.7837559 22.8272983,13.7763707 22.8098042,13.7655971 C22.0596793,13.386521 21.2498272,13.134991 20.4145291,13.0213464 C20.6487554,12.7737262 20.8632787,12.508816 21.0562437,12.228788 L21.0869909,12.1838688 L21.0892881,12.1827394 L21.1035131,12.1607576 L21.1221558,12.1308694 L21.131963,12.1170548 L21.1506941,12.0871666 L21.1605897,12.073352 L21.1792324,12.0434639 L21.1890397,12.0296493 L21.2077707,11.9997611 L21.2176664,11.9859465 L21.236309,11.9560583 L21.2461163,11.9422437 L21.2624618,11.913485 L21.2724458,11.8996704 L21.2887913,11.8709117 L21.2964781,11.8582266 L21.3128235,11.8294679 L21.3205103,11.8168697 L21.3368558,11.788111 L21.3444542,11.775339 L21.3584142,11.7477967 L21.366101,11.7351116 L21.3802376,11.7075692 L21.387836,11.6948841 L21.4019727,11.6673418 L21.4096594,11.6547436 L21.424768,11.6294603 L21.4324548,11.6166883 L21.4478283,11.591405 L21.4555151,11.5788068 L21.4685915,11.5546529 L21.47619,11.5420547 L21.4892663,11.5179009 L21.4946559,11.5064322 L21.5077323,11.4823652 L21.5131219,11.4708965 L21.5261983,11.4468295 L21.5315879,11.4353608 L21.5446643,11.4113808 L21.5500538,11.3998251 L21.560833,11.3768877 L21.5662226,11.365419 L21.5770901,11.3425684 L21.5823914,11.3310128 L21.5931706,11.3080754 L21.5985601,11.2966066 L21.6103996,11.2706282 L21.6265683,11.2357876 C21.6384078,11.2097224 21.64795,11.1843521 21.6597894,11.1575918 L21.6620866,11.1563754 C22.0215104,10.2851868 22.1058001,9.32763517 21.9039113,8.40857331 L21.9026744,8.40631431 L21.9002005,8.40188322 L21.8989635,8.39971111 L21.8977266,8.39736523 L21.8964896,8.39510624 L21.8952526,8.39293414 L21.8940157,8.39058826 L21.8927787,8.38841615 C21.8873891,8.36226399 21.8819996,8.33672001 21.8744011,8.31204488 L21.8744011,8.30709247 L21.8732525,8.30483348 L21.8719272,8.30257449 L21.8706903,8.3003155 L21.8719272,8.30257449 L21.8609713,8.28259111 C21.8531078,8.2467079 21.8449793,8.21091158 21.8334932,8.17389888 C21.8256298,8.13801567 21.8141437,8.10108985 21.8038063,8.06642303 L21.7905532,8.04192166 L21.787991,8.03757745 C21.7803042,8.0129892 21.7727057,7.98822718 21.765019,7.96363893 L21.763782,7.96146682 L21.7626334,7.95912095 L21.7613081,7.95686196 L21.7600711,7.95468985 L21.7589225,7.95234397 L21.7575972,7.95008498 L21.7564486,7.94782599 C21.4830816,7.04666229 20.9398816,6.24732695 20.1978853,5.65408112 L20.1967367,5.65190901 C20.1755317,5.63453216 20.1520296,5.61811103 20.1307363,5.60082106 L20.1014911,5.57909999 L20.0780774,5.56276574 L20.0674749,5.5541642 L20.0475069,5.53887257 L20.0368161,5.53018414 L20.0167597,5.51506628 L20.006334,5.50629096 L19.9839804,5.49238948 L19.9733779,5.48361417 L19.9499642,5.46745369 L19.9392733,5.45867838 L19.9158595,5.44251791 L19.9052571,5.43374259 L19.8817549,5.41749523 L19.8688552,5.41002319 L19.8452647,5.39368894 L19.8323651,5.38613001 L19.8089513,5.36996954 L19.7960516,5.3624106 L19.7703406,5.34729274 L19.7574409,5.33973381 L19.7317299,5.32470283 L19.7188303,5.3171439 L19.6931193,5.30211292 L19.6802196,5.29455399 L19.6545086,5.27960989 L19.6416089,5.27205096 L19.614661,5.25458722 L19.6017613,5.24711517 L19.574725,5.22965143 L19.5618253,5.2220925 L19.5325802,5.20601891 L19.5196805,5.19845998 L19.4906121,5.18238639 L19.4765638,5.17265535 L19.4473186,5.15666864 L19.433182,5.14685072 L19.4041136,5.13086401 L19.3900653,5.12104609 L19.3595832,5.1027135 L19.3433261,5.09402508 L19.3120488,5.07499742 L19.2957033,5.06630899 L19.2630123,5.04893214 L19.2466669,5.04033059 L19.2139759,5.02286686 L19.1906505,5.01226697 L19.1894135,5.01000798 L19.1403771,4.9839427 C17.7078065,4.25176891 15.8878038,4.0313435 14.0566686,4.49339408 L13.5803526,4.61364192 L12.3755584,0 L9.58357416,0.703849516 L10.7843924,5.29907197 L8.55054,5.86573121 L7.34892655,1.28501844 L4.55694233,1.98886795 L5.75776061,6.5840904 L0,8.0411397 L0.766116934,10.9690529 L3.08611445,10.3831922 C3.85399846,10.1884846 4.63690264,10.6428025 4.83481545,11.3978268 L4.83552228,11.400694 L8.05575799,23.7222744 C8.18705193,24.2262032 7.87869672,24.7395155 7.36659733,24.8696682 L5.33375009,25.3839362 L5.45320461,28.8662579 L11.204162,27.4130316 L12.4204422,32 L15.2110127,31.2938915 L14.0093993,26.6963232 L16.2428099,26.1331393 L17.4448652,30.7306207 L20.2354357,30.0245122 L19.0293162,25.4090457 C19.5021864,25.2874946 19.9089679,25.1841892 20.1903752,25.1125966 C22.2539696,24.5906827 23.9227103,23.4009764 24.9325074,21.9175142 L24.966612,21.8679033 L24.9689092,21.8667738 L24.9854314,21.8435757 L25.0073432,21.8089089 L25.018299,21.7914452 L25.0402108,21.7566914 L25.0511667,21.7393146 L25.0707813,21.705951 L25.0817372,21.6885742 L25.1013517,21.6552106 L25.1101871,21.6392239 L25.1298017,21.6058603 L25.1386371,21.5896999 L25.1582517,21.5563363 L25.1670871,21.5402627 L25.1847578,21.5082024 L25.1935932,21.4920419 L25.211264,21.4598948 L25.2200994,21.4438212 L25.2387421,21.4140199 L25.2475775,21.3978594 L25.2662202,21.3679712 L25.2750556,21.3518976 L25.291401,21.3232258 L25.3002364,21.3070653 L25.3165819,21.2783935 L25.3254173,21.2624068 L25.3417628,21.233735 L25.3482126,21.2188778 L25.3645581,21.190206 L25.3710079,21.1753488 L25.3850562,21.1477196 L25.392743,21.1351213 L25.4067913,21.1074921 L25.4144781,21.0948939 L25.4285263,21.0672647 L25.4362131,21.0545796 L25.4502614,21.0271242 L25.4579482,21.0143522 L25.4719965,20.9868968 L25.4796833,20.9741248 L25.4937315,20.9466693 L25.5014183,20.9338974 L25.5132578,20.907919 L25.5209446,20.8952339 L25.5326956,20.8690817 L25.5380852,20.857613 L25.5509849,20.8279854 L25.5686557,20.7901908 C25.5815553,20.7603895 25.5951619,20.732934 25.6062061,20.7043491 L25.6072663,20.7009606 C26.0112205,19.7208191 26.106201,18.6439754 25.8799266,17.6100525 L25.878778,17.6077935 L25.877541,17.6056214 L25.8763041,17.6032755 L25.8750671,17.6011034 L25.8738302,17.5988444 L25.8725932,17.5964986 L25.8713562,17.5943265 L25.8701193,17.5919806 C25.8634927,17.563917 25.8569545,17.5360271 25.850328,17.5079635 L25.850328,17.5022291 L25.849091,17.500057 L25.8478541,17.497798 L25.8466171,17.4954522 L25.8453802,17.49328 L25.8441432,17.4909342 L25.8429063,17.4887621 L25.8416693,17.4865031 L25.8404324,17.4841572 L25.8391954,17.4819851 L25.8379585,17.4797261 L25.8367215,17.4773802 L25.8354845,17.4752081 L25.8342476,17.4728622 L25.8293881,17.4642607 C25.8189624,17.4239464 25.8108338,17.3823288 25.7981108,17.343144 C25.791661,17.3057838 25.78742,17.2679891 25.7853879,17.2301076 L25.7853879,17.2301076 Z" id="Fill-1" fill="#FFFFFF" mask="url(#mask-5)"></path>
            </g>
            <circle id="Oval" stroke="#FFFFFF" stroke-width="2" fill-rule="nonzero" cx="23" cy="23" r="23"></circle>
        </g>
    </g>
</svg>