<?xml version="1.0" encoding="UTF-8"?>
<svg width="64px" height="64px" viewBox="0 0 64 64" version="1.1" xmlns="http://www.w3.org/2000/svg" xmlns:xlink="http://www.w3.org/1999/xlink">
    <!-- Generator: Sketch 58 (84663) - https://sketch.com -->
    <title>CRPT</title>
    <desc>Created with Sketch.</desc>
    <defs>
        <linearGradient x1="100%" y1="0%" x2="0%" y2="100%" id="linearGradient-1">
            <stop stop-color="#767FFF" offset="0%"></stop>
            <stop stop-color="#5560FF" offset="100%"></stop>
        </linearGradient>
        <polygon id="path-2" points="1.72535211e-05 5.15625e-05 48.8781901 5.15625e-05 48.8781901 55 1.72535211e-05 55"></polygon>
    </defs>
    <g id="CRPT" stroke="none" stroke-width="1" fill="none" fill-rule="evenodd">
        <g id="CYVA" fill="url(#linearGradient-1)" fill-rule="nonzero">
            <circle id="Oval" cx="32" cy="32" r="32"></circle>
        </g>
        <g id="Group-14" transform="translate(6.000000, 5.000000)">
            <path d="M41.6769174,10.3778009 C37.4759848,6.95553247 32.4673456,5 27.2969935,5 C21.6420174,5 16.1485826,7.11846465 11.94765,11.1926349 C7.74671739,15.2668052 5.3232543,20.4815007 5,26.3480981 L5,27 L7.58517608,27 L7.58517608,26.5110303 C8.23151301,16.0814661 16.9562891,7.9332987 27.2969935,7.9332987 C31.98255,7.9332987 36.3448522,9.56296681 39.8994479,12.4962655 L40.0611609,12.6591977 L42,10.7036652 L41.6769174,10.3778009 Z" id="Fill-1" fill="#FFFFFF"></path>
            <path d="M27.1147942,12.5803327 C31.7970626,12.5803327 36.1563036,14.8360036 38.9010935,18.5420421 L39.0625214,18.8642319 L41,16.9307508 L40.8387436,16.7696559 C37.6094983,12.4192378 32.442946,10.002472 27.1147942,10.002472 C17.5888294,9.84137713 10,17.5753016 10,26.9206886 C10,36.4269992 17.7500858,44 27.1147942,44 C32.442946,44 37.6094983,41.4219681 40.8387436,37.2328161 L41,37.0717212 L39.0625214,35.1378977 L38.9010935,35.4600875 C36.1563036,39.1659548 31.7970626,41.4217969 27.1147942,41.4217969 C19.041681,41.4217969 12.5833619,34.9768028 12.5833619,26.9205174 C12.5833619,19.0253268 19.041681,12.5803327 27.1147942,12.5803327" id="Fill-3" fill="#FFFFFF"></path>
            <path d="M44.8182082,13.7600408 C44.2726395,13.2799524 43.9090558,12.6400612 43.3636803,12.1599728 L43.1818884,12 L41,13.9200136 L41.1815986,14.0799864 C41.7271674,14.5600748 42.2725429,15.0399932 42.6361265,15.6800544 L42.8179184,16 L45,14.0799864 L44.8182082,13.7600408 Z" id="Fill-5" fill="#FFFFFF"></path>
            <path d="M5,28.6519019 C5.32449939,34.3555671 7.92101179,39.733368 11.9781163,43.8073651 C16.1974705,47.71843 21.7149947,50 27.3947686,50 C32.7500431,50 37.7808182,48.0444675 41.8377503,44.6221991 L42,44.459267 L40.2149085,42.5037345 L40.0526588,42.6666667 C36.4824758,45.6001385 32.1008719,47.2296335 27.3947686,47.2296335 C17.0088914,47.2296335 8.24568361,39.0814661 7.5965124,28.6519019 L7.5965124,28 L5,28 L5,28.6519019 Z" id="Fill-7" fill="#FFFFFF"></path>
            <path d="M43.3634871,42.8401904 C43.9090558,42.3600816 44.4544313,41.7201632 44.818015,41.2400544 L45,41.0799048 L42.8181116,39 L42.6361265,39.3199592 C42.2727361,39.800068 41.7269742,40.2798368 41.1815986,40.9200952 L41,41.0799048 L43.1818884,43 L43.3634871,42.8401904 Z" id="Fill-9" fill="#FFFFFF"></path>
            <g id="Group-13">
                <mask id="mask-3" fill="white">
                    <use xlink:href="#path-2"></use>
                </mask>
                <g id="Clip-12"></g>
                <path d="M46.7672391,43.1912078 C42.058063,48.8527703 35.0753905,52.2500516 27.6056511,52.2500516 C13.8028342,52.2500516 2.76058063,41.0883172 2.76058063,27.3383172 C2.76058063,13.5883172 13.8028342,2.58831719 27.6056511,2.58831719 C35.0753905,2.58831719 42.058063,5.82369219 46.7672391,11.6471609 L46.9295947,11.9706297 L48.8782074,10.0294734 L48.7158518,9.86773906 C43.5194363,3.55889531 35.7249856,5.15625e-05 27.6056511,5.15625e-05 C12.3412884,5.15625e-05 1.72535211e-05,12.2940984 1.72535211e-05,27.5000516 C1.72535211e-05,42.7060047 12.3412884,55.0000516 27.6056511,55.0000516 C35.7249856,55.0000516 43.5194363,51.4412078 48.7158518,45.1323641 L48.8782074,44.9706297 L46.9295947,43.0294734 L46.7672391,43.1912078 Z" id="Fill-11" fill="#FFFFFF" mask="url(#mask-3)"></path>
            </g>
        </g>
    </g>
</svg>