<?xml version="1.0" encoding="UTF-8"?>
<svg width="64px" height="64px" viewBox="0 0 64 64" version="1.1" xmlns="http://www.w3.org/2000/svg" xmlns:xlink="http://www.w3.org/1999/xlink">
    <!-- Generator: Sketch 53 (72520) - https://sketchapp.com -->
    <title>Coin / Cyva</title>
    <desc>Created with Sketch.</desc>
    <defs>
        <linearGradient x1="100%" y1="0%" x2="0%" y2="100%" id="linearGradient-1">
            <stop stop-color="#767FFF" offset="0%"></stop>
            <stop stop-color="#5560FF" offset="100%"></stop>
        </linearGradient>
    </defs>
    <g id="Coin-/-Cyva" stroke="none" stroke-width="1" fill="none" fill-rule="evenodd">
        <circle id="Oval" fill="url(#linearGradient-1)" cx="32" cy="32" r="32"></circle>
        <path d="M18.3486702,30.21635 L21.1372744,30.21635 C21.935216,24.8962 26.4876945,20.81355 32.0005469,20.81355 C38.0756227,20.81355 43.0005469,25.7663 43.0005469,31.8757 C43.0005469,37.9851 38.0756227,42.93785 32.0005469,42.93785 C26.4876945,42.93785 21.935216,38.8552 21.1372744,33.53505 L18.3487006,33.53505 C19.0321693,39.2802755 23.2198602,43.9414964 28.7004922,45.29955 L28.7004922,48.13645 C21.6944073,46.70593 16.3002615,40.8125343 15.5817457,33.53505 L12.8253368,33.53505 C13.662656,43.44935 21.9248247,51.2346 32,51.2346 C42.6313827,51.2346 51.2501367,42.56715 51.2501367,31.8757 C51.2501367,22.31615 44.3579774,14.38075 35.3000547,12.8061 L35.3000547,10 C45.8844031,11.60105 54,20.78495 54,31.8757 C54,44.0945 44.1501516,54 32,54 C19.8498484,54 10,44.0945 10,31.8757 C10,20.78495 18.1155969,11.60105 28.6999453,10 L28.6999453,12.8061 C20.1714314,14.2889 13.5658529,21.4103 12.8220554,30.21635 L15.5817449,30.21635 C16.40959,21.8313701 23.4442701,15.28275 32,15.28275 C41.1126137,15.28275 48.4997265,22.7116 48.4997265,31.8757 C48.4997265,39.9035 42.8310048,46.59865 35.3006016,48.13645 L35.3006016,45.29955 C41.3002038,43.8129 45.7504102,38.3679 45.7504102,31.8757 C45.7504102,24.23895 39.5943917,18.04815 32.0005469,18.04815 C24.9651114,18.04815 19.1638174,23.3619514 18.3486702,30.21635 Z M32,28.557 C30.1771491,28.557 28.6999453,30.0431 28.6999453,31.8757 C28.6999453,33.70885 30.177696,35.1944 32,35.1944 C33.8228509,35.1944 35.3000547,33.7083 35.3000547,31.8757 C35.3000547,30.04255 33.822304,28.557 32,28.557 Z" id="Combined-Shape" fill="#FFFFFF" fill-rule="nonzero"></path>
    </g>
</svg>