<?xml version="1.0" encoding="UTF-8"?>
<svg width="64px" height="64px" viewBox="0 0 64 64" version="1.1" xmlns="http://www.w3.org/2000/svg" xmlns:xlink="http://www.w3.org/1999/xlink">
    <!-- Generator: Sketch 52.6 (67491) - http://www.bohemiancoding.com/sketch -->
    <title>Coin / DASH Dash</title>
    <desc>Created with Sketch.</desc>
    <defs>
        <linearGradient x1="100%" y1="0%" x2="0%" y2="100%" id="linearGradient-1">
            <stop stop-color="#767FFF" offset="0%"></stop>
            <stop stop-color="#5560FF" offset="100%"></stop>
        </linearGradient>
    </defs>
    <g id="Coin-/-DASH-Dash" stroke="none" stroke-width="1" fill="none" fill-rule="evenodd">
        <circle id="Oval" fill="url(#linearGradient-1)" cx="32" cy="32" r="32"></circle>
        <path d="M12.7,35.1 C12.7,35 12.7,35 12.7,34.9 C13,34.1 13.3,33.3 13.6,32.4 C13.9,31.6 14.1,30.8 14.4,30 C14.5,29.8 14.6,29.7 14.8,29.7 C19.2,29.7 23.6,29.7 28,29.7 C28.1,29.7 28.2,29.7 28.3,29.7 C28.3,29.8 28.2,30 28.2,30.1 C27.7,31.6 27.2,33.1 26.7,34.6 C26.6,34.9 26.5,35 26.1,35 C21.8,35 17.5,35 13.1,35 C13,35.1 12.8,35.1 12.7,35.1 Z M50.7,25.9 C49.4,29.9 48.1,33.9 46.8,38 C46,40.5 42.6,43.8 38.9,43.7 C30.6,43.6 22.3,43.7 14.1,43.7 C13.9,43.7 13.8,43.7 13.6,43.7 C13.7,43.4 13.8,43.1 13.9,42.9 C14.4,41.5 14.9,40 15.3,38.6 C15.4,38.2 15.6,38.2 15.9,38.2 C23.4,38.2 30.8,38.2 38.3,38.2 C38.6,38.2 38.8,38.1 38.9,37.8 C40,34.3 41.2,30.8 42.3,27.3 C42.3,27.2 42.4,27.1 42.4,26.9 C34.6,26.9 26.9,26.9 19.1,26.9 C19.1,26.7 19.2,26.6 19.2,26.5 C19.7,24.9 20.3,23.3 20.8,21.7 C20.9,21.4 21,21.3 21.3,21.3 C29.7,21.3 38.1,21.3 46.5,21.3 C47,21.3 47.6,21.4 48.1,21.5 C49.5,22 50.3,23 50.6,24.4 C50.6,24.5 50.7,24.6 50.7,24.7 C50.7,25.1 50.7,25.5 50.7,25.9 Z" id="Shape" fill="#FFFFFF" fill-rule="nonzero"></path>
    </g>
</svg>