<?xml version="1.0" encoding="UTF-8"?>
<svg width="64px" height="64px" viewBox="0 0 64 64" version="1.1" xmlns="http://www.w3.org/2000/svg" xmlns:xlink="http://www.w3.org/1999/xlink">
    <!-- Generator: Sketch 52.6 (67491) - http://www.bohemiancoding.com/sketch -->
    <title>Coin / DOGE Dogecoin </title>
    <desc>Created with Sketch.</desc>
    <defs>
        <linearGradient x1="100%" y1="0%" x2="0%" y2="100%" id="linearGradient-1">
            <stop stop-color="#767FFF" offset="0%"></stop>
            <stop stop-color="#5560FF" offset="100%"></stop>
        </linearGradient>
    </defs>
    <g id="Coin-/-DOGE-Dogecoin-" stroke="none" stroke-width="1" fill="none" fill-rule="evenodd">
        <circle id="Oval" fill="url(#linearGradient-1)" cx="32" cy="32" r="32"></circle>
        <path d="M63.6274315,32.306541 C63.6273935,49.9798341 49.3005297,64.3066114 31.6277132,64.3066114 C22.7909881,64.3066114 14.7908987,60.7248885 9,54.9339919 C14.794624,60.7230152 22.794624,64.3066114 31.6274315,64.3066114 C49.2930467,64.3066114 63.6274315,49.9722265 63.6274315,32.3066114 Z M32.2318168,21.3066114 L27.6274315,21.3066114 L27.6274315,30.4022983 L34.8697813,30.4022983 L34.8697813,34.210833 L27.6274315,34.210833 L27.6274315,43.3066114 L32.455003,43.3065199 C33.6957141,43.3065199 42.6410284,43.4469346 42.627416,32.7236882 C42.6138036,22.0010102 33.9526476,21.3066114 32.2318168,21.3066114 Z M32.8850895,49.5896844 L21.2957648,49.5896844 L21.2957648,34.1829499 L17.2107003,34.1829499 L17.2107003,30.4088661 L21.2954831,30.4088661 L21.2954831,15.0012865 L31.2418249,15.0012865 C33.5948986,15.0012865 49.1797166,14.5125907 49.1797166,32.5844779 C49.1797166,50.955216 32.8850895,49.5896844 32.8850895,49.5896844 Z" id="Combined-Shape" fill="#FFFFFF" fill-rule="nonzero"></path>
    </g>
</svg>