<?xml version="1.0" encoding="UTF-8"?>
<svg width="64px" height="64px" viewBox="0 0 64 64" version="1.1" xmlns="http://www.w3.org/2000/svg" xmlns:xlink="http://www.w3.org/1999/xlink">
    <!-- Generator: Sketch 53 (72520) - https://sketchapp.com -->
    <title>Dosancoin Copy</title>
    <desc>Created with Sketch.</desc>
    <defs>
        <linearGradient x1="100%" y1="0%" x2="0%" y2="100%" id="linearGradient-1">
            <stop stop-color="#767FFF" offset="0%"></stop>
            <stop stop-color="#5560FF" offset="100%"></stop>
        </linearGradient>
        <polygon id="path-2" points="0 0 53 0 53 53 0 53"></polygon>
    </defs>
    <g id="Dosancoin-Copy" stroke="none" stroke-width="1" fill="none" fill-rule="evenodd">
        <circle id="Oval" fill="url(#linearGradient-1)" cx="32" cy="32" r="32"></circle>
        <g id="Group-3" transform="translate(6.000000, 6.000000)">
            <mask id="mask-3" fill="white">
                <use xlink:href="#path-2"></use>
            </mask>
            <g id="Clip-2"></g>
            <path d="M8.19030141,44.5911321 L8.85944079,44.181781 L8.79620108,45.1856493 C8.62848937,45.0266013 8.46223217,44.865656 8.29831484,44.7017385 C8.26176229,44.6651859 8.22653777,44.6278112 8.19030141,44.5911321 L8.19030141,44.5911321 Z M0.758876529,26.5 C0.758876529,23.024784 1.4394623,19.653724 2.78159868,16.480478 C4.07807599,13.4153088 5.9341615,10.6624177 8.29831484,8.2982615 C8.54052293,8.05605312 8.78785344,7.82048492 9.03815622,7.5890273 L9.02209333,20.8496516 L9.02209333,30.3534531 L6.84380149,31.3289901 C6.59659746,31.4636908 5.8499262,31.8711448 5.54605939,32.3637195 C5.44848052,32.5219454 5.3478029,32.7211507 5.19052574,33.4113498 C5.05146161,34.021424 4.8837499,34.9556653 4.87413746,35.941953 C4.86439855,36.9382326 4.98708359,37.1627339 5.03944607,37.2585421 C5.20020141,37.5528601 5.42666282,37.7447296 5.87787815,38.1270141 C6.06114683,38.282331 6.20286703,38.3852854 6.31682498,38.4680663 C6.50610144,38.6055496 6.63112635,38.6964252 6.77132879,38.8941127 C6.86985625,39.0330505 7.05091155,39.3291392 7.15677482,39.7505059 L7.19908219,39.9196723 C7.20711363,39.9618533 7.38165523,40.9189874 6.91247982,41.560808 C6.75368491,41.7780367 6.33301435,42.1087808 6.14095535,42.2544853 C4.77902494,40.4992017 3.65323161,38.5803169 2.78159868,36.5194588 C1.4394623,33.3462128 0.758876529,29.9751527 0.758876529,26.5 L0.758876529,26.5 Z M15.2138302,37.3225408 C15.3043894,37.2087724 15.3834391,37.1708286 15.5031518,37.1132171 C15.6040824,37.0647122 15.7296132,37.0043182 15.9181941,36.8722735 C16.2508349,36.6392349 16.4642057,36.4019592 16.5787961,36.2744046 C16.7797719,36.0509152 16.8598334,35.9126098 16.9372388,35.7788576 C17.0152766,35.6440936 17.0890141,35.516792 17.2774052,35.3220767 C17.426145,35.1683407 17.6751197,34.911018 18.0809922,34.7439385 C18.2167046,34.6880346 18.4300121,34.6508496 18.8171656,34.5834359 C19.1017443,34.5337927 19.2657249,34.5111529 19.4393179,34.487185 C19.6029823,34.4645452 19.7722118,34.4411464 20.0541976,34.3930842 C20.247142,34.3601995 20.3535112,34.3395201 20.4239602,34.3257971 C20.5188198,34.3073943 20.5474041,34.3017659 20.6287304,34.2975289 C21.0380178,34.2759641 21.4060729,34.3411011 21.7223347,34.4908529 C21.9779496,34.6118306 22.1171402,34.7525391 22.3697196,35.0079014 L22.4607848,35.0997888 C22.4628717,35.1018757 22.6844004,35.3237209 23.6016924,36.1772683 C24.0935709,36.6349979 24.4588435,36.9224227 25.1221016,37.4442142 C25.7100412,37.9068764 25.9610396,38.0764855 26.2896331,38.2334467 C26.6729922,38.4165259 26.926204,38.5375036 27.2917928,38.5475587 C27.3585107,38.5494559 27.4237108,38.5472425 27.4992823,38.5448394 C27.6305047,38.5406023 27.7937896,38.5354167 28.0535784,38.5475587 C28.4021556,38.5638746 28.5286983,38.5925854 28.6425298,38.6810579 C28.7086153,38.7325351 28.7340376,38.7756014 28.7691989,38.8352997 C28.8015777,38.8902551 28.8419246,38.9586806 28.9326736,39.0662514 C29.002174,39.1485264 29.0473272,39.1896955 29.0995632,39.2373151 C29.1397204,39.2739309 29.185253,39.3154794 29.2486192,39.3820077 C29.3734544,39.5131038 29.441943,39.6090385 29.5212456,39.7200876 C29.5458458,39.7545533 29.5713947,39.790347 29.599979,39.8290497 C29.8987234,40.2332152 30.1968354,40.503755 30.3570216,40.64908 C30.6393869,40.9053277 30.7729492,41.0213094 30.9795533,41.0863199 C31.070239,41.1148411 31.3461539,41.2016693 31.6240292,41.0872053 C31.7825079,41.0220051 31.9018412,40.9076675 32.0643673,40.6653959 C32.35976,40.2251205 32.4935752,39.8206388 32.5912806,39.525309 L32.5997547,39.4996337 C32.6017151,39.4936891 32.7984538,38.9008162 33.012457,38.3250179 C33.1808644,37.8720313 33.5312756,36.9293791 34.2324775,35.9807823 C34.3824821,35.7777826 34.5691657,35.5252028 34.8703765,35.2367029 C35.0459299,35.0684851 35.1731682,34.9710958 35.3204535,34.8584658 C35.427961,34.7761908 35.5498239,34.6830386 35.7069114,34.5483379 C35.9036501,34.3795509 35.9916798,34.2867149 36.1134162,34.1582116 C36.1986001,34.0683479 36.3045899,33.9564767 36.4771711,33.7884486 C36.9305998,33.3470349 37.2808845,33.0638471 37.9168863,32.5498341 C38.3710739,32.1826639 38.6211237,31.9805496 38.9140501,31.7967748 C39.123753,31.6651728 39.4746069,31.4449718 39.9768567,31.2547466 C40.3540815,31.1118879 40.7440808,31.0117161 41.1360405,30.9570137 C41.7501614,30.8711973 42.224396,30.9145798 42.5705701,30.9461996 C42.8586903,30.9725074 43.0240621,31.0038743 43.1840586,31.0341029 C43.3667581,31.0687584 43.5394025,31.1014533 43.8809602,31.1259271 C44.4172329,31.1643137 44.6651958,31.1777837 44.9263759,31.095572 C45.2787475,30.9846494 45.492561,30.7873413 45.9186702,30.394306 C45.9561081,30.3597771 45.9993008,30.3189874 46.0486278,30.2725062 C46.2309478,30.1006205 46.50642,29.8408947 46.8715029,29.5367745 C46.9730658,29.4520965 47.1843497,29.2762266 47.4440752,29.296906 C47.5185716,29.302977 47.7006387,29.3320673 47.7856961,29.4704992 C47.8126362,29.5143876 47.822059,29.5563156 47.83262,29.7497029 C47.8416,29.9140631 47.8460901,29.9964645 47.8432443,30.0802573 C47.8305331,30.4490717 47.6904571,31.0049494 47.6625052,31.1126468 C47.5439307,31.5700601 47.5056075,31.7357484 47.4825882,31.8347186 C47.4616559,31.9250883 47.4520434,31.9663839 47.4085345,32.1177799 C47.3439668,32.3427871 47.2043967,32.804311 46.9955159,33.3675878 C46.2535877,35.3683682 45.1854057,37.1921404 45.1747182,37.2103534 C44.7521504,37.9284412 44.4029408,38.437142 44.1479583,38.8086758 C43.5922077,39.618398 43.0175484,40.4556928 42.1258685,41.4235145 C41.5480473,42.0506634 40.8669556,42.6878043 40.1561412,43.2661954 C39.6316943,43.6929374 38.8391743,44.3378568 37.6776505,44.9820172 C36.6721391,45.5396657 35.9010573,45.8155176 34.5012463,46.3162502 C33.7481878,46.585715 32.9693908,46.864223 31.8977939,47.1417192 C31.0579705,47.3591376 29.6524047,47.7230193 27.7686202,47.8403923 C27.498144,47.8572773 27.1125082,47.8737197 26.6377045,47.8737197 C25.9337833,47.8737197 25.033566,47.8376098 24.0202128,47.7134068 C22.5865054,47.5376002 21.1365453,47.2080577 19.8272935,46.7604465 C19.286594,46.5755966 18.381697,46.2662276 17.2852469,45.6799947 C16.3862312,45.1993724 15.7173447,44.7006634 15.1610882,44.2710123 L15.1484403,44.2613366 L15.1653885,43.3296249 C15.2248971,43.0709109 15.3226657,42.9173647 15.4559118,42.8731601 C15.5443209,42.8438168 15.6128095,42.8718953 15.6996376,42.9073728 C15.7672409,42.9350718 15.8514762,42.9694743 15.9728964,42.9881933 C16.0641513,43.0022957 16.3062962,43.0396704 16.5245364,42.9279257 C16.7120422,42.8319277 16.8453515,42.6465087 16.9207332,42.376791 C17.0369045,41.9607997 16.8528137,41.5929971 16.7644046,41.4162419 C16.674794,41.2372733 16.5067661,41.0559016 16.1353592,40.6626134 L15.8801238,40.392453 C15.407154,39.892163 15.3981107,39.8825506 15.3695263,39.831769 C15.0954454,39.3445697 15.0736277,38.9172585 15.0483951,38.4224072 C15.0216447,37.8995406 15.0055186,37.5840373 15.2138302,37.3225408 L15.2138302,37.3225408 Z M47.2966002,20.5026549 C47.5214806,20.4790664 47.7514202,21.1507362 47.7952453,21.2856267 C47.8526037,21.4620657 47.8755598,21.597968 47.9021204,21.7553086 C48.03973,22.5707224 48.1088511,22.9801367 48.1349691,23.2374594 C48.1665889,23.5492316 48.1885331,23.8863629 48.1985882,24.212364 C48.2160424,24.7832295 48.2004222,25.4113903 48.1985882,25.4811438 L48.1980823,25.4994833 L48.1818929,25.5099179 C47.9673206,25.6257732 47.9477795,25.6330458 47.9206497,25.6396859 C47.8920021,25.6466423 47.8628486,25.6498676 47.8337583,25.6498676 C47.7113262,25.6498676 47.5895898,25.5935841 47.5119314,25.5271824 C47.3562985,25.3942523 47.3458639,25.1899878 47.3326468,24.9313371 L47.3316982,24.9127446 C47.3237933,24.7595778 47.3120939,24.6038815 47.3008373,24.4533076 C47.2886952,24.2921726 47.2761738,24.1254725 47.2682688,23.9611123 C47.256443,23.7146036 47.2337399,23.6137362 47.1961755,23.4465934 C47.1622791,23.295893 47.1159244,23.0895416 47.0570482,22.6742459 C46.9836269,22.1560591 46.9551058,21.7696008 46.9722437,21.5257481 C46.9887493,21.2919506 47.0608426,20.5273184 47.2966634,20.5026549 L47.2966002,20.5026549 Z M17.3794108,6.62898411 L18.0633483,6.29495156 L18.5881747,6.07222103 L19.1936316,5.88085744 L19.6771625,5.78062237 L19.6891148,5.7978236 C19.7288926,5.85486588 19.7667099,5.91437452 19.8014917,5.97451556 C19.9107067,6.16322308 19.9681916,6.32069015 19.9927286,6.38791404 C20.0638101,6.58262934 20.1132003,6.7005083 20.1609463,6.81459288 C20.2257037,6.96934064 20.2869198,7.11555102 20.3908858,7.42333906 C20.523879,7.81732293 20.7246018,8.4119034 20.8677765,9.15604596 C20.9789519,9.73418409 20.9900821,9.92864643 21.0069039,10.2229012 C21.0103188,10.2833584 21.0139867,10.347863 21.0189194,10.420652 L21.0315041,10.6032885 C21.063124,11.0577928 21.1370512,12.1219919 21.1537465,12.4829014 C21.156782,12.5496194 21.1620941,12.6138078 21.1670901,12.6745812 C21.1856193,12.8988295 21.2002277,13.0759641 21.0900008,13.1683574 C21.0848152,13.1726577 21.0762778,13.1794244 21.0641358,13.1891001 C21.0260023,13.2194552 20.9550473,13.2759283 20.8412791,13.3728117 C20.7455341,13.454391 20.6164619,13.5643017 20.5580284,13.624506 C20.3811469,13.8066998 20.3412427,14.0571294 20.313101,14.3193848 C20.2224785,15.1637624 20.2338616,15.6897277 20.2339881,15.6949134 C20.2406915,15.9729787 20.2527703,16.1650379 20.262446,16.3194063 C20.2781294,16.5706579 20.288564,16.7365991 20.265608,17.0460314 C20.247142,17.294627 20.2325968,17.4909233 20.1696733,17.7489416 C20.1098486,17.9939326 19.9533935,18.4818908 19.5776864,18.997042 C19.4310968,19.1980181 19.3425612,19.2777635 19.2305004,19.3786309 C19.1121789,19.4851267 18.9649568,19.6176773 18.6883464,19.9501289 C18.4237514,20.268225 18.2594546,20.5055007 18.1212126,20.7692106 C18.0180687,20.9659496 17.9311141,21.1725539 17.8695818,21.3666368 C17.8009667,21.5834228 17.7520192,21.8116552 17.7281778,22.0266705 C17.6980757,22.2977794 17.7160358,22.4589144 17.7410155,22.6818979 C17.7526516,22.7861803 17.7658687,22.9043122 17.7758606,23.0517874 C17.7893306,23.2501074 17.811591,23.7774007 17.7281146,24.3903207 C17.681001,24.7358629 17.6323064,25.0931677 17.4399945,25.509412 C17.2496429,25.9214192 17.0355765,26.1497781 16.924907,26.249191 C16.8304269,26.334122 16.654494,26.4921583 16.3749113,26.5885989 C16.1567343,26.6639175 15.9758054,26.6664471 15.7467512,26.6696091 C15.7313207,26.6698621 15.7159535,26.6699253 15.7005862,26.6699253 C15.5119422,26.6699253 15.3230451,26.6537359 15.138069,26.6216101 L15.111698,26.6169936 L15.1117613,26.5903064 L15.1276344,8.11511908 L15.7273999,7.67749976 L16.5844877,7.09012863 L17.3794108,6.62898411 Z M26.181177,4.51557369 C26.7541288,4.52196091 27.2064824,4.55288517 27.5365305,4.57906644 C29.148068,4.70719024 29.9569672,4.77144187 30.7117331,4.91790521 C31.4745937,5.06594955 32.004922,5.23568514 33.0614046,5.57395475 C34.561324,6.05426093 35.57278,6.49491576 36.0423348,6.71492698 C36.4394802,6.90104167 36.8348549,7.10138531 37.2175816,7.31051928 C37.7850315,7.63240979 38.3407821,7.98452892 38.8699088,8.3573907 C39.3322543,8.68332856 40.0569814,9.22934087 40.8837773,9.98012362 C41.2723854,10.3329384 41.5699914,10.6284579 41.7127867,10.7732138 C42.3532153,11.4223069 42.9483642,12.1150356 43.4815382,12.8320483 C43.6171874,13.014495 43.7525836,13.203329 43.8731185,13.3782503 C44.3061208,14.0064743 45.4807352,16.229416 45.492561,16.2518029 L45.5002762,16.2663481 L45.4927507,16.2810197 C45.2605977,16.7343225 45.0204133,17.188068 44.7787111,17.6297346 C44.4131856,18.297863 44.2790542,18.5093368 44.0612566,18.7612209 C43.7916657,19.072993 43.5588803,19.342268 43.1608496,19.4994189 C42.9415975,19.5861207 42.7320844,19.6151477 42.5331322,19.6151477 C42.3170421,19.6151477 42.1134103,19.5808718 41.9229955,19.5488092 C41.6560607,19.5039089 41.0313156,19.3988044 40.5115484,18.9386717 C40.2285507,18.6881157 39.8924316,18.2568204 39.8890799,18.2524568 C39.8412075,18.1909245 39.8009238,18.1366015 39.7644977,18.0875907 C39.6498441,17.9330326 39.5740829,17.8309636 39.419778,17.7195351 C39.3411711,17.662809 39.1324168,17.5120454 38.8315223,17.4715719 C38.7031456,17.4542442 38.6307994,17.4663863 38.521205,17.4846626 C38.453412,17.4960457 38.3690502,17.5101482 38.2514876,17.5192547 C37.892792,17.5472067 37.6159918,17.4997769 37.4507464,17.4713822 C37.1082401,17.4125692 36.8295427,17.2993067 36.4907676,17.1356422 C35.9233177,16.8613712 35.3872979,16.6024043 34.7562921,16.1011025 C34.5321705,15.9230825 34.4309237,15.8139307 34.2092053,15.5747578 C34.0279603,15.3793468 33.7797444,15.1115896 33.3263157,14.6555042 C33.0075876,14.335005 32.7856162,14.1129069 32.622521,13.949685 C32.2920302,13.6189409 32.2031785,13.5300258 32.0409686,13.3543456 C31.6356653,12.9153351 31.4476536,12.6653482 30.9449612,11.9971566 C30.7690915,11.7634223 30.5546457,11.4784006 30.2787308,11.1159734 C29.6689735,10.314915 29.3836359,9.95628222 29.1753243,9.6944695 C28.9605623,9.42456209 28.8309841,9.26165641 28.518074,8.83181558 C28.157418,8.33639509 27.9581496,8.04251981 27.7274512,7.70222652 C27.5257165,7.40455684 27.2969785,7.06717258 26.9162122,6.53210075 C26.3321934,5.71156453 25.5131127,4.57603093 25.5049548,4.56464777 L25.4691611,4.51506777 L25.5302507,4.51437214 C25.6249837,4.5133603 25.9964538,4.51348678 26.181177,4.51557369 L26.181177,4.51557369 Z M48.2111097,27.7433574 C48.2142084,27.8417585 48.2176866,27.9532503 48.1440123,28.05709 C48.0589549,28.1769294 47.9224836,28.2160116 47.8486829,28.2285963 C47.723405,28.2498449 47.6262056,28.2106362 47.5323579,28.1725659 C47.5161052,28.1659257 47.4997262,28.1593487 47.4830309,28.1528983 C47.4683593,28.1473332 47.1185172,28.0156047 46.7688648,28.0596196 C46.44337,28.1006622 46.2068535,28.287599 46.1290687,28.3490681 C46.0575446,28.4056677 46.0206758,28.4459515 45.9537682,28.5191199 C45.9350492,28.5396096 45.9140537,28.5625024 45.8894534,28.5889366 C45.7333778,28.7566485 45.472261,29.037117 45.1873661,29.2483379 C44.8830566,29.4739142 44.6025885,29.5809159 44.3551948,29.6753329 C44.2424384,29.7183992 43.9784758,29.8191402 43.6517162,29.8778267 C43.378331,29.9268375 43.2213068,29.9176045 42.7012866,29.8870597 C42.6033283,29.8813049 42.4924059,29.8747279 42.3651043,29.8676451 C41.9396908,29.8440567 41.836863,29.8424757 41.7179091,29.8405785 C41.6040144,29.8388078 41.4749422,29.8367841 41.0331495,29.8148399 L40.9630167,29.8113617 C40.5728277,29.7916941 40.3948079,29.7827773 40.1317307,29.8353928 C39.9573788,29.8702379 39.8204648,29.9167192 39.3985927,30.1080828 C37.9724108,30.755089 37.1629425,31.4803861 37.154911,31.4876587 C36.8001995,31.7502935 36.538893,31.9618939 36.3659956,32.10197 C36.0506192,32.3573322 35.8880932,32.5015189 35.6631495,32.7010405 C35.4905683,32.8540808 35.2758063,33.0446222 34.9235611,33.3463393 C34.7292255,33.5127231 34.5871891,33.632436 34.47848,33.7240073 C34.2200193,33.9418051 34.1505189,34.0003651 34.01468,34.1521406 C33.6624348,34.5459348 33.4465344,34.9139271 33.2730679,35.2095098 C33.1955992,35.3415545 33.1715681,35.391008 32.7701225,36.2165402 L32.2622443,37.2605026 C32.0652526,37.6649842 32.0575374,37.6807942 32.021807,37.7597807 C31.9977759,37.8127124 31.8840076,38.0516323 31.6573565,38.5275749 L31.6488824,38.5452821 C31.6098635,38.6273041 31.5633191,38.7064803 31.5184189,38.7831269 C31.4632738,38.877038 31.4062949,38.9741743 31.3640507,39.0751682 L31.3457112,39.1196258 C31.2905662,39.254453 31.2385199,39.3817547 31.1086255,39.4333584 C31.0678359,39.4495478 31.0279317,39.454607 30.9935925,39.454607 C30.9500836,39.454607 30.9154915,39.446449 30.8993653,39.4426546 C30.7004764,39.3959837 30.5897437,39.2149282 30.5164489,39.0950888 L30.5069629,39.0795318 C30.4077398,38.9181439 30.2836003,38.7687715 30.1635081,38.6242686 C30.0988771,38.5465469 30.0320959,38.4661059 29.9696151,38.3844001 C29.7839433,38.1418122 29.6534166,37.9933885 29.3933749,37.6976792 C29.169696,37.443392 29.1032943,37.381923 28.9978105,37.3312679 C28.8737974,37.2716328 28.7773568,37.2651823 28.5194653,37.2479179 L28.3908357,37.2391275 C28.3885591,37.2389378 28.1585563,37.2226219 27.7478144,37.1835398 C27.7431979,37.1830971 27.2772477,37.1370585 26.6934819,36.9281143 C26.2549777,36.7711531 26.0101768,36.5369129 25.5224722,36.0702666 C25.3928308,35.9461901 25.2458617,35.8056081 25.0729643,35.6449158 C25.0649329,35.6374535 24.2603973,34.8915402 23.2909325,34.1321568 C22.5773356,33.5732436 22.2457698,33.320158 21.8641814,33.177489 C21.2169862,32.9354704 20.583514,32.9168779 20.0745608,32.9019533 C19.6088003,32.8882302 19.2135522,32.9242137 19.0237065,32.9414781 C18.7044725,32.9705052 18.5552268,32.9854298 18.3627883,33.0357054 C17.9547657,33.1422645 17.6758153,33.3141502 17.4516306,33.4522659 C17.2807569,33.5575601 17.0135691,33.7413982 16.7110936,34.0195268 C16.4998729,34.2137994 16.3862312,34.3483737 16.265886,34.4909161 C16.1541414,34.623277 16.0385392,34.7601912 15.8391444,34.9470647 C15.6439867,35.1298909 15.4347265,35.2989309 15.2169922,35.4495048 L15.1678549,35.4834646 L15.090323,28.2773542 L15.1158086,28.272042 C15.70476,28.1487877 16.2712614,27.9505942 16.7995027,27.6827105 C17.01749,27.5721673 17.5871533,27.2596996 18.1672511,26.746319 C18.4400672,26.5048695 18.556618,26.358912 18.6476832,26.2140297 C18.8703502,25.8600134 18.9428862,25.4989142 18.9817786,25.3048945 C19.0192798,25.118021 19.0305364,24.9781978 19.0447021,24.8012529 C19.0584884,24.628798 19.0599429,24.5002947 19.0551367,23.8840862 C19.051785,23.4468464 19.0500775,23.2496015 19.0446389,23.1561963 C19.0381252,23.0433765 19.0315483,22.9712832 19.0240227,22.8879331 C19.0149162,22.7874451 19.0046081,22.6735503 18.9917705,22.458535 C18.9893041,22.4166702 18.9770356,22.1933706 18.9811462,21.9063884 C18.9848774,21.648623 18.9978415,21.5889247 19.0144735,21.5376372 C19.0653183,21.3800437 19.1566364,21.2748127 19.3294705,21.1120335 C19.4911745,20.9596888 19.6626806,20.8145535 19.8391826,20.6806116 L19.8447477,20.6763746 C19.9591483,20.5895463 20.3601513,20.2715135 20.7166968,19.8254832 C20.9073646,19.5868795 21.0343499,19.3742674 21.1951685,19.1049924 C21.3736942,18.8059947 21.4632416,18.6560531 21.504221,18.5298265 C21.585484,18.2792705 21.5546862,18.1073215 21.5035886,17.8224895 C21.4795575,17.688105 21.4522379,17.5358235 21.4288392,17.338136 C21.3798917,16.9249905 21.387354,16.6218822 21.4021521,16.017879 C21.4153059,15.4874869 21.422452,15.195572 21.5088375,14.8371922 C21.5947802,14.4802036 21.7093706,14.2293313 21.8543792,13.9116779 C22.0042573,13.5833369 22.1129664,13.4036727 22.2003004,13.2593595 C22.290923,13.1096077 22.3563761,13.0014044 22.4186039,12.8051713 C22.4435836,12.7264378 22.5099853,12.5172406 22.4752667,11.5948251 C22.451868,10.9712175 22.4316313,10.432794 22.3013575,9.73342521 C22.2366,9.38579611 22.1066424,8.95209765 21.8477391,8.08811569 C21.7442789,7.74276322 21.6605495,7.47810472 21.5545598,7.14306033 C21.4448389,6.79644306 21.3083676,6.36508448 21.0969572,5.67728856 L20.9864774,5.31656882 L23.816328,4.69802048 L23.8284068,4.7158541 C23.9472975,4.89210338 24.069856,5.06923802 24.1926675,5.24257827 C24.3559525,5.47270786 24.4909692,5.65559732 24.5569915,5.74413302 C24.7193911,5.96199408 24.8857748,6.17757851 25.0517158,6.38494177 L25.0585457,6.39347914 C25.3587446,6.76912347 26.0326269,7.68015583 26.7460973,8.64462581 C27.290275,9.38029424 27.852982,10.1410689 28.278269,10.702322 C29.2415363,11.9736946 30.0731385,13.0712211 31.3421698,14.4425126 C31.3529838,14.4541488 32.4419716,15.6248437 34.3838734,17.2200041 C34.3896914,17.224747 34.9680818,17.698413 36.1128471,18.3267636 C36.3297593,18.4459073 36.5913187,18.5790271 36.9495717,18.6512469 C37.3370414,18.7292848 37.6995314,18.7141705 37.7031361,18.7141072 C37.7794032,18.7106291 37.8485874,18.7044948 37.9155583,18.6985503 C38.0839656,18.6835624 38.2430767,18.6693967 38.4704235,18.7037992 C38.6270683,18.7275773 38.7316035,18.7625489 38.8313325,18.8245239 C38.9714085,18.9116683 39.0479285,19.0217056 39.1155318,19.1187786 C39.2638922,19.3320864 39.327954,19.5417263 39.3529337,19.6477162 C39.3736131,19.7353033 39.3797473,19.7963297 39.3851227,19.85021 C39.3923952,19.9228093 39.3981501,19.9801678 39.4361571,20.0767982 C39.458291,20.1330183 39.507618,20.2423599 39.5898296,20.3432906 C39.7902363,20.5892934 40.0934707,20.6629677 40.3867765,20.734239 C40.5727012,20.7793922 40.7251721,20.7998186 40.9109704,20.8180949 C41.3761617,20.8637541 41.8548863,20.877983 42.3339904,20.8602759 C42.4158226,20.8571771 42.4914573,20.8547108 42.5618431,20.8523709 C42.9427991,20.8395965 43.1727387,20.8320077 43.3843387,20.7766729 C43.5222013,20.7406262 43.8091199,20.6656238 44.1259508,20.4634462 C44.5394753,20.1995466 44.761004,19.8767075 44.8674997,19.7216435 C44.9560985,19.5924446 45.0669577,19.3614297 45.2879173,18.9012338 C45.4666959,18.5287514 45.5561169,18.3425103 45.5820452,18.2508126 L45.5872308,18.2321568 C45.6118943,18.1436211 45.6531898,17.9952606 45.7542469,17.8206555 C45.8310199,17.6880417 45.9065281,17.6020988 45.9786846,17.5651668 C46.1066186,17.4997769 46.3013336,17.4873819 46.4255997,17.5900833 C46.4768871,17.6325172 46.4874481,17.6728009 46.5085069,17.7531787 C46.5242536,17.81313 46.5458184,17.895405 46.5938173,18.0265011 C46.6162674,18.0878436 46.6326465,18.127495 46.6463063,18.1603797 C46.6667327,18.2097067 46.6814675,18.2453107 46.7003762,18.314495 C46.705056,18.3318227 46.7457191,18.4861911 46.7542565,18.6382195 C46.7662088,18.850136 46.6609779,19.0241087 46.5276686,19.2444361 C46.5007284,19.2889569 46.4724603,19.3357543 46.4434333,19.3855241 C46.4286352,19.41082 46.4277498,19.4129069 46.4123193,19.4478152 C46.3788023,19.5233235 46.2897608,19.7239834 45.9160141,20.5039197 L45.8921727,20.5534997 C45.7842858,20.7786333 45.7517173,20.8466161 45.7055523,20.9667084 C45.6449054,21.1247447 45.5436587,21.3883913 45.4959127,21.7106613 C45.4097802,22.2915819 45.5363229,22.7720146 45.5903296,22.9771012 C45.6234672,23.1028219 45.6499014,23.1741564 45.6732368,23.23708 C45.7032125,23.3176475 45.7290143,23.3873377 45.7598752,23.5392397 C45.8055975,23.7635512 45.8097714,23.9105837 45.8167277,24.1541201 C45.8186249,24.2207116 45.8207118,24.2946389 45.8239371,24.3795067 C45.8438576,24.90231 45.8538494,25.1646919 45.8971687,25.3570041 C45.9354919,25.5269926 46.0252923,25.9250871 46.3351669,26.3169841 C46.4749266,26.493676 46.6194294,26.6763758 46.8723882,26.7831878 C47.1319872,26.8927191 47.4455297,26.9015726 47.6097633,26.8969561 C47.654537,26.8957546 47.6953266,26.8931618 47.7338396,26.8906954 C47.8637972,26.8825375 47.9760477,26.8754546 48.1190326,26.9307894 C48.1741777,26.9521645 48.3418894,27.0170485 48.4116428,27.1805233 C48.4498396,27.2701341 48.4530016,27.3467807 48.421192,27.4083763 C48.3957696,27.4575768 48.3582052,27.4743986 48.3251309,27.48926 C48.3043882,27.4985562 48.2849104,27.5072833 48.2655591,27.5237257 C48.2057975,27.5745072 48.2081374,27.6490037 48.2111097,27.7433574 L48.2111097,27.7433574 Z M8.23994459,38.7280451 C7.77348848,38.1485789 6.25491331,36.8159901 6.14816468,36.7329563 L6.13399898,36.7219526 L6.13614913,36.7041822 L6.58230529,33.0075637 L9.02247277,31.8688049 L8.95784178,42.9751026 L7.65257415,43.0652826 L8.281999,41.4807465 L8.23994459,38.7280451 Z M50.9173266,16.184832 C49.5825893,13.0292299 47.6719279,10.1952654 45.2382741,7.76167192 C42.8047468,5.32807847 39.9707224,3.41735157 36.8151241,2.08261264 C33.5477812,0.700696831 30.0773123,0 26.4999684,0 C22.9226877,0 19.4522188,0.700696831 16.1848759,2.08261264 C13.0292776,3.41735157 10.1952532,5.32807847 7.76166266,7.76167192 C5.32807211,10.1952654 3.41741073,13.0292299 2.08267339,16.184832 C0.700695995,19.4521788 0,22.9226518 0,26.5 C0,30.077285 0.700695995,33.5478212 2.08267339,36.8151048 C3.41741073,39.9707069 5.32807211,42.8047346 7.76166266,45.2383281 C10.1952532,47.6719215 13.0292776,49.5825852 16.1848759,50.9173241 C19.4522188,52.2993032 22.9226877,53 26.4999684,53 C30.0773123,53 33.5477812,52.2993032 36.8151241,50.9173241 C39.9707224,49.5825852 42.8047468,47.6719215 45.2382741,45.2383281 C47.6719279,42.8047346 49.5825893,39.9707069 50.9173266,36.8151048 C52.299304,33.5478212 53,30.077285 53,26.5 C53,22.9226518 52.299304,19.4521788 50.9173266,16.184832 L50.9173266,16.184832 Z" id="Fill-1" fill="#FFFFFF" mask="url(#mask-3)"></path>
        </g>
    </g>
</svg>