<?xml version="1.0" encoding="UTF-8"?>
<svg width="64px" height="64px" viewBox="0 0 64 64" version="1.1" xmlns="http://www.w3.org/2000/svg" xmlns:xlink="http://www.w3.org/1999/xlink">
    <!-- Generator: Sketch 58 (84663) - https://sketch.com -->
    <title>Eco</title>
    <desc>Created with Sketch.</desc>
    <defs>
        <linearGradient x1="100%" y1="0%" x2="0%" y2="100%" id="linearGradient-1">
            <stop stop-color="#767FFF" offset="0%"></stop>
            <stop stop-color="#5560FF" offset="100%"></stop>
        </linearGradient>
    </defs>
    <g id="Eco" stroke="none" stroke-width="1" fill="none" fill-rule="evenodd">
        <g id="CYVA" fill="url(#linearGradient-1)" fill-rule="nonzero">
            <circle id="Oval" cx="32" cy="32" r="32"></circle>
        </g>
        <polygon id="Fill-1" fill="#FFFFFF" points="36.1210182 13 36.1210182 17.3523974 30.0817455 17.3523974 30.0817455 13 26.5250909 13 26.5250909 17.3523974 16 17.3523974 16 21.2752361 20.5789091 21.2752361 20.5789091 42.3062196 16 42.3062196 16 46.2284786 26.5250909 46.2284786 26.5250909 51 30.0817455 51 30.0817455 46.2284786 36.1210182 46.2284786 36.1210182 51 39.6782545 51 39.6782545 46.2284786 48 46.2284786 48 42.3062196 47.9755636 42.3062196 47.9755636 34.8889414 43.6119273 34.8889414 43.6119273 42.3062196 30.0817455 42.3062196 30.0817455 33.0779546 35.9034182 33.0779546 35.9034182 36.9909384 39.4664727 36.9909384 39.4664727 25.8316883 35.9034182 25.8316883 35.9034182 29.5267044 30.0817455 29.5267044 30.0817455 21.2752361 43.6119273 21.2752361 43.6119273 27.7881802 47.9755636 27.7881802 47.9755636 21.2752361 48 21.2752361 48 17.3523974 39.6782545 17.3523974 39.6782545 13"></polygon>
    </g>
</svg>