<?xml version="1.0" encoding="UTF-8"?>
<svg width="64px" height="64px" viewBox="0 0 64 64" version="1.1" xmlns="http://www.w3.org/2000/svg" xmlns:xlink="http://www.w3.org/1999/xlink">
    <!-- Generator: Sketch 52.6 (67491) - http://www.bohemiancoding.com/sketch -->
    <title>Coin / EURO</title>
    <desc>Created with Sketch.</desc>
    <defs>
        <linearGradient x1="100%" y1="0%" x2="0%" y2="100%" id="linearGradient-1">
            <stop stop-color="#767FFF" offset="0%"></stop>
            <stop stop-color="#5560FF" offset="100%"></stop>
        </linearGradient>
    </defs>
    <g id="Coin-/-EURO" stroke="none" stroke-width="1" fill="none" fill-rule="evenodd">
        <circle id="Oval" fill="url(#linearGradient-1)" cx="32" cy="32" r="32"></circle>
        <path d="M42.025641,16.8931477 L41.0871655,21.1411688 C39.2254605,19.6020306 37.1196036,18.8324615 34.769595,18.8324615 C31.5802929,18.8324615 29.0738659,19.7559447 27.2503141,21.602911 C25.4267627,23.4498766 24.331869,25.5200157 23.9656329,27.8133285 L39.5764346,27.8133285 L38.9813091,30.9300878 L23.5993969,30.9300878 L23.5536094,31.8304873 L23.5993969,33.954481 L38.3174943,33.954481 L37.7223688,37.0712403 L24.0800776,37.0712403 C24.6599459,40.1956934 25.9150666,42.4928589 27.8454396,43.9627368 C29.7758122,45.4326155 31.9541569,46.1675548 34.3804734,46.1675548 C37.2493108,46.1675548 39.4848748,45.4056799 41.0871655,43.88193 L41.0871655,48.6609583 C39.1949461,49.5536528 37.0890892,50 34.769595,50 C26.346167,50 21.2646398,45.6904134 19.5250134,37.0712403 L16,37.0712403 L16.6637987,33.954481 L19.0443327,33.954481 C19.0138184,33.5850879 18.9985613,32.8924787 18.9985613,31.8766535 L18.9985613,30.9300878 L16,30.9300878 L16.6637987,27.8133285 L19.3418953,27.8133285 C20.1354067,23.5653077 21.9742207,20.3677478 24.8583373,18.2206487 C27.7424432,16.0735496 31.0767155,15 34.8611544,15 C37.6994774,15 40.0876396,15.6310492 42.025641,16.8931477 Z" id="Path" stroke="#FFFFFF" stroke-width="0.5" fill="#FFFFFF"></path>
    </g>
</svg>