<?xml version="1.0" encoding="utf-8"?>
<!-- Generator: Adobe Illustrator 21.0.0, SVG Export Plug-In . SVG Version: 6.00 Build 0)  -->
<svg version="1.1" id="Layer_1" xmlns="http://www.w3.org/2000/svg" xmlns:xlink="http://www.w3.org/1999/xlink" x="0px" y="0px"
	 viewBox="0 0 64 64" enable-background="new 0 0 64 64" xml:space="preserve">
<title>Group 3</title>
<desc>Created with Sketch.</desc>
<linearGradient id="Oval_2_" gradientUnits="userSpaceOnUse" x1="-596.5156" y1="387.8906" x2="-597.5156" y2="386.8906" gradientTransform="matrix(64 0 0 -64 38241 24825)">
	<stop  offset="0" style="stop-color:#767FFF"/>
	<stop  offset="1" style="stop-color:#5560FF"/>
</linearGradient>
<circle id="Oval" fill="url(#Oval_2_)" cx="32" cy="32" r="32"/>
<g id="Group">
	<polygon id="Fill-1" fill="#FFFFFF" points="36.177,44.439 28.348,44.439 24.587,36.941 31.558,36.941 28.883,31.62 21.912,31.62 
		18.687,25.196 26.079,25.196 23.344,19.761 11.076,19.761 26.192,49.874 38.905,49.874 	"/>
	<polygon id="Fill-17" fill="#FFFFFF" points="50.48,25.196 52.187,19.761 35.709,19.792 26.256,49.874 43.349,49.843 
		45.056,44.416 34.32,44.431 36.672,36.943 46.224,36.928 47.893,31.615 38.341,31.631 40.359,25.211 	"/>
</g>
<circle id="Oval_1_" fill="none" stroke="#FFFFFF" stroke-width="3" cx="32" cy="32" r="26"/>
</svg>
