<?xml version="1.0" encoding="UTF-8"?>
<svg width="32px" height="32px" viewBox="0 0 32 32" version="1.1" xmlns="http://www.w3.org/2000/svg" xmlns:xlink="http://www.w3.org/1999/xlink">
    <!-- Generator: Sketch 53.2 (72643) - https://sketchapp.com -->
    <title>Group</title>
    <desc>Created with Sketch.</desc>
    <g id="Exchange" stroke="none" stroke-width="1" fill="none" fill-rule="evenodd">
        <g id="External-Exchange----Step-2" transform="translate(-704.000000, -616.000000)">
            <g id="Group-10" transform="translate(273.000000, 218.000000)">
                <g id="Group-36-Copy-2" transform="translate(0.000000, 322.000000)">
                    <g id="Group-6" transform="translate(221.000000, 32.000000)">
                        <g id="Group-19" transform="translate(210.000000, 0.000000)">
                            <g id="Group" transform="translate(0.000000, 44.000000)">
                                <rect id="Rectangle" stroke="#31C0A8" stroke-width="1.5" x="0.75" y="0.75" width="30.5" height="30.5" rx="15.25"></rect>
                                <path d="M21.712,15.1476667 L17.8573333,11.293 C17.4666667,10.9023333 16.8346667,10.9023333 16.444,11.293 C16.0533333,11.6836667 16.0533333,12.317 16.444,12.7076667 L18.5906667,14.8543333 L10,14.8543333 C9.448,14.8543333 9,15.3023333 9,15.8543333 C9,16.4063333 9.448,16.8543333 10,16.8543333 L18.5906667,16.8543333 L16.444,19.001 C16.0533333,19.3916667 16.0533333,20.025 16.444,20.4156667 C16.6386667,20.6103333 16.8946667,20.709 17.1506667,20.709 C17.4066667,20.709 17.6626667,20.6103333 17.8573333,20.4156667 L21.712,16.561 C21.804,16.469 21.8773333,16.3583333 21.928,16.237 C22.028,15.993 22.028,15.717 21.928,15.4716667 C21.8773333,15.3503333 21.804,15.2396667 21.712,15.1476667 Z" id="Fill-4" fill="#31C0A8"></path>
                            </g>
                        </g>
                    </g>
                </g>
            </g>
        </g>
    </g>
</svg>