<?xml version="1.0" encoding="UTF-8"?>
<svg width="64px" height="64px" viewBox="0 0 64 64" version="1.1" xmlns="http://www.w3.org/2000/svg" xmlns:xlink="http://www.w3.org/1999/xlink">
    <!-- Generator: Sketch 53 (72520) - https://sketchapp.com -->
    <title>Fujicoin</title>
    <desc>Created with Sketch.</desc>
    <defs>
        <linearGradient x1="100%" y1="0%" x2="0%" y2="100%" id="linearGradient-1">
            <stop stop-color="#767FFF" offset="0%"></stop>
            <stop stop-color="#5560FF" offset="100%"></stop>
        </linearGradient>
        <polygon id="path-2" points="0 0.167030303 63.8329697 0.167030303 63.8329697 63.999903 0 63.999903"></polygon>
    </defs>
    <g id="Fujicoin" stroke="none" stroke-width="1" fill="none" fill-rule="evenodd">
        <circle id="Oval" fill="url(#linearGradient-1)" cx="32" cy="32" r="32"></circle>
        <g id="Group-3">
            <mask id="mask-3" fill="white">
                <use xlink:href="#path-2"></use>
            </mask>
            <g id="Clip-2"></g>
        </g>
        <path d="M23.4691562,16.0940401 C24.2099375,16.3203643 24.971296,16.4438138 25.7120773,16.6289882 C26.2882405,16.7730126 26.8644038,16.8758872 27.440567,17.0404866 C27.6463396,17.0816365 27.6874941,17.0199117 27.7286486,16.8553123 C28.160771,14.9829943 28.5928935,13.1106762 29.0250159,11.2383582 C29.0661704,11.032609 29.1279022,10.9708842 29.354252,11.0120341 C30.5271557,11.300083 31.7000594,11.567557 32.8935404,11.8144561 C33.099313,11.8556059 33.1610447,11.9379056 33.099313,12.1642298 C32.6671906,13.995398 32.2556454,15.8265661 31.823523,17.6371594 C31.7412139,18.007508 31.7412139,18.007508 32.1116046,18.0898077 C32.7083451,18.2338322 33.3050856,18.3572817 33.8812488,18.5013062 C34.0870214,18.563031 34.1899077,18.5218811 34.2310622,18.2955569 C34.6426073,16.4438138 35.0747298,14.6126457 35.5068522,12.7609026 C35.5891612,12.4317038 35.5685839,12.4317038 35.9183973,12.5140035 C37.091301,12.7814775 38.2436275,13.0695264 39.4165312,13.3164255 C39.6017265,13.3575753 39.642881,13.4193001 39.6017265,13.6044744 C39.1696041,15.4562175 38.7374817,17.3285355 38.3053593,19.1802787 C38.2436275,19.4271777 38.284782,19.5094774 38.5522864,19.5712022 C40.3219306,19.9621257 42.0709975,20.3736242 43.8406417,20.7851227 C44.025837,20.6822481 44.1904551,20.7233979 44.3139186,20.8879973 C45.6514404,21.1966211 46.9889622,21.505245 48.326484,21.8138689 C48.8409154,21.9373184 49.3347696,22.0607679 49.8492011,22.1636425 C49.9932419,22.1842175 50.0138191,22.2253673 49.9932419,22.3899667 C49.5199649,24.447459 49.046688,26.5049514 48.5734111,28.5830187 C48.5528338,28.6653183 48.5528338,28.747618 48.5322565,28.8299177 C48.5939883,29.0768168 48.5322565,29.303141 48.4705248,29.5294651 C48.2235977,30.6199361 47.9766706,31.6898321 47.7297435,32.780303 C47.6474344,33.1095018 47.5239709,33.2123764 47.1741575,33.1300767 C46.0835628,32.8831776 45.0135454,32.6362786 43.9229507,32.3688046 C43.4908283,32.2659299 43.4290965,32.1630553 43.5114056,31.710407 C43.7171782,30.7433856 43.8817962,29.7557893 43.8406417,28.768193 C43.7994872,27.6365722 43.5114056,26.5666762 42.7088925,25.7025294 C42.3796564,25.3321808 41.9681112,25.0852817 41.5565661,24.8178077 C40.6305894,24.3034346 39.642881,23.9742358 38.6345954,23.7067618 C36.9061057,23.2541135 35.177616,22.8837649 33.4285491,22.4928413 C33.1610447,22.4311166 33.1198902,22.4516915 33.0581585,22.7191655 C32.5025725,25.1675814 31.9264093,27.5954223 31.3708233,30.0438382 C31.3090915,30.3113122 31.3296688,30.3524621 31.5971731,30.4141868 C32.2762227,30.5787862 32.9346949,30.7845355 33.6343217,30.8051104 C35.012998,30.8462602 35.9389746,30.2907373 36.3505198,28.8093428 C36.4945606,28.2949697 36.5974469,27.7805966 36.7209104,27.2662236 C36.8032194,26.9164499 36.9061057,26.8341502 37.2353419,26.9164499 C37.8938141,27.0604743 38.5317091,27.2044988 39.1901814,27.3690982 C39.5194175,27.4308229 39.8486536,27.5131226 40.198467,27.5954223 C40.5071259,27.6571471 40.5894349,27.7805966 40.5277031,28.1097954 C40.116158,29.9203887 39.6840356,31.7515569 39.2724904,33.5621501 C38.7374817,35.8459666 38.2230502,38.1297831 37.6880415,40.4135996 C37.6057325,40.7633733 37.5028462,40.8250981 37.1736101,40.7633733 C36.2476335,40.5370492 35.3010796,40.3312999 34.375103,40.1049758 C33.8812488,39.9815262 33.819517,39.8992265 33.9429806,39.4054284 C34.0664441,38.8499054 34.2104849,38.3149574 34.3133712,37.7594345 C34.4985665,36.6895385 34.0252896,35.7225171 33.0787357,35.1875691 C32.3173772,34.7554957 31.4531323,34.6114712 30.6094647,34.4262969 C30.4242694,34.3851471 30.3831149,34.5085966 30.3419604,34.6320461 C30.2184968,35.1258443 30.1156106,35.6196425 29.992147,36.1134406 C29.6834881,37.4302357 29.3748293,38.7676057 29.0867476,40.0844008 C28.9632841,40.5987739 28.8398205,41.113147 28.7369343,41.6275201 C28.5723162,42.5739666 29.1279022,43.1706393 29.8686835,43.3558137 C30.547733,43.540988 31.2267825,43.6644375 31.8852547,43.8290369 C32.0498728,43.8701867 32.1939136,43.8907617 32.3585317,43.9524864 C32.626036,44.0347861 32.6877678,44.1376607 32.626036,44.4051348 C32.543727,44.7960583 32.4408407,45.1869818 32.3585317,45.5779054 C32.1939136,46.2774528 32.0292956,46.9975751 31.8646775,47.6971225 C31.8441002,47.820572 31.8029457,47.9234467 31.6794822,48.0057464 C31.2473597,49.8986393 30.7946601,51.7709573 30.3625376,53.6638503 C30.3419604,53.7255751 30.3213831,53.7872998 30.3213831,53.8695995 C30.3008059,53.9930491 30.2596514,54.013624 30.1361878,53.9930491 C28.8809751,53.7050001 27.6257623,53.3963763 26.3705496,53.1289023 C26.164777,53.0877524 26.247086,52.9643029 26.2676633,52.8614283 C26.5763222,51.5034833 26.9055583,50.1249635 27.2142172,48.7670185 C27.2553717,48.5612693 27.2965262,48.376095 27.3376807,48.1703457 C27.2142172,47.9645965 27.3376807,47.7794222 27.3788352,47.5942479 C27.5022988,47.01815 27.5846078,47.038725 26.9672901,46.9152754 C26.5145904,46.8124008 26.0618907,46.7095262 25.609191,46.6066516 C25.3211094,46.5449268 25.3005322,46.5449268 25.2182231,46.8535506 C25.1359141,47.2033243 25.0536051,47.553098 24.971296,47.9028717 C24.9301415,48.0674711 24.888987,48.2114956 24.7861007,48.3349451 C24.6009054,48.8904681 24.5185963,49.4665659 24.3745555,50.0220888 C24.1893602,50.783361 24.0247422,51.5446332 23.8601241,52.3264803 C23.8189696,52.4910797 23.7572378,52.5322295 23.613197,52.4910797 C22.3991388,52.2030307 21.1645033,51.9149818 19.9504451,51.6475078 C19.7652497,51.6063579 19.7446725,51.5446332 19.785827,51.3800338 C19.9915996,50.5364619 20.1767949,49.6928901 20.3619902,48.8698931 C20.2796812,48.7670185 20.3002584,48.643569 20.341413,48.5201194 C20.5471855,47.6559727 20.7323809,46.8124008 20.9381534,45.948254 C21.0204625,45.5779054 21.0204625,45.5573305 20.6500718,45.4750308 C19.147932,45.1252571 17.6663694,44.7960583 16.1642296,44.4462846 C15.8967252,44.3845598 15.6292209,44.34341 15.3617165,44.2611103 C15.0119031,44.1582357 14.9501713,44.075936 15.0324804,43.7261623 C15.2176757,42.9031653 15.402871,42.0801684 15.6086436,41.2571715 C15.6703754,41.0308473 15.6909526,40.8045232 15.7732617,40.578199 C15.876148,40.2695751 15.9790342,40.2078504 16.2876931,40.2695751 C17.0078971,40.4135996 17.7075239,40.5987739 18.4071507,40.7633733 C18.8186959,40.845673 19.2096638,40.9073978 19.6212089,40.7633733 C20.0533313,40.5987739 20.2796812,40.2490002 20.423722,39.8375018 C20.6294946,39.2202541 20.7323809,38.5824314 20.8969989,37.9446088 C21.0204625,37.4919605 21.0821942,37.0187373 21.2262351,36.5660889 C21.3702759,35.7636669 21.5760484,34.9612449 21.7612438,34.1588229 C22.2756752,31.9367312 22.7901067,29.6940645 23.3045381,27.4719728 C23.7160833,25.6819545 24.1482057,23.8713612 24.5391736,22.0813429 C24.7449462,21.1760462 24.3539783,20.4970738 23.4897334,20.2501747 C23.2839609,20.1884499 23.057611,20.1267251 22.8518384,20.0855753 C22.5843341,20.0444254 22.337407,19.9621257 22.0699026,19.900401 C21.9670163,19.8798261 21.8435528,19.8386762 21.8023983,19.7358016 C21.4937394,19.6535019 21.1850805,19.5712022 20.8764217,19.5094774 C20.7529581,19.4889025 20.7118036,19.4271777 20.7323809,19.3037282 C20.9998852,18.1515325 21.2673896,17.0199117 21.5348939,15.867716 C21.5760484,15.7031166 21.6583575,15.7236915 21.7612438,15.7442664 C22.3168297,15.8265661 22.8724157,16.0117404 23.4691562,16.0940401 Z" id="Path" fill="#FEFEFE" fill-rule="nonzero"></path>
    </g>
</svg>