<?xml version="1.0" encoding="utf-8"?>
<!-- Generator: Adobe Illustrator 21.0.0, SVG Export Plug-In . SVG Version: 6.00 Build 0)  -->
<svg version="1.1" id="Layer_1" xmlns="http://www.w3.org/2000/svg" xmlns:xlink="http://www.w3.org/1999/xlink" x="0px" y="0px"
	 viewBox="0 0 64 64" enable-background="new 0 0 64 64" xml:space="preserve">
<title>Coin / XMR Monero</title>
<desc>Created with Sketch.</desc>
<g id="Coin-_x2F_-XMR-Monero">
	<g id="Path-7">
		<g id="Mask">
			
				<linearGradient id="path-2_2_" gradientUnits="userSpaceOnUse" x1="-596.5156" y1="387.8906" x2="-597.5156" y2="386.8906" gradientTransform="matrix(45.2548 -45.2548 -45.2548 -45.2548 44581.1406 -9454.5449)">
				<stop  offset="0" style="stop-color:#767FFF"/>
				<stop  offset="1" style="stop-color:#5560FF"/>
			</linearGradient>
			<circle id="path-2_1_" fill="url(#path-2_2_)" cx="32" cy="32" r="32"/>
		</g>
	</g>
</g>
<path fill="#FFFFFF" d="M43.583,23.863c-0.525-0.919-1.497-1.471-2.574-1.471H22.968c-1.077,0-2.022,0.552-2.574,1.471
	c-0.525,0.919-0.525,2.022,0,2.941l10.505,18.173c0.236,0.368,0.63,0.63,1.103,0.63c0.473,0,0.867-0.236,1.103-0.63l10.505-18.173
	C44.135,25.885,44.135,24.782,43.583,23.863z M31.398,43.087l-9.796-16.939c-0.315-0.499-0.315-1.129,0-1.628
	c0.315-0.499,0.814-0.814,1.418-0.814h8.377V43.087z M42.454,26.148L32.684,43.06V23.705h8.377c0.578,0,1.129,0.315,1.418,0.814
	C42.743,25.019,42.743,25.649,42.454,26.148z"/>
<path fill="#FFFFFF" d="M14.322,49.678c-9.748-9.748-9.748-25.608,0-35.355s25.608-9.748,35.355,0c0.39,0.39,0.39,1.024,0,1.414
	c-0.39,0.39-1.024,0.39-1.414,0c-8.968-8.968-23.559-8.968-32.527,0c-8.968,8.968-8.968,23.559,0,32.527
	c0.39,0.39,0.391,1.023,0,1.414C15.346,50.069,14.713,50.068,14.322,49.678z"/>
<path fill="#FFFFFF" d="M49.678,49.678c-9.748,9.748-25.608,9.748-35.355,0s-9.748-25.608,0-35.355c0.39-0.39,1.024-0.39,1.414,0
	c0.39,0.39,0.39,1.024,0,1.414c-8.968,8.968-8.968,23.559,0,32.527c8.968,8.968,23.559,8.968,32.527,0
	c0.39-0.39,1.023-0.391,1.414,0S50.068,49.287,49.678,49.678z"/>
</svg>
