<?xml version="1.0" encoding="UTF-8"?>
<svg width="24px" height="24px" viewBox="0 0 24 24" version="1.1" xmlns="http://www.w3.org/2000/svg" xmlns:xlink="http://www.w3.org/1999/xlink">
    <!-- Generator: Sketch 52.5 (67469) - http://www.bohemiancoding.com/sketch -->
    <title>ic_deposite</title>
    <desc>Created with Sketch.</desc>
    <g id="ic_deposite" stroke="none" stroke-width="1" fill="none" fill-rule="evenodd">
        <rect id="Rectangle" x="0" y="0" width="24" height="24"></rect>
        <path d="M18.9999,12.7775 C18.9999,12.3632864 19.3356864,12.0275 19.7499,12.0275 C20.1641136,12.0275 20.4999,12.3632864 20.4999,12.7775 C20.4999,17.8857136 16.3581136,22.0275 11.2499,22.0275 C6.14168644,22.0275 1.9999,17.8857136 1.9999,12.7775 C1.9999,7.66861815 6.14135469,3.5275 11.2499,3.5275 C11.6641136,3.5275 11.9999,3.86328644 11.9999,4.2775 C11.9999,4.69171356 11.6641136,5.0275 11.2499,5.0275 C6.96975453,5.0275 3.4999,8.49707257 3.4999,12.7775 C3.4999,17.0572864 6.97011356,20.5275 11.2499,20.5275 C15.5296864,20.5275 18.9999,17.0572864 18.9999,12.7775 Z M15.4998,12.7775 C15.4998,12.3632864 15.8355864,12.0275 16.2498,12.0275 C16.6640136,12.0275 16.9998,12.3632864 16.9998,12.7775 C16.9998,13.2387998 16.9449619,13.6951107 16.8375858,14.1386193 C16.2160438,16.6960543 13.9172312,18.5275 11.2498,18.5275 C8.07458644,18.5275 5.4998,15.9527136 5.4998,12.7775 C5.4998,10.2414359 7.15600889,8.02674181 9.53892033,7.28669424 C10.0872573,7.11519309 10.6620378,7.0275 11.2498,7.0275 C11.6640136,7.0275 11.9998,7.36328644 11.9998,7.7775 C11.9998,8.19171356 11.6640136,8.5275 11.2498,8.5275 C10.8138097,8.5275 10.3900069,8.59215875 9.98524332,8.71875342 C8.22420756,9.26566969 6.9998,10.902956 6.9998,12.7775 C6.9998,15.1242864 8.90301356,17.0275 11.2498,17.0275 C13.2211744,17.0275 14.9209416,15.673309 15.3798592,13.7850196 C15.459199,13.4573119 15.4998,13.1194687 15.4998,12.7775 Z M12.2498,12.7775 C12.2498,12.8585 12.2398,12.9375 12.2218,13.0135 C12.1158,13.4525 11.7208,13.7775 11.2498,13.7775 C10.6978,13.7775 10.2498,13.3295 10.2498,12.7775 C10.2498,12.3285 10.5458,11.9485 10.9528,11.8225 C11.0468,11.7935 11.1458,11.7775 11.2498,11.7775 C11.8018,11.7775 12.2498,12.2245 12.2498,12.7775 Z" id="Combined-Shape" fill="#878BC8" fill-rule="nonzero"></path>
        <path d="M18.2016335,6.8830267 L20.3236534,9.00504661 C20.6386358,9.32002904 20.4155524,9.8586 19.9701,9.8586 L14.6051,9.8586 C14.3289576,9.8586 14.1051,9.63474237 14.1051,9.3586 L14.1051,3.9936 C14.1051,3.54814757 14.643671,3.32506418 14.9586534,3.64004661 L17.1409733,5.82236652 L20.7434699,2.21986991 C21.0363631,1.9269767 21.5112369,1.9269767 21.8041301,2.21986991 C22.0970233,2.51276313 22.0970233,2.98763687 21.8041301,3.28053009 L18.2016335,6.8830267 Z" id="Combined-Shape" fill="#00AA93" fill-rule="nonzero"></path>
    </g>
</svg>