<?xml version="1.0" encoding="UTF-8"?>
<svg width="56px" height="56px" viewBox="0 0 56 56" version="1.1" xmlns="http://www.w3.org/2000/svg" xmlns:xlink="http://www.w3.org/1999/xlink">
    <!-- Generator: Sketch 53 (72520) - https://sketchapp.com -->
    <title>Icon / Empty State / ic_history Copy</title>
    <desc>Created with Sketch.</desc>
    <g id="Icon-/-Empty-State-/-ic_history-Copy" stroke="none" stroke-width="1" fill="none" fill-rule="evenodd">
        <rect id="Rectangle" x="0" y="0" width="56" height="56"></rect>
        <path d="M8.74976667,20.5475667 L8.74976667,12.3435667 C8.74976667,10.3579 10.3574333,8.75023333 12.3431,8.75023333 C14.3287667,8.75023333 15.9387667,10.3579 15.9387667,12.3435667 L15.9387667,43.3769 C15.9387667,45.3602333 17.5464333,46.9702333 19.5321,46.9702333 C21.5154333,46.9702333 23.1254333,45.3602333 23.1254333,43.3769 L23.1254333,38.4582333 L47.7654333,38.4582333 L47.7654333,43.3769 C47.7654333,45.3602333 46.1577667,46.9702333 44.1721,46.9702333 L19.5321,46.9702333" id="Stroke-1" stroke="#D5D4DC" stroke-width="1.5" stroke-linecap="round" stroke-linejoin="round"></path>
        <path d="M12.3431,8.75 L36.9854333,8.75 C38.9711,8.75 40.5787667,10.3576667 40.5787667,12.3433333 L40.5787667,38.458" id="Stroke-3" stroke="#D5D4DC" stroke-width="1.5" stroke-linecap="round" stroke-linejoin="round"></path>
        <g id="Group-Copy" transform="translate(25.000000, 20.000000)" stroke="#878BC8" stroke-linecap="round" stroke-width="1.5">
            <path d="M7.62066667,2.44249065e-14 L1.42108547e-14,7.623" id="Stroke-1"></path>
            <path d="M7.62066667,7.623 L1.42108547e-14,2.44249065e-14" id="Stroke-2"></path>
        </g>
    </g>
</svg>