<?xml version="1.0" encoding="UTF-8"?>
<svg width="36px" height="36px" viewBox="0 0 36 36" version="1.1" xmlns="http://www.w3.org/2000/svg" xmlns:xlink="http://www.w3.org/1999/xlink">
    <!-- Generator: Sketch 52.5 (67469) - http://www.bohemiancoding.com/sketch -->
    <title>ic_information</title>
    <desc>Created with Sketch.</desc>
    <g id="ic_information" stroke="none" stroke-width="1" fill="none" fill-rule="evenodd">
        <rect id="Rectangle-Copy-9" x="0" y="0" width="36" height="36"></rect>
        <path d="M18.375,30.12515 C11.334,30.12515 5.625,24.41615 5.625,17.37515 C5.625,10.33415 11.334,4.62515 18.375,4.62515 C25.416,4.62515 31.125,10.33415 31.125,17.37515 C31.125,24.41615 25.416,30.12515 18.375,30.12515 Z" id="Stroke-1" stroke="#F65F6E" stroke-width="2"></path>
        <path d="M18.375,24.36695 C17.5455,24.36695 16.875,23.69645 16.875,22.86695 C16.875,22.03895 17.5455,21.36695 18.375,21.36695 C19.203,21.36695 19.875,22.03895 19.875,22.86695 C19.875,23.69645 19.203,24.36695 18.375,24.36695" id="Fill-3" fill="#F65F6E"></path>
        <path d="M18.375,11.696 L18.375,18.5945" id="Stroke-5" stroke="#F65F6E" stroke-width="2" stroke-linecap="round"></path>
    </g>
</svg>
