<?xml version="1.0" encoding="utf-8"?>
<!-- Generator: Adobe Illustrator 22.0.1, SVG Export Plug-In . SVG Version: 6.00 Build 0)  -->
<svg version="1.1" id="Layer_1" xmlns="http://www.w3.org/2000/svg" xmlns:xlink="http://www.w3.org/1999/xlink" x="0px" y="0px"
	 viewBox="0 0 64 64" style="enable-background:new 0 0 64 64;" xml:space="preserve">
<style type="text/css">
	.st0{fill:#FFFFFF;}
	.st1{opacity:0;fill:none;stroke:#FFFFFF;stroke-miterlimit:10;}
</style>
<g>
	<path class="st0" d="M32.1,19.3c4.3,0,4.8,0,6.5,0.1c1.6,0.1,2.4,0.3,3,0.6c0.7,0.3,1.3,0.6,1.8,1.2c0.6,0.6,0.9,1.1,1.2,1.8
		c0.2,0.6,0.5,1.4,0.6,3c0.1,1.7,0.1,2.2,0.1,6.5s0,4.8-0.1,6.5c-0.1,1.6-0.3,2.4-0.6,3c-0.3,0.7-0.6,1.3-1.2,1.8
		c-0.6,0.6-1.1,0.9-1.8,1.2c-0.6,0.2-1.4,0.5-3,0.6c-1.7,0.1-2.2,0.1-6.5,0.1s-4.8,0-6.5-0.1c-1.6-0.1-2.4-0.3-3-0.6
		c-0.7-0.3-1.3-0.6-1.8-1.2c-0.6-0.6-0.9-1.1-1.2-1.8c-0.2-0.6-0.5-1.4-0.6-3C19,37.2,19,36.7,19,32.4s0-4.8,0.1-6.5
		c0.1-1.6,0.3-2.4,0.6-3c0.3-0.7,0.6-1.3,1.2-1.8c0.6-0.6,1.1-0.9,1.8-1.2c0.6-0.2,1.4-0.5,3-0.6C27.3,19.3,27.8,19.3,32.1,19.3
		 M32.1,16.4c-4.3,0-4.9,0-6.6,0.1c-1.7,0.1-2.9,0.3-3.9,0.7c-1.1,0.4-1.9,1-2.8,1.8c-0.9,0.9-1.4,1.8-1.8,2.8
		c-0.4,1-0.7,2.2-0.7,3.9c-0.1,1.7-0.1,2.3-0.1,6.6s0,4.9,0.1,6.6c0.1,1.7,0.3,2.9,0.7,3.9c0.4,1.1,1,1.9,1.8,2.8
		c0.9,0.9,1.8,1.4,2.8,1.8c1,0.4,2.2,0.7,3.9,0.7c1.7,0.1,2.3,0.1,6.6,0.1s4.9,0,6.6-0.1c1.7-0.1,2.9-0.3,3.9-0.7
		c1.1-0.4,1.9-1,2.8-1.8c0.9-0.9,1.4-1.8,1.8-2.8c0.4-1,0.7-2.2,0.7-3.9c0.1-1.7,0.1-2.3,0.1-6.6s0-4.9-0.1-6.6
		c-0.1-1.7-0.3-2.9-0.7-3.9c-0.4-1.1-1-1.9-1.8-2.8c-0.9-0.9-1.8-1.4-2.8-1.8c-1-0.4-2.2-0.7-3.9-0.7C37,16.4,36.4,16.4,32.1,16.4
		L32.1,16.4z"/>
	<path class="st0" d="M32.1,24.2c-4.5,0-8.2,3.7-8.2,8.2s3.7,8.2,8.2,8.2s8.2-3.7,8.2-8.2S36.6,24.2,32.1,24.2z M32.1,37.7
		c-2.9,0-5.3-2.4-5.3-5.3s2.4-5.3,5.3-5.3s5.3,2.4,5.3,5.3S35,37.7,32.1,37.7z"/>
	<circle class="st0" cx="40.6" cy="23.9" r="1.9"/>
</g>
<rect x="0.1" y="0.4" class="st1" width="64" height="64"/>
</svg>
