<?xml version="1.0" encoding="UTF-8"?>
<svg width="28px" height="29px" viewBox="0 0 28 29" version="1.1" xmlns="http://www.w3.org/2000/svg" xmlns:xlink="http://www.w3.org/1999/xlink">
    <!-- Generator: Sketch 53.2 (72643) - https://sketchapp.com -->
    <title>ic_coin copy</title>
    <desc>Created with Sketch.</desc>
    <g id="Profile-&amp;-Verification" stroke="none" stroke-width="1" fill="none" fill-rule="evenodd">
        <g id="6.-Verification-Copy-3" transform="translate(-492.000000, -476.000000)">
            <g id="Group-5" transform="translate(450.000000, 438.000000)">
                <g id="Group-29">
                    <g id="Group-11" transform="translate(24.000000, 20.000000)">
                        <g id="Icon-/-ic_phone" transform="translate(14.000000, 13.000000)">
                            <rect id="Rectangle" x="0" y="0" width="36" height="38"></rect>
                            <g id="Group-7" stroke-width="1" fill-rule="evenodd" transform="translate(4.500000, 4.750000)" stroke-linecap="round" stroke-linejoin="round">
                                <path d="M11.53545,16.7124 C13.19145,18.5395667 15.59295,20.5219 16.61145,19.40565 L18.74745,17.1494 C19.62495,16.2215667 21.04995,16.2215667 21.92895,17.1494 L25.76445,21.1979833 C26.34945,21.8170667 26.34945,22.8193167 25.76445,23.4384 C25.76445,23.4384 23.82495,25.5885667 23.09745,26.2519833 C21.87945,27.36665 20.10045,27.81315 17.95695,27.6833167 C14.94945,27.5028167 11.36295,26.2282333 6.91095,21.6064833 C2.53245,16.90715 1.31745,13.1340667 1.14495,9.95948333 C1.02345,7.69848333 1.44495,5.82065 2.50245,4.5334 C3.13095,3.76706667 5.16795,1.71823333 5.16795,1.71823333 C5.75445,1.10073333 6.70395,1.10073333 7.28895,1.71823333 L11.12595,5.76681667 C12.00345,6.69465 12.00345,8.19881667 11.12595,9.12665 L8.98845,11.3813167 C7.93095,12.4548167 9.80445,14.9644 11.53545,16.7124 Z" id="Stroke-1" stroke="#4F4B6C" stroke-width="1.5"></path>
                                <path d="M15.64065,1.18765833 C18.26115,1.295325 20.85165,2.406825 22.85265,4.51899167 C24.96165,6.74515833 26.01615,9.66324167 26.01615,12.5797417" id="Stroke-3" stroke="#FACC08" stroke-width="1.5"></path>
                                <path d="M15.7959,6.317975 C17.1879,6.37655833 18.5634,6.96555833 19.6254,8.08655833 C20.7459,9.26930833 21.3054,10.8178083 21.3054,12.3678917" id="Stroke-5" stroke="#FACC08" stroke-width="1.5"></path>
                            </g>
                        </g>
                    </g>
                </g>
            </g>
        </g>
    </g>
</svg>