<?xml version="1.0" encoding="UTF-8"?>
<svg width="40px" height="40px" viewBox="0 0 40 40" version="1.1" xmlns="http://www.w3.org/2000/svg" xmlns:xlink="http://www.w3.org/1999/xlink">
    <!-- Generator: Sketch 52.2 (67145) - http://www.bohemiancoding.com/sketch -->
    <title>ic_reddit</title>
    <desc>Created with Sketch.</desc>
    <g id="ic_reddit" stroke="none" stroke-width="1" fill="none" fill-rule="evenodd">
        <rect id="Rectangle" x="0" y="0" width="40" height="40"></rect>
        <path d="M23.57,23.1629013 C22.673,23.1629013 21.91925,22.4420333 21.91925,21.5532105 C21.91925,20.6643876 22.673,19.9197384 23.57,19.9197384 C24.467,19.9197384 25.1945,20.6643876 25.1945,21.5532105 C25.1945,22.4420333 24.467,23.1629013 23.57,23.1629013 M23.951,26.2871581 C23.1155,27.1142985 21.827,27.5163496 20.012,27.5163496 C20.00825,27.5163496 20.00375,27.5156064 19.99925,27.5156064 C19.9955,27.5156064 19.991,27.5163496 19.9865,27.5163496 C18.1715,27.5163496 16.88375,27.1142985 16.049,26.2871581 C15.7925,26.0329964 15.7925,25.6220273 16.049,25.3686088 C16.30475,25.1151902 16.7195,25.1151902 16.976,25.3686088 C17.552,25.9393579 18.53675,26.2173008 19.9865,26.2173008 C19.991,26.2173008 19.9955,26.218044 19.99925,26.218044 C20.00375,26.218044 20.00825,26.2173008 20.012,26.2173008 C21.46175,26.2173008 22.44725,25.9393579 23.024,25.3686088 C23.2805,25.1144471 23.69525,25.1151902 23.951,25.3686088 C24.20675,25.6227705 24.20675,26.0337396 23.951,26.2871581 M14.8055,21.5532105 C14.8055,20.6651308 15.55775,19.9197384 16.454,19.9197384 C17.351,19.9197384 18.0785,20.6651308 18.0785,21.5532105 C18.0785,22.4420333 17.351,23.1629013 16.454,23.1629013 C15.55775,23.1629013 14.8055,22.4420333 14.8055,21.5532105 M27.998,11.2990488 C28.6055,11.2990488 29.09975,11.7887931 29.09975,12.3900119 C29.09975,12.9919738 28.6055,13.4817182 27.998,13.4817182 C27.3905,13.4817182 26.89625,12.9919738 26.89625,12.3900119 C26.89625,11.7887931 27.3905,11.2990488 27.998,11.2990488 M32,19.7852259 C32,18.2089774 30.70625,16.9270214 29.1155,16.9270214 C28.427,16.9270214 27.79475,17.1678062 27.29825,17.568371 C25.5395,16.4729489 23.3075,15.8130202 20.915,15.6733056 L22.163,11.7635256 L25.59275,12.563912 C25.68275,13.8012782 26.72675,14.7807669 27.998,14.7807669 C29.32775,14.7807669 30.41,13.7083829 30.41,12.3900119 C30.41,11.0723841 29.32775,10 27.998,10 C27.068,10 26.2595,10.524673 25.85675,11.290874 L21.87125,10.3611772 C21.5375,10.2831451 21.2,10.4733948 21.0965,10.7974138 L19.547,15.6502675 C16.96925,15.7126932 14.546,16.3748514 12.65825,17.5341855 C12.1685,17.1544293 11.55275,16.9270214 10.8845,16.9270214 C9.29375,16.9270214 8,18.2089774 8,19.7852259 C8,20.7595125 8.495,21.6208383 9.24875,22.1365933 C9.21725,22.363258 9.20075,22.591409 9.20075,22.8225327 C9.20075,24.7926576 10.3565,26.6252973 12.455,27.9823127 C14.4665,29.283591 17.129,30 19.95125,30 C22.7735,30 25.436,29.283591 27.4475,27.9823127 C29.546,26.6252973 30.70175,24.7926576 30.70175,22.8225327 C30.70175,22.6122176 30.6875,22.4033888 30.66125,22.1960464 C31.46525,21.6884661 32,20.7974138 32,19.7852259" id="Reddit-Copy" fill="#ffffff"></path>
    </g>
</svg>
