<?xml version="1.0" encoding="UTF-8"?>
<svg width="40px" height="40px" viewBox="0 0 40 40" version="1.1" xmlns="http://www.w3.org/2000/svg" xmlns:xlink="http://www.w3.org/1999/xlink">
    <!-- Generator: Sketch 49.1 (51147) - http://www.bohemiancoding.com/sketch -->
    <title>ic_twitter</title>
    <desc>Created with Sketch.</desc>
    <defs></defs>
    <g id="ic_twitter" stroke="none" stroke-width="1" fill="none" fill-rule="evenodd">
        <rect id="Rectangle" x="0" y="0" width="40" height="40"></rect>
        <path d="M27.7510445,15.3143015 C28.5600858,14.8037503 29.1808737,13.9941959 29.4722182,13.0298215 C28.7147225,13.5037359 27.8776673,13.846467 26.9845844,14.0320145 C26.2719109,13.2283692 25.2533256,12.7272727 24.1260465,12.7272727 C21.9633738,12.7272727 20.2108246,14.5768387 20.2108246,16.8577732 C20.2108246,17.1815949 20.2433207,17.4971439 20.310554,17.7985109 C17.05646,17.6259635 14.1710288,15.983218 12.2380701,13.4824629 C11.9007828,14.0946516 11.7080472,14.8037503 11.7080472,15.5601224 C11.7080472,16.9925019 12.3994301,18.2570614 13.4505115,18.9992515 C12.808433,18.9779785 12.2044534,18.7900674 11.6755511,18.4827912 L11.6755511,18.53361 C11.6755511,20.5356322 13.0247003,22.2055599 14.8187101,22.5837459 C14.4892667,22.680656 14.1441355,22.7291111 13.7855576,22.7291111 C13.5334326,22.7291111 13.2869103,22.7042927 13.0493525,22.6558376 C13.5468793,24.2962195 14.9935168,25.4922327 16.7079672,25.5241422 C15.3666619,26.6327 13.6779843,27.2921618 11.8436344,27.2921618 C11.5276377,27.2921618 11.2150026,27.2744344 10.9090909,27.2354339 C12.6425907,28.4066288 14.7010517,29.0909091 16.9130289,29.0909091 C24.1182026,29.0909091 28.0558357,22.7964755 28.0558357,17.3375967 C28.0558357,17.1579583 28.0535946,16.9795018 28.0457507,16.8034089 C28.8110903,16.2207661 29.4767004,15.492758 30,14.6642942 C29.2974115,14.9928434 28.5421569,15.2150276 27.7510445,15.3143015 Z" id="Shape" fill="#ffffff"></path>
    </g>
</svg>
