<?xml version="1.0" encoding="UTF-8"?>
<svg width="24px" height="24px" viewBox="0 0 24 24" version="1.1" xmlns="http://www.w3.org/2000/svg" xmlns:xlink="http://www.w3.org/1999/xlink">
    <!-- Generator: Sketch 52.5 (67469) - http://www.bohemiancoding.com/sketch -->
    <title>ic_withdraw</title>
    <desc>Created with Sketch.</desc>
    <g id="ic_withdraw" stroke="none" stroke-width="1" fill="none" fill-rule="evenodd">
        <rect id="Rectangle" transform="translate(12.000000, 12.000000) rotate(-180.000000) translate(-12.000000, -12.000000) " x="1.77635684e-15" y="-1.77635684e-15" width="24" height="24"></rect>
        <path d="M20.5001,12.2225 C20.5001,11.8082864 20.8358864,11.4725 21.2501,11.4725 C21.6643136,11.4725 22.0001,11.8082864 22.0001,12.2225 C22.0001,17.3307136 17.8583136,21.4725 12.7501,21.4725 C7.64188644,21.4725 3.5001,17.3307136 3.5001,12.2225 C3.5001,7.11361815 7.64155469,2.9725 12.7501,2.9725 C13.1643136,2.9725 13.5001,3.30828644 13.5001,3.7225 C13.5001,4.13671356 13.1643136,4.4725 12.7501,4.4725 C8.46995453,4.4725 5.0001,7.94207257 5.0001,12.2225 C5.0001,16.5022864 8.47031356,19.9725 12.7501,19.9725 C17.0298864,19.9725 20.5001,16.5022864 20.5001,12.2225 Z M17,12.2225 C17,11.8082864 17.3357864,11.4725 17.75,11.4725 C18.1642136,11.4725 18.5,11.8082864 18.5,12.2225 C18.5,12.6837998 18.4451619,13.1401107 18.3377858,13.5836193 C17.7162438,16.1410543 15.4174312,17.9725 12.75,17.9725 C9.57478644,17.9725 7,15.3977136 7,12.2225 C7,9.68643589 8.65620889,7.47174181 11.0391203,6.73169424 C11.5874573,6.56019309 12.1622378,6.4725 12.75,6.4725 C13.1642136,6.4725 13.5,6.80828644 13.5,7.2225 C13.5,7.63671356 13.1642136,7.9725 12.75,7.9725 C12.3140097,7.9725 11.8902069,8.03715875 11.4854433,8.16375342 C9.72440756,8.71066969 8.5,10.347956 8.5,12.2225 C8.5,14.5692864 10.4032136,16.4725 12.75,16.4725 C14.7213744,16.4725 16.4211416,15.118309 16.8800592,13.2300196 C16.959399,12.9023119 17,12.5644687 17,12.2225 Z M13.75,12.2225 C13.75,12.3035 13.74,12.3825 13.722,12.4585 C13.616,12.8975 13.221,13.2225 12.75,13.2225 C12.198,13.2225 11.75,12.7745 11.75,12.2225 C11.75,11.7735 12.046,11.3935 12.453,11.2675 C12.547,11.2385 12.646,11.2225 12.75,11.2225 C13.302,11.2225 13.75,11.6695 13.75,12.2225 Z" id="Combined-Shape" fill="#878BC8" fill-rule="nonzero" transform="translate(12.750100, 12.222500) rotate(-180.000000) translate(-12.750100, -12.222500) "></path>
        <path d="M6.07273348,20.0242267 L8.19475339,22.1462466 C8.50973582,22.461229 8.28665243,22.9998 7.8412,22.9998 L2.4762,22.9998 C2.20005763,22.9998 1.9762,22.7759424 1.9762,22.4998 L1.9762,17.1348 C1.9762,16.6893476 2.51477096,16.4662642 2.82975339,16.7812466 L5.0120733,18.9635665 L8.61456991,15.3610699 C8.90746313,15.0681767 9.38233687,15.0681767 9.67523009,15.3610699 C9.9681233,15.6539631 9.9681233,16.1288369 9.67523009,16.4217301 L6.07273348,20.0242267 Z" id="Combined-Shape" fill="#656FFF" fill-rule="nonzero" transform="translate(5.935550, 19.070600) rotate(-180.000000) translate(-5.935550, -19.070600) "></path>
    </g>
</svg>