<?xml version="1.0" encoding="UTF-8"?>
<svg width="28px" height="22px" viewBox="0 0 28 22" version="1.1" xmlns="http://www.w3.org/2000/svg" xmlns:xlink="http://www.w3.org/1999/xlink">
    <!-- Generator: Sketch 52.5 (67469) - http://www.bohemiancoding.com/sketch -->
    <title>ic_coin copy</title>
    <desc>Created with Sketch.</desc>
    <g id="⭐️-Verification" stroke="none" stroke-width="1" fill="none" fill-rule="evenodd">
        <g id="7.-Verification-TIER-2" transform="translate(-492.000000, -508.000000)">
            <g id="Group-16-Copy" transform="translate(450.000000, 466.000000)">
                <g id="Group-11" transform="translate(24.000000, 20.000000)">
                    <g id="Icon-/-ic_ID" transform="translate(14.000000, 13.000000)">
                        <rect id="Rectangle" x="0" y="0" width="36" height="38"></rect>
                        <path d="M16.13625,18.1318583 C16.13625,19.6613583 14.96175,20.9026917 13.51125,20.9026917 C12.06225,20.9026917 10.88625,19.6613583 10.88625,18.1318583 C10.88625,16.600775 12.06225,15.361025 13.51125,15.361025 C14.96175,15.361025 16.13625,16.600775 16.13625,18.1318583 Z" id="Stroke-1" stroke="#656FFF" stroke-width="1.5" stroke-linecap="round" stroke-linejoin="round"></path>
                        <path d="M9.01125,29.6327167 C9.01125,27.0091333 11.02575,24.8827167 13.51125,24.8827167 C15.99675,24.8827167 18.01125,27.0091333 18.01125,29.6327167" id="Stroke-3" stroke="#656FFF" stroke-width="1.5" stroke-linecap="round" stroke-linejoin="round"></path>
                        <path d="M28.1253,29.6265417 L7.8753,29.6265417 C6.6318,29.6265417 5.6253,28.5625417 5.6253,27.2515417 L5.6253,12.965125 C5.6253,11.6525417 6.6318,10.590125 7.8753,10.590125 L28.1253,10.590125 C29.3673,10.590125 30.3753,11.6525417 30.3753,12.965125 L30.3753,27.2515417 C30.3753,28.5625417 29.3673,29.6265417 28.1253,29.6265417 Z" id="Stroke-5" stroke="#4F4B6C" stroke-width="1.5" stroke-linecap="round" stroke-linejoin="round"></path>
                        <path d="M21.2346,16.45115 L25.7991,16.45115" id="Stroke-7" stroke="#656FFF" stroke-width="1.5" stroke-linecap="round" stroke-linejoin="round"></path>
                        <path d="M21.2346,21.3371583 L25.7991,21.3371583" id="Stroke-11" stroke="#656FFF" stroke-width="1.5" stroke-linecap="round" stroke-linejoin="round"></path>
                    </g>
                </g>
            </g>
        </g>
    </g>
</svg>
