<?xml version="1.0" encoding="UTF-8"?>
<svg width="64px" height="64px" viewBox="0 0 64 64" version="1.1" xmlns="http://www.w3.org/2000/svg" xmlns:xlink="http://www.w3.org/1999/xlink">
    <!-- Generator: Sketch 58 (84663) - https://sketch.com -->
    <title>KOTO</title>
    <desc>Created with Sketch.</desc>
    <defs>
        <linearGradient x1="100%" y1="0%" x2="0%" y2="100%" id="linearGradient-1">
            <stop stop-color="#767FFF" offset="0%"></stop>
            <stop stop-color="#5560FF" offset="100%"></stop>
        </linearGradient>
        <polygon id="path-2" points="0.295102439 0.196487805 14.9057561 0.196487805 14.9057561 14.7486829 0.295102439 14.7486829"></polygon>
        <polygon id="path-4" points="0 0.277385366 14.6108878 0.277385366 14.6108878 14.8292683 0 14.8292683"></polygon>
        <polygon id="path-6" points="0 0.196292683 14.6109659 0.196292683 14.6109659 14.7484878 0 14.7484878"></polygon>
        <polygon id="path-8" points="0.295102439 0.277307317 14.9057561 0.277307317 14.9057561 14.8292683 0.295102439 14.8292683"></polygon>
    </defs>
    <g id="KOTO" stroke="none" stroke-width="1" fill="none" fill-rule="evenodd">
        <g id="CYVA" fill="url(#linearGradient-1)" fill-rule="nonzero">
            <circle id="Oval" cx="32" cy="32" r="32"></circle>
        </g>
        <g id="Group-13" transform="translate(16.000000, 16.000000)">
            <g id="Group-3" transform="translate(16.780488, 0.193873)">
                <mask id="mask-3" fill="white">
                    <use xlink:href="#path-2"></use>
                </mask>
                <g id="Clip-2"></g>
                <path d="M9.92983415,7.83629268 C9.78310244,8.6284878 9.29607805,9.26185366 8.58037073,9.60214634 C8.22251707,9.77268293 8.13432195,9.7902439 7.62934634,9.7902439 C7.18993171,9.78439024 7.00183415,9.76097561 6.73217561,9.64936585 C6.25685854,9.46165854 5.74602927,8.97463415 5.50563902,8.4817561 C5.32339512,8.11804878 5.31207805,8.05365854 5.31207805,7.47219512 C5.31207805,6.92663415 5.32963902,6.81541463 5.47012683,6.52195122 C5.64066341,6.15239024 6.06290732,5.66536585 6.37978537,5.47141463 C6.49100488,5.40117073 6.73217561,5.29541463 6.91363902,5.23687805 C7.41822439,5.06634146 8.09334634,5.11356098 8.59793171,5.3484878 C9.53685854,5.79453659 10.1116878,6.85639024 9.92983415,7.83629268 L9.92983415,7.83629268 Z M14.9058341,7.47219512 L14.9058341,3.45307317 L13.2746146,1.82185366 L11.6492488,0.196487805 L7.60007805,0.196487805 L3.55129756,0.196487805 L1.92046829,1.82770732 L0.295102439,3.45307317 L0.295102439,7.47219512 L0.295102439,11.4917073 L1.92593171,13.1233171 L3.55129756,14.7486829 L7.60007805,14.7486829 L11.6492488,14.7486829 L13.2804683,13.1170732 L14.9058341,11.4917073 L14.9058341,7.47219512 Z" id="Fill-1" fill="#FFFFFF" mask="url(#mask-3)"></path>
            </g>
            <g id="Group-6" transform="translate(0.000000, 17.364605)">
                <mask id="mask-5" fill="white">
                    <use xlink:href="#path-4"></use>
                </mask>
                <g id="Clip-5"></g>
                <polygon id="Fill-4" fill="#FFFFFF" mask="url(#mask-5)" points="11.4542049 10.0588488 11.4717659 5.29397073 13.0440585 5.27640976 14.6108878 5.26470244 14.6108878 2.77065366 14.6108878 0.277385366 7.30552195 0.277385366 -0.000234146341 0.277385366 -0.000234146341 2.77065366 -0.000234146341 5.26470244 1.5548878 5.26470244 3.11000976 5.26470244 3.11000976 10.0471415 3.11000976 14.8295805 7.27625366 14.8295805 11.4424976 14.8295805"></polygon>
            </g>
            <g id="Group-9" transform="translate(0.000000, 0.193873)">
                <mask id="mask-7" fill="white">
                    <use xlink:href="#path-6"></use>
                </mask>
                <g id="Clip-8"></g>
                <path d="M14.6051122,4.33326829 L14.6109659,2.26185366 L14.6109659,0.196292683 L12.3694049,0.208390244 L10.1278439,0.22595122 L8.94852683,1.88058537 C8.30306341,2.78985366 7.7571122,3.53521951 7.7340878,3.54107317 C7.70442927,3.54107317 7.68647805,2.78985366 7.68647805,1.86887805 L7.68647805,0.196292683 L3.8433561,0.196292683 L-0.000156097561,0.196292683 L-0.000156097561,7.47239024 L-0.000156097561,14.7484878 L3.8433561,14.7484878 L7.68647805,14.7484878 L7.68647805,13.0762927 C7.68647805,12.1549268 7.70442927,11.4037073 7.7340878,11.4037073 C7.7571122,11.4099512 8.30306341,12.1549268 8.94852683,13.0645854 L10.1278439,14.7192195 L12.3694049,14.7367805 L14.6109659,14.7484878 L14.6109659,12.6829268 L14.6109659,10.6119024 L13.4667707,9.04507317 L12.3221854,7.47239024 L13.4667707,5.90556098 L14.6051122,4.33326829 Z" id="Fill-7" fill="#FFFFFF" mask="url(#mask-7)"></path>
            </g>
            <g id="Group-12" transform="translate(16.780488, 17.364605)">
                <mask id="mask-9" fill="white">
                    <use xlink:href="#path-8"></use>
                </mask>
                <g id="Clip-11"></g>
                <path d="M9.92983415,7.9171122 C9.78310244,8.70891707 9.29607805,9.34267317 8.58037073,9.68296585 C8.22251707,9.85350244 8.13432195,9.87106341 7.62934634,9.87106341 C7.18993171,9.86520976 7.00183415,9.84179512 6.73217561,9.73018537 C6.25685854,9.54247805 5.74602927,9.05545366 5.50563902,8.56218537 C5.32339512,8.19886829 5.31207805,8.1340878 5.31207805,7.55301463 C5.31207805,7.00745366 5.32963902,6.89623415 5.47012683,6.60277073 C5.75188293,5.99828293 6.28573659,5.52881951 6.92573659,5.31145366 C7.41822439,5.14716098 8.09334634,5.19399024 8.59793171,5.42891707 C9.53685854,5.87496585 10.1116878,6.93681951 9.92983415,7.9171122 L9.92983415,7.9171122 Z M11.6492488,0.277307317 L7.60007805,0.277307317 L3.55129756,0.277307317 L1.92046829,1.90852683 L0.295102439,3.53389268 L0.295102439,7.55301463 L0.295102439,11.5725268 L1.92593171,13.2041366 L3.55129756,14.8295024 L7.60007805,14.8295024 L11.6492488,14.8295024 L13.2804683,13.1978927 L14.9058341,11.5725268 L14.9058341,7.55301463 L14.9058341,3.53389268 L13.2746146,1.90267317 L11.6492488,0.277307317 Z" id="Fill-10" fill="#FFFFFF" mask="url(#mask-9)"></path>
            </g>
        </g>
    </g>
</svg>