<?xml version="1.0" encoding="UTF-8"?>
<svg width="64px" height="64px" viewBox="0 0 64 64" version="1.1" xmlns="http://www.w3.org/2000/svg" xmlns:xlink="http://www.w3.org/1999/xlink">
    <!-- Generator: Sketch 58 (84663) - https://sketch.com -->
    <title>Livenodes</title>
    <desc>Created with Sketch.</desc>
    <defs>
        <linearGradient x1="100%" y1="0%" x2="0%" y2="100%" id="linearGradient-1">
            <stop stop-color="#767FFF" offset="0%"></stop>
            <stop stop-color="#5560FF" offset="100%"></stop>
        </linearGradient>
        <polygon id="path-2" points="0 0.155124224 50 0.155124224 50 49.844705 0 49.844705"></polygon>
    </defs>
    <g id="Livenodes" stroke="none" stroke-width="1" fill="none" fill-rule="evenodd">
        <g id="CYVA" fill="url(#linearGradient-1)" fill-rule="nonzero">
            <circle id="Oval" cx="32" cy="32" r="32"></circle>
        </g>
        <g id="Group-8" transform="translate(7.000000, 7.000000)">
            <g id="Group-3">
                <mask id="mask-3" fill="white">
                    <use xlink:href="#path-2"></use>
                </mask>
                <g id="Clip-2"></g>
                <path d="M34.0257812,38.406972 C33.994375,38.4293323 33.9409375,38.451382 33.945,38.4919099 C33.8820312,38.4718789 33.836875,38.5128727 33.7910937,38.5422205 C33.6129687,38.6574379 33.4320312,38.7675311 33.2489062,38.8746739 C32.2946875,39.4332143 31.2948437,39.8933075 30.2470312,40.2493634 C29.7384375,40.4221894 29.2220312,40.5693944 28.6979687,40.6892702 C28.6370312,40.7032453 28.5667187,40.7035559 28.5198437,40.7538665 C28.4778125,40.7473447 28.4367187,40.7445497 28.4015625,40.7762267 C28.398125,40.7852329 28.396875,40.7929969 28.399375,40.7990528 C28.3973437,40.7987422 28.3954687,40.798587 28.3935937,40.798587 C28.3604687,40.7976553 28.3271875,40.7959472 28.2970312,40.8096118 C28.2821875,40.8068168 28.2675,40.8038665 28.2528125,40.8004503 C28.0746875,40.8004503 27.909375,40.8571273 27.7442187,40.9141149 C27.7457812,40.9183075 27.748125,40.9201708 27.7501562,40.9228106 C27.7479687,40.9226553 27.7453125,40.9223447 27.7429687,40.9221894 C27.740625,40.9209472 27.73875,40.9232764 27.7367187,40.9231211 C27.7279687,40.9179969 27.719375,40.9120963 27.7110937,40.9063509 C27.5720312,40.908059 27.434375,40.9246739 27.2976562,40.9498292 C27.2732812,40.9543323 27.2509375,40.9653571 27.2479687,40.9951708 C27.243125,40.9917547 27.238125,40.9889596 27.2334375,40.984146 C27.1728125,40.9648913 27.1126562,40.9488975 27.069375,41.0169099 C27.07125,41.0193944 27.0735937,41.0200155 27.0754687,41.0220342 C27.073125,41.0218789 27.0707812,41.0217236 27.0684375,41.0215683 C27.0654687,41.019705 27.0629687,41.0225 27.0601562,41.0225 C27.051875,41.0176863 27.0435937,41.0124068 27.0357812,41.0051087 C26.974375,40.9920652 26.91125,40.9718789 26.8695312,41.0434627 C26.87125,41.0448602 26.8729687,41.0453261 26.8746875,41.0465683 C26.8723437,41.046413 26.87,41.0462578 26.8676562,41.0461025 C26.8654687,41.0445497 26.8634375,41.0470342 26.86125,41.0467236 C26.851875,41.0414441 26.8425,41.035854 26.8334375,41.0285559 C26.7575,41.0189286 26.6765625,40.9825932 26.6198437,41.0703261 C26.62125,41.0712578 26.6228125,41.071413 26.624375,41.0721894 C26.6228125,41.0721894 26.6214062,41.0720342 26.6198437,41.0720342 C26.6179687,41.0707919 26.6164062,41.0729658 26.6146875,41.0723447 C26.605,41.0675311 26.5953125,41.0636491 26.5860937,41.0547981 C26.5009375,41.0406677 26.4123437,41.0046429 26.3448437,41.0951708 C26.34625,41.0961025 26.3479687,41.0961025 26.349375,41.0968789 L26.3446875,41.0968789 C26.34375,41.0962578 26.3429687,41.0975 26.3421875,41.0970342 C26.3314062,41.0920652 26.320625,41.0883385 26.3104687,41.0793323 C26.2025,41.068618 26.0892187,41.0173758 25.9967187,41.1204814 L25.9923437,41.1204814 C25.9882812,41.1207919 25.984375,41.1209472 25.9803125,41.1212578 C25.9654687,41.1155124 25.950625,41.1085248 25.9360937,41.0982764 C25.8090625,41.0748292 25.6809375,41.0855435 25.5534375,41.0891149 C25.5121875,41.0900466 25.4620312,41.0889596 25.4482812,41.1451708 L25.4417187,41.1451708 C25.4289062,41.1454814 25.4160937,41.1459472 25.4032812,41.1459472 C25.3667187,41.1394255 25.33,41.1318168 25.2932812,41.1204814 C25.105625,41.1038665 24.918125,41.1047981 24.730625,41.1207919 C24.689375,41.1315062 24.6482812,41.1394255 24.6073437,41.1459472 C24.5909375,41.1459472 24.5746875,41.1453261 24.5584375,41.1450155 L24.5503125,41.1450155 C24.551875,41.1445497 24.5535937,41.1445497 24.5553125,41.1440839 C24.540625,41.093618 24.4957812,41.0903571 24.45625,41.0894255 C24.3253125,41.0855435 24.1939062,41.0749845 24.0634375,41.0987422 C24.0473437,41.1093012 24.0310937,41.1150466 24.0146875,41.1209472 C24.0123437,41.1207919 24.01,41.1206366 24.0076562,41.1204814 C24.001875,41.1204814 23.99625,41.1206366 23.990625,41.1206366 C23.9954687,41.1181522 24.0004687,41.1176863 24.0053125,41.1148913 C23.9089062,41.0228106 23.7973437,41.0655124 23.6889062,41.0799534 C23.6789062,41.0886491 23.6685937,41.0922205 23.6582812,41.0970342 C23.6571875,41.0975 23.6564062,41.0961025 23.6553125,41.0968789 L23.640625,41.0968789 C23.6457812,41.0937733 23.6510937,41.0926863 23.65625,41.0881832 C23.584375,41.010854 23.498125,41.0378727 23.413125,41.0555745 C23.4042187,41.0638043 23.395,41.0678416 23.385625,41.0726553 C23.38375,41.0731211 23.3821875,41.0709472 23.3801562,41.0721894 C23.3754687,41.0723447 23.3707812,41.0726553 23.36625,41.0728106 C23.37125,41.069705 23.3764062,41.0681522 23.38125,41.0634938 C23.319375,40.9900466 23.241875,41.0145807 23.1657812,41.0293323 C23.1570312,41.0356988 23.1484375,41.0415994 23.1395312,41.0468789 C23.1371875,41.0470342 23.1351562,41.0443944 23.1325,41.0461025 C23.12875,41.046413 23.1251562,41.0468789 23.1214062,41.0471894 C23.1246875,41.0437733 23.1282812,41.0419099 23.13125,41.0364752 C23.0845312,40.9754503 23.0239062,40.9900466 22.9629687,41.0058851 C22.955625,41.0128727 22.9479687,41.0179969 22.9404687,41.0225 C22.9375,41.0223447 22.9348437,41.0195497 22.9317187,41.0215683 C22.928125,41.0226553 22.9242187,41.0225 22.920625,41.0229658 C22.9242187,41.0192391 22.9279687,41.0170652 22.9314062,41.0116304 C22.885625,40.9523137 22.8275,40.9639596 22.7678125,40.9836801 C22.7603125,40.9915994 22.7517187,40.9937733 22.74375,40.9987422 C22.7428125,40.9987422 22.7417187,40.9988975 22.7407812,40.9988975 C22.744375,40.9931522 22.7479687,40.9875621 22.7496875,40.976382 C22.6035937,40.9122516 22.44875,40.9015373 22.2917187,40.9051087 C22.2820312,40.9100776 22.2726562,40.9165994 22.2632812,40.9229658 C22.2610937,40.9231211 22.259375,40.9207919 22.2570312,40.9220342 C22.2540625,40.9232764 22.2507812,40.9231211 22.2476562,40.923587 C22.2503125,40.9192391 22.253125,40.9152019 22.2548437,40.9082143 C22.0945312,40.829177 21.9204687,40.8133385 21.7457812,40.8001398 C21.7314062,40.8029348 21.7171875,40.8065062 21.7028125,40.8096118 C21.6728125,40.7959472 21.6395312,40.7976553 21.6065625,40.7984317 C21.6046875,40.798587 21.6029687,40.7987422 21.6010937,40.7988975 C21.6025,40.7928416 21.6015625,40.7852329 21.599375,40.7760714 C21.5642187,40.7442391 21.5228125,40.7465683 21.480625,40.7537112 C21.4370312,40.7061957 21.3710937,40.7055745 21.3140625,40.6920652 C20.6728125,40.5429969 20.0429687,40.3575932 19.4240625,40.1338354 C18.6870312,39.8675311 17.9751562,39.5453261 17.285625,39.1759161 C16.5665625,38.7906677 15.8796875,38.3534006 15.2279687,37.863028 C15.1859375,37.8315062 15.1421875,37.8058851 15.0901562,37.8054193 C15.063125,37.7546429 15.0129687,37.7256056 14.9695312,37.6934627 C14.4820312,37.3313509 14.0520312,36.9055745 13.615625,36.4872516 C13.2476562,36.1344565 12.9051562,35.7577484 12.575,35.369705 C12.550625,35.3409783 12.5298437,35.3065062 12.4864062,35.3072826 C12.4901562,35.2417547 12.4339062,35.1984317 12.3957812,35.1516925 C11.7164062,34.3176863 11.1189062,33.4305745 10.6192187,32.4782453 C10.5001562,32.251382 10.3804687,32.0249845 10.2751562,31.7909783 C10.2535937,31.7431522 10.231875,31.690823 10.1779687,31.6760714 C10.2103125,31.561941 10.1282812,31.4808851 10.089375,31.3889596 C9.78890625,30.6782453 9.5246875,29.955264 9.32265625,29.2105435 C9.3134375,29.1759161 9.3171875,29.1246739 9.26984375,29.1117857 C9.26640625,29.0120963 9.2475,28.9152019 9.22390625,28.818618 C9.03921875,28.0620963 8.90734375,27.2968789 8.8346875,26.5215683 C8.8315625,26.4881832 8.83390625,26.450295 8.808125,26.4270031 C8.8075,26.4088354 8.80640625,26.3905124 8.80203125,26.3726553 C8.77375,26.2891149 8.78671875,26.2030901 8.7846875,26.1179969 C8.78375,26.0889596 8.78015625,26.0600776 8.773125,26.0318168 C8.74875,25.9072826 8.760625,25.7818168 8.76421875,25.6566615 C8.76609375,25.5617857 8.7628125,25.4669099 8.765,25.3720342 C8.77390625,24.9721894 8.755,24.5725 8.78296875,24.1721894 C8.7965625,23.9765373 8.83421875,23.7787112 8.8028125,23.5804193 C8.79234375,23.5636491 8.78421875,23.5462578 8.7775,23.5288665 C8.7778125,23.5246739 8.778125,23.5206366 8.7784375,23.5164441 C8.77828125,23.5138043 8.77796875,23.510854 8.7778125,23.5082143 C8.77984375,23.5102329 8.77984375,23.5125621 8.7821875,23.5144255 C8.8659375,23.4551087 8.8328125,23.3756056 8.81953125,23.2995186 C8.8115625,23.2912888 8.806875,23.2825932 8.8021875,23.2738975 C8.801875,23.271413 8.80453125,23.2692391 8.8028125,23.2667547 C8.8025,23.2620963 8.8021875,23.2575932 8.801875,23.2529348 C8.80578125,23.2575932 8.80765625,23.2624068 8.81359375,23.2665994 C8.8803125,23.2113199 8.86078125,23.1425311 8.84359375,23.0740528 C8.835625,23.0667547 8.83171875,23.0588354 8.8271875,23.0512267 C8.82703125,23.0484317 8.82984375,23.0461025 8.82796875,23.0433075 C8.82765625,23.039736 8.8275,23.0361646 8.8271875,23.0324379 C8.83171875,23.0355435 8.83640625,23.0384938 8.84328125,23.0411335 C8.89734375,22.984146 8.895,22.9245186 8.85078125,22.8631832 C8.850625,22.8610093 8.85,22.8597671 8.84984375,22.8575932 C8.9209375,22.8423758 8.90609375,22.7692391 8.9134375,22.718618 C9.04984375,21.7874068 9.25484375,20.8723447 9.55078125,19.9779348 C9.5690625,19.9225 9.584375,19.8667547 9.56953125,19.8079037 C9.5690625,19.8047981 9.568125,19.8018478 9.56765625,19.7987422 C9.6225,19.706972 9.66640625,19.6096118 9.70296875,19.5100776 C10.0510937,18.564736 10.48,17.6574379 10.9914062,16.7884938 C11.0145312,16.7488975 11.0551562,16.710854 11.029375,16.6563509 C11.0879687,16.6616304 11.1060937,16.5928416 11.1317187,16.5518478 C11.7429687,15.5721894 12.4340625,14.654177 13.2464062,13.8290217 C13.301875,13.7728106 13.3470312,13.708059 13.39875,13.6487422 C13.4217187,13.6225 13.4335937,13.5959472 13.4265625,13.5712578 C13.5270312,13.5254503 13.5825,13.4287112 13.6645312,13.3622516 C13.6846875,13.3440839 13.7032812,13.3242081 13.7220312,13.3043323 C13.7529687,13.280264 13.78125,13.2534006 13.8079687,13.2245186 C13.825625,13.211941 13.8446875,13.2009161 13.8660937,13.1928416 C13.8846875,13.1835248 13.9021875,13.1723447 13.9175,13.1583696 C14.3526562,12.758059 14.806875,12.3804193 15.2804687,12.0259161 C15.309375,12.0043323 15.3478125,11.9861646 15.35,11.9423758 C15.4364062,11.9361646 15.4960937,11.8745186 15.5610937,11.8282453 C16.4307812,11.2097671 17.3525,10.6805745 18.3275,10.2445497 C19.2792187,9.81892857 20.2623437,9.48336957 21.2807812,9.25091615 C22.4204687,8.99082298 23.5721875,8.8398913 24.7432812,8.83321429 C25.4848437,8.82902174 26.2245312,8.84718944 26.960625,8.93942547 C27.7092187,9.03321429 28.4485937,9.17312112 29.1790625,9.36395963 C30.2060937,9.63212733 31.1934375,10.0043323 32.1460937,10.4665994 C32.9595312,10.8611646 33.7346875,11.3217236 34.4682812,11.8499845 C34.5254687,11.8911335 34.5815625,11.938028 34.6535937,11.9509161 C34.6665625,11.9998292 34.7132812,12.0209472 34.749375,12.048587 C35.4621875,12.5923758 36.1384375,13.175295 36.7565625,13.8260714 C37.1565625,14.2473447 37.5345312,14.6852329 37.8915625,15.1422205 C37.9170312,15.1749845 37.9396875,15.2113199 37.9773437,15.2308851 C37.9898437,15.2374068 38.0023437,15.2422205 38.0142187,15.2445497 C38.0040625,15.2835248 38.0264062,15.3054193 38.0582812,15.3221894 C38.070625,15.3297981 38.08125,15.3388043 38.0923437,15.3473447 C38.1214062,15.3975 38.155625,15.4439286 38.195,15.4864752 C38.1989062,15.4971894 38.20375,15.506972 38.2065625,15.5183075 C38.2076562,15.5558851 38.2260937,15.5818168 38.260625,15.5967236 C38.2707812,15.6027795 38.279375,15.6099224 38.2885937,15.6165994 C38.3121875,15.660854 38.340625,15.7020031 38.3754687,15.7386491 C38.37875,15.7512267 38.3825,15.7631832 38.3835937,15.7771584 C38.3864062,15.8301087 38.4207812,15.8683075 38.4482812,15.9089907 C38.7315625,16.3276242 39.0023437,16.7540217 39.2429687,17.1987422 C39.265625,17.240823 39.284375,17.2911335 39.3428125,17.3006056 C39.3429687,17.3006056 39.3429687,17.3006056 39.343125,17.3004503 C39.311875,17.3656677 39.3639062,17.4229658 39.3925,17.4771584 C39.9392187,18.5128727 40.3654687,19.5953261 40.678125,20.7225 C40.6878125,20.7571273 40.6882812,20.801382 40.7279687,20.8189286 C40.7110937,20.8909783 40.733125,20.9596118 40.7503125,21.0282453 C40.9770312,21.9251398 41.1254687,22.8339907 41.1939062,23.7566615 C41.2098437,23.9703261 41.1929687,24.1878727 41.2507812,24.3979658 C41.2523437,24.4029348 41.2521875,24.4079037 41.2534375,24.4128727 C41.2301562,24.4611646 41.2375,24.5156677 41.2371875,24.5678416 C41.2345312,25.0465683 41.24625,25.5257609 41.20875,26.0037112 C41.1589062,26.6378727 41.0882812,27.2692391 40.9728125,27.8954814 C40.9421875,28.0614752 40.8904687,28.2245186 40.8909375,28.3956366 C40.8909375,28.3961025 40.89125,28.3965683 40.89125,28.3971894 C40.8414062,28.444705 40.85,28.5184627 40.8360937,28.5784006 C40.6021875,29.5925311 40.2721875,30.5740528 39.8453125,31.5237422 C39.8239062,31.5715683 39.7928125,31.6198602 39.8217187,31.6760714 C39.7446875,31.6953261 39.7309375,31.7773137 39.7035937,31.8374068 C39.405,32.4902019 39.0459375,33.1097671 38.658125,33.7127174 C38.2339062,34.3721894 37.754375,34.9914441 37.2426562,35.5861646 C37.2175,35.6155124 37.18625,35.6442391 37.1848437,35.680264 C37.144375,35.6818168 37.124375,35.7150466 37.0995312,35.7415994 C36.9529687,35.8992081 36.80875,36.0593012 36.6590625,36.2139596 C36.3620312,36.5207919 36.0459375,36.8074379 35.7285937,37.0929969 C35.3767187,37.4096118 35.0051562,37.7010714 34.6251562,37.9829037 C34.4284375,38.1285559 34.2254687,38.2653571 34.0257812,38.406972 L34.0257812,38.406972 Z M27.8157812,40.929177 C27.8135937,40.9290217 27.8114062,40.9287112 27.809375,40.9285559 C27.8092187,40.9279348 27.8103125,40.9282453 27.81,40.9277795 C27.8042187,40.9120963 27.8279687,40.9262267 27.8251562,40.9265373 C27.8217187,40.9280901 27.8190625,40.9279348 27.8157812,40.929177 L27.8157812,40.929177 Z M27.37125,40.9961025 C27.361875,40.9996739 27.3540625,41.0015373 27.345625,41.0040217 C27.3448437,41.0040217 27.3442187,41.0038665 27.3432812,41.0038665 C27.344375,41.0034006 27.3454687,41.0032453 27.3465625,41.0027795 C27.33625,40.989736 27.3657812,40.9970342 27.37125,40.9961025 L27.37125,40.9961025 Z M26.5195312,41.0979658 C26.5195312,41.1010714 26.5184375,41.104177 26.5135937,41.1072826 C26.5075,41.1071273 26.5010937,41.1079037 26.495,41.1082143 C26.5,41.1077484 26.505,41.106972 26.51,41.1066615 C26.5148437,41.1063509 26.5132812,41.1026242 26.5134375,41.0998292 C26.5154687,41.0992081 26.5175,41.098587 26.5195312,41.0979658 L26.5195312,41.0979658 Z M26.2217187,41.1204814 C26.2175,41.1100776 26.235,41.1223447 26.2192187,41.1316615 C26.2153125,41.1315062 26.2115625,41.1318168 26.2078125,41.1318168 C26.2098437,41.1316615 26.211875,41.1315062 26.2139062,41.1313509 C26.2221875,41.1308851 26.225,41.1273137 26.2220312,41.1220342 C26.2217187,41.1215683 26.2220312,41.1217236 26.221875,41.1211025 C26.2226562,41.1209472 26.2235937,41.1207919 26.224375,41.1204814 L26.2217187,41.1204814 Z M8.76171875,23.4243634 C8.76234375,23.4189286 8.76203125,23.4133385 8.76296875,23.4079037 C8.76390625,23.4094565 8.76328125,23.4117857 8.76390625,23.4134938 C8.763125,23.4170652 8.76265625,23.4207919 8.76171875,23.4243634 L8.76171875,23.4243634 Z M8.7903125,23.154177 C8.79,23.1555745 8.78953125,23.156972 8.78921875,23.1585248 C8.79015625,23.1471894 8.7909375,23.1363199 8.791875,23.123587 C8.7921875,23.1349224 8.79109375,23.1442391 8.7903125,23.154177 L8.7903125,23.154177 Z M49.9785938,23.9304193 C49.9784375,23.9305745 49.9784375,23.9307298 49.9782813,23.9308851 L49.9782813,23.9304193 C49.9425,23.1616304 49.8778125,22.3951708 49.7715625,21.6327484 C49.724375,21.2939286 49.6839063,20.9534006 49.60375,20.619705 L49.60375,20.6190839 C49.60125,20.5861646 49.6015625,20.5527795 49.5953125,20.5204814 C49.4082813,19.5195497 49.16875,18.5313509 48.858125,17.560854 C48.786875,17.3383385 48.7329688,17.1094565 48.625,16.8996739 C48.625,16.8995186 48.625,16.8993634 48.625,16.8992081 C48.5995313,16.8530901 48.5823437,16.8043323 48.5767188,16.7521584 C48.5765625,16.7520031 48.5765625,16.7518478 48.5765625,16.7516925 C48.5623438,16.6509161 48.5245313,16.5582143 48.4784375,16.4684627 C48.2923438,15.9257609 48.0767188,15.3951708 47.82875,14.8774689 C47.82875,14.8776242 47.82875,14.8777795 47.8285938,14.8780901 C47.8285938,14.8776242 47.82875,14.8774689 47.8285938,14.8771584 C47.8229688,14.8575932 47.819375,14.836941 47.8110938,14.8184627 C47.3554688,13.813028 46.8353125,12.8415994 46.2495313,11.9049534 C46.2370313,11.8850776 46.2296875,11.8588354 46.2003125,11.8544876 C46.2003125,11.8546429 46.2001563,11.8546429 46.2001563,11.8547981 C46.2001563,11.8546429 46.2001563,11.8546429 46.2001563,11.8544876 C45.9707813,11.5007609 45.7501563,11.1411335 45.5101563,10.794705 C44.9076563,9.92529503 44.2439062,9.10324534 43.5295312,8.32203416 C43.1521875,7.90930124 42.76875,7.50184783 42.3535938,7.12545031 C42.3535938,7.12529503 42.3534375,7.12529503 42.3534375,7.12513975 C41.9228125,6.70060559 41.4753125,6.29454969 41.0003125,5.91923913 C41.0003125,5.91923913 41.0001563,5.91908385 41.0001563,5.91908385 L41.0001563,5.91908385 C40.9751563,5.88290373 40.9420313,5.85604037 40.9020313,5.83725155 L40.9020313,5.83740683 C40.51,5.50200311 40.1026563,5.18647516 39.676875,4.89439441 L39.676875,4.89439441 C39.6517188,4.8732764 39.6278125,4.85045031 39.6010937,4.83135093 C38.1570312,3.79734472 36.6204688,2.92467391 34.9885937,2.21830745 C32.1376562,0.984301242 29.1571875,0.309456522 26.0515625,0.176537267 L26.0514062,0.176537267 C26.0514062,0.176537267 26.0515625,0.176537267 26.0515625,0.176381988 C26.0509375,0.16939441 26.0504688,0.162251553 26.05,0.155108696 L25.875,0.155108696 L25.675,0.155108696 L25.425,0.155108696 L24.575,0.155108696 C24.4917187,0.155108696 24.4082812,0.155108696 24.3248437,0.155108696 L24.3248437,0.155108696 L24.125,0.155108696 C24.0667187,0.155108696 24.0082812,0.155108696 23.95,0.155108696 C23.949375,0.162406832 23.9489063,0.169549689 23.9484375,0.176537267 C22.7403125,0.227158385 21.54125,0.359767081 20.3532812,0.583524845 C17.27375,1.16364907 14.40375,2.27840062 11.7464063,3.93119565 C11.2595313,4.2338354 10.7782813,4.54517081 10.3229688,4.89439441 C9.8971875,5.18631988 9.4896875,5.50184783 9.09796875,5.83740683 C9.09796875,5.83756211 9.0978125,5.83756211 9.09765625,5.83771739 C9.09765625,5.83756211 9.0978125,5.83756211 9.0978125,5.83740683 C9.0640625,5.86427019 9.03046875,5.89128882 8.99703125,5.91815217 L8.9971875,5.91815217 C8.9221875,5.98119565 8.8471875,6.04439441 8.7721875,6.10743789 C8.7721875,6.10759317 8.77203125,6.10759317 8.771875,6.10774845 C8.77203125,6.10759317 8.77203125,6.10759317 8.77203125,6.10743789 C8.73875,6.13554348 8.70546875,6.16349379 8.67234375,6.19159938 C8.6725,6.19159938 8.6725,6.19159938 8.67265625,6.19159938 C8.6725,6.19159938 8.6725,6.19159938 8.6725,6.19159938 C8.57375,6.28088509 8.45859375,6.35153727 8.3721875,6.45464286 C8.3721875,6.45479814 8.37203125,6.45479814 8.371875,6.45495342 C8.37203125,6.45479814 8.37203125,6.45479814 8.37203125,6.45464286 C8.33921875,6.48305901 8.3065625,6.51147516 8.27390625,6.54004658 L8.2740625,6.54004658 C8.2040625,6.58243789 8.1503125,6.64206522 8.09703125,6.70246894 C8.096875,6.70262422 8.09671875,6.7027795 8.09671875,6.70293478 C8.09671875,6.70262422 8.096875,6.70246894 8.096875,6.70231366 C8.05578125,6.73927019 8.01453125,6.77622671 7.9734375,6.81302795 C7.97359375,6.81302795 7.97375,6.81287267 7.9740625,6.81287267 C7.97390625,6.81302795 7.97375,6.81302795 7.97359375,6.81318323 C7.85359375,6.90526398 7.74953125,7.01395963 7.64671875,7.12389752 C7.64671875,7.1240528 7.64671875,7.1240528 7.64671875,7.12420807 C7.64671875,7.1240528 7.6465625,7.12389752 7.6465625,7.12374224 C7.61546875,7.15091615 7.58296875,7.17669255 7.5534375,7.20541925 C6.745625,7.98849379 5.9921875,8.82017081 5.29875,9.70479814 C4.966875,10.1280901 4.63875,10.5543323 4.34828125,11.0077484 C4.348125,11.0082143 4.34796875,11.0086801 4.34765625,11.009146 C4.3478125,11.0086801 4.3478125,11.0085248 4.34796875,11.008059 C4.31796875,11.0470342 4.2853125,11.0843012 4.25859375,11.1254503 C4.0240625,11.4866304 3.78734375,11.8465683 3.55796875,12.2110093 C3.4546875,12.3751398 3.36671875,12.5487422 3.27171875,12.7181522 C3.2715625,12.718618 3.27125,12.7190839 3.27109375,12.7195497 C3.2453125,12.7625621 3.219375,12.8055745 3.19375,12.8484317 C3.19359375,12.848587 3.1934375,12.8488975 3.193125,12.8490528 C3.16703125,12.8737422 3.15015625,12.9032453 3.14640625,12.9392702 C3.14640625,12.9394255 3.14625,12.9395807 3.14625,12.939736 C3.1203125,12.984146 3.094375,13.0282453 3.06859375,13.0723447 C3.0684375,13.0723447 3.0684375,13.0725 3.06828125,13.0726553 C3.0425,13.0979658 3.02484375,13.1274689 3.02171875,13.1642702 C2.97890625,13.2412888 2.93609375,13.3184627 2.893125,13.3954814 C2.86765625,13.4225 2.84859375,13.4523137 2.8471875,13.4906677 C2.82578125,13.5257609 2.80234375,13.5597671 2.7834375,13.5961025 C2.4746875,14.1872516 2.19046875,14.7900466 1.933125,15.4049534 C1.78640625,15.7557298 1.63546875,16.1051087 1.52171875,16.468618 L1.52171875,16.4684627 C1.31578125,16.9746739 1.15609375,17.4961025 1.001875,18.0192391 C0.88859375,18.4037112 0.77328125,18.788028 0.6984375,19.1824379 L0.6984375,19.1825932 C0.69828125,19.1825932 0.69828125,19.1824379 0.69828125,19.1824379 C0.59375,19.5260714 0.52953125,19.8790217 0.46140625,20.2305745 C0.3759375,20.6718789 0.2878125,21.113028 0.2471875,21.5614752 C0.2396875,21.5933075 0.2296875,21.6246739 0.2253125,21.656972 C0.121875,22.4035559 0.0603125,23.1538665 0.0215625,23.9060404 C0.014375,23.9054193 0.0071875,23.9057298 0,23.9068168 L0,24.0558851 L0.0021875,24.0555745 C0.00140625,24.0558851 0.00078125,24.0555745 0,24.0558851 L0,24.2794876 L0,24.5279348 L0,25.3975 L0,25.6211025 L0,25.7701708 L0,25.9689286 L0,26.0931522 L0.010625,26.0943944 L0.02140625,26.0940839 C0.0215625,26.0939286 0.0215625,26.0937733 0.02171875,26.093618 L0.02171875,26.0942391 C0.050625,26.6516925 0.08890625,27.2085248 0.1534375,27.763028 C0.19875,28.1523137 0.23828125,28.5426863 0.319375,28.9271584 C0.319375,28.9271584 0.31953125,28.9271584 0.31953125,28.9273137 C0.319375,28.9271584 0.31921875,28.9271584 0.3190625,28.9270031 C0.37765625,29.415823 0.48234375,29.8965683 0.58828125,30.3762267 C0.68546875,30.8153571 0.78296875,31.2549534 0.92390625,31.683059 C0.9240625,31.683059 0.9240625,31.683059 0.92421875,31.6832143 C0.929375,31.7114752 0.93203125,31.7405124 0.93984375,31.7678416 C1.09109375,32.3051087 1.2609375,32.8366304 1.45171875,33.3611646 C1.63953125,33.8776242 1.8321875,34.3923758 2.066875,34.8903571 C2.07375,34.911941 2.08171875,34.9311957 2.0909375,34.9488975 C2.22078125,35.2743634 2.3753125,35.5891149 2.53046875,35.9029348 C2.85453125,36.5582143 3.196875,37.2037112 3.58953125,37.8218789 L3.5896875,37.8218789 C3.60921875,37.8579037 3.62734375,37.8950155 3.64890625,37.9301087 C3.9953125,38.4961025 4.36421875,39.0471894 4.7575,39.5821273 C5.064375,39.9992081 5.3740625,40.414736 5.71796875,40.8034006 L5.7184375,40.8034006 C5.7184375,40.8035559 5.71828125,40.8035559 5.718125,40.8037112 C5.74265625,40.836941 5.765625,40.8711025 5.79203125,40.9026242 C6.31109375,41.5221894 6.8590625,42.1155124 7.43734375,42.6810404 C7.8359375,43.0706366 8.24203125,43.4526242 8.6721875,43.8085248 C8.70546875,43.8364752 8.73890625,43.8645807 8.77234375,43.8926863 C8.86140625,43.9822826 8.95984375,44.0606988 9.06265625,44.1339907 C9.09,44.1593012 9.1159375,44.1860093 9.1446875,44.2094565 C11.6607813,46.2561957 14.4678125,47.7672205 17.5729688,48.729177 C19.6335938,49.3675311 21.7439063,49.7237422 23.8990625,49.8229658 C23.8998437,49.830264 23.9001562,49.8374068 23.9,49.844705 L24.075,49.844705 L24.3,49.844705 L24.575,49.844705 L25.425,49.844705 L25.6998437,49.844705 C25.700625,49.8431522 25.7,49.8419099 25.7004687,49.8402019 C25.7004687,49.8417547 25.7001562,49.8433075 25.7,49.844705 L25.925,49.844705 L26.1,49.844705 C26.0998437,49.8374068 26.1001563,49.830264 26.1009375,49.8229658 C26.4621875,49.7982764 26.82375,49.7774689 27.1846875,49.7482764 C28.3810937,49.6520031 29.5632812,49.4627174 30.7309375,49.1886491 C34.0929687,48.3996739 37.1592188,46.9773137 39.9307812,44.9284006 C40.2746875,44.6742081 40.616875,44.4175311 40.9375,44.1339907 L40.9373438,44.1339907 C41.033125,44.0501398 41.1290625,43.9662888 41.2257813,43.8827484 C41.2264063,43.8824379 41.226875,43.8818168 41.2275,43.8815062 C41.2707813,43.8738975 41.2979688,43.8462578 41.3176563,43.8096118 C41.3185938,43.8089907 41.3195313,43.8082143 41.3203125,43.8075932 C41.4220313,43.7170652 41.5239063,43.626382 41.625625,43.5356988 L41.6267188,43.5349224 C41.6720313,43.5280901 41.6960938,43.4940839 41.7209375,43.4611646 C41.7217188,43.4603882 41.7226563,43.4597671 41.7234375,43.459146 C41.7525,43.4364752 41.7832813,43.4153571 41.810625,43.3905124 C42.2740625,42.9687733 42.72625,42.5355435 43.15625,42.0799534 C43.5459375,41.6670652 43.9323438,41.2512267 44.2828125,40.8038665 C44.2826563,40.8037112 44.2823438,40.8035559 44.2821875,40.8034006 C44.296875,40.7891149 44.313125,40.7765373 44.3259375,40.760854 C44.8939063,40.0745186 45.4229688,39.3597671 45.9135938,38.6169099 C45.9290625,38.593618 45.9529688,38.5729658 45.9489063,38.5405124 C46.2179688,38.1044876 46.5146875,37.6861646 46.7628125,37.2372516 C47.0404688,36.7352329 47.3225,36.2350776 47.5559375,35.7102329 C47.5776562,35.6706366 47.6015625,35.6321273 47.6207813,35.5914441 C48.03375,34.7201708 48.3976562,33.8294876 48.703125,32.9152019 C48.8390625,32.5082143 48.9789063,32.1023137 49.0757813,31.6833696 C49.0757813,31.6833696 49.075625,31.6833696 49.075625,31.6832143 L49.0757813,31.6832143 C49.0839062,31.664736 49.0942188,31.6467236 49.0996875,31.6274689 C49.2639063,31.0431522 49.4051563,30.4534006 49.5217188,29.858059 C49.614375,29.3847671 49.7079688,28.9111646 49.7553125,28.430264 C49.7553125,28.4301087 49.7553125,28.4301087 49.7553125,28.4301087 C49.7614063,28.4066615 49.77,28.3833696 49.7732813,28.3594565 C49.8764063,27.5995186 49.9426563,26.8360093 49.9785938,26.0698602 L49.9785938,26.0693944 L49.989375,26.0698602 L50,26.0683075 L50,25.8695497 L50,25.6956366 L50,25.4223447 L50,24.5776242 L50,24.3043323 L50,24.304177 L50,24.1304193 L50,23.9316615 C49.9929688,23.9297981 49.9857813,23.9294876 49.9785938,23.9304193 L49.9785938,23.9304193 Z" id="Fill-1" fill="#FFFFFF" mask="url(#mask-3)"></path>
            </g>
            <path d="M32.6318166,23.0721478 C32.6353907,23.0744674 32.6384985,23.0770963 32.6425387,23.0791066 C32.6411402,23.082354 32.6395863,23.0849829 32.6383431,23.0888489 C32.6361676,23.0832818 32.6339921,23.0777148 32.6318166,23.0721478 L32.6318166,23.0721478 Z M36.216414,25.7129255 C36.2162586,25.7132348 36.2162586,25.7133894 36.2161032,25.7135441 C36.2161032,25.7133894 36.2161032,25.7132348 36.2162586,25.7129255 C36.2133061,25.7075132 36.2126845,25.7016369 36.2103537,25.6960698 C36.2123738,25.6962245 36.2143939,25.6966884 36.2168801,25.696843 C36.2167247,25.7022554 36.2165694,25.7076678 36.216414,25.7129255 L36.216414,25.7129255 Z M33.8903416,33.4353099 C34.0960815,33.2151034 34.2733844,32.9732473 34.435459,32.7201025 C34.4362359,32.7193293 34.4368575,32.7187108 34.4376345,32.7177829 C34.4494443,32.7064943 34.4638958,32.6969066 34.4725978,32.6836076 C35.127267,31.7069049 35.6086734,30.6527278 35.8969267,29.5134991 C35.9645225,29.2469007 36.0431512,28.9826219 36.0706557,28.7073637 C36.0705003,28.7073637 36.0703449,28.7073637 36.0701895,28.707209 L36.0706557,28.707209 C36.0788915,28.684477 36.0903905,28.6620543 36.0945861,28.6383945 C36.2450062,27.7815373 36.2928671,26.9177214 36.2684705,26.0492663 C36.2667612,25.9920497 36.2681597,25.9340599 36.245317,25.8794722 C36.2457832,25.7784927 36.2602347,25.676276 36.2202988,25.5786985 L36.2202988,25.5794717 C36.2201434,25.5791624 36.2202988,25.5788531 36.2201434,25.5786985 C36.2283792,25.3218424 36.177255,25.0703987 36.1410485,24.8186456 C36.0990925,24.5266864 36.0565149,24.2336446 35.9721367,23.9492627 C35.921168,23.610757 35.8318172,23.2818389 35.7252178,22.9572507 C35.7252178,22.9572507 35.7252178,22.9570961 35.7253732,22.9569414 C35.6451906,22.6456522 35.5555291,22.3374558 35.4265532,22.0420945 C35.342952,21.7632796 35.2091589,21.5067327 35.0773859,21.2492581 C35.0773859,21.2494127 35.0773859,21.2495673 35.0772306,21.249722 C35.0772306,21.2495673 35.0772306,21.2494127 35.0772306,21.2494127 C34.9386203,20.9268348 34.7597634,20.6289993 34.5294715,20.3628648 L34.5294715,20.3628648 C34.5294715,20.3628648 34.5293161,20.3627102 34.5293161,20.3627102 C34.0803868,19.7772452 33.4990629,19.5117293 32.7572185,19.6391522 C32.4582431,19.6903379 32.1850628,19.7945648 31.9886465,20.0416787 C31.9886465,20.0418333 31.9886465,20.0418333 31.9884911,20.041988 C31.9690671,20.0624004 31.9473121,20.0812664 31.9306851,20.1036891 C31.7379982,20.3613184 31.678172,20.660855 31.645695,20.9718349 C31.5877335,21.5238977 31.7972028,21.9759088 32.1574029,22.3751878 C32.274569,22.5530232 32.4341572,22.7010131 32.5273928,22.8960135 L32.5273928,22.8960135 C32.5937455,23.0610138 32.6600981,23.2258594 32.7262954,23.3905504 C32.7262954,23.390705 32.7264508,23.390705 32.7264508,23.390705 C32.7780411,23.5549321 32.8296315,23.7191592 32.8812218,23.883077 C32.9551887,24.2382838 33.029311,24.5931813 33.1032779,24.9482335 C33.1286069,25.1458627 33.1539359,25.3434919 33.1794203,25.5409665 L33.1795757,25.5409665 C33.1794203,25.5613789 33.1775556,25.5821006 33.1795757,25.602513 C33.2435975,26.2768956 33.2394019,26.9498864 33.1609286,27.6239597 C33.0714224,28.3931363 32.8754723,29.1310757 32.569038,29.8422625 C32.4256106,30.1755105 32.2394502,30.4855626 32.0623026,30.8008724 C31.7799542,31.1970587 31.4856406,31.5819562 31.1349194,31.9237094 C30.8292621,32.2216996 30.4919047,32.4777825 30.1481762,32.7278345 L30.1480208,32.7281438 C30.1478654,32.7281438 30.1478654,32.7279891 30.14771,32.7278345 C29.9794198,32.8243295 29.809731,32.9185049 29.6538722,33.0347938 C29.6344481,33.0395876 29.6131593,33.0405154 29.5960661,33.0494845 C28.4247164,33.6751557 27.160442,33.9691253 25.8465972,34.0654657 C25.108016,34.1194348 24.3674147,34.1355173 23.6269688,34.0538677 C22.9054808,33.9745377 22.2021737,33.8265477 21.5181354,33.5842277 C21.1078988,33.4391759 20.7187956,33.2489694 20.3328003,33.0514948 C20.3328003,33.0514948 20.3328003,33.0514948 20.3328003,33.0516495 C20.3328003,33.0514948 20.3326449,33.0514948 20.3326449,33.0514948 C19.9741541,32.8306697 19.6240545,32.5984013 19.2994393,32.329174 C19.009632,32.0888643 18.7532342,31.8154618 18.4943501,31.5443789 C18.4941947,31.5440696 18.4940393,31.5439149 18.4940393,31.5436057 C18.3719007,31.3832446 18.2441679,31.2264402 18.129022,31.0615945 C17.2412639,29.7972624 16.8063199,28.3881879 16.7777276,26.8504533 C16.7687149,26.3642669 16.7831664,25.8783897 16.8056983,25.3925126 C16.8053875,25.392358 16.8052321,25.392358 16.8049213,25.3922033 C16.8456342,25.1200379 16.8861917,24.8475632 16.9267492,24.5753978 C16.9702591,24.4029748 17.0134583,24.2308611 17.0568128,24.0584382 L17.0569682,24.0584382 C17.1405694,23.8275615 17.2241707,23.5968394 17.3077719,23.3659627 C17.3079273,23.3656535 17.3080827,23.3651895 17.3082381,23.3647256 C17.6319209,22.9131785 17.8876972,22.4286931 17.9969382,21.8808055 C18.0598723,21.5654957 18.0200917,21.2529694 17.8987301,20.9531235 C17.8985747,20.9531235 17.8985747,20.9532782 17.8984193,20.9532782 C17.8984193,20.9532782 17.8985747,20.9531235 17.8985747,20.9531235 C17.8775967,20.8532265 17.836573,20.7626077 17.7723959,20.6825045 C17.7723959,20.6823499 17.7723959,20.6821952 17.7723959,20.6821952 C17.7198732,20.5668342 17.6462171,20.4670918 17.5484751,20.3854421 C17.508073,20.3271431 17.4533748,20.2833801 17.3961903,20.2431739 C16.94291,19.9239981 16.4405256,19.8547196 15.907995,19.9654414 C15.6206741,20.0251323 15.3782615,20.1656995 15.2051542,20.4092566 C15.0781984,20.535597 14.9927324,20.6871437 14.9313523,20.853845 L14.9313523,20.8536904 C14.8796066,20.9204946 14.8472849,20.9956494 14.8311241,21.0779176 C14.8311241,21.0779176 14.8311241,21.0780722 14.8311241,21.0782268 C14.7296527,21.3022994 14.6454299,21.5322482 14.5820297,21.7699291 C14.5820297,21.7699291 14.5821851,21.7699291 14.5821851,21.7700837 L14.5820297,21.7700837 C14.477295,22.0176614 14.3992879,22.2743629 14.3346446,22.535085 C14.2787033,22.6447244 14.2538404,22.7634875 14.2345718,22.883797 L14.2345718,22.883797 C14.1506597,23.1114262 14.1021772,23.3483338 14.0502761,23.584159 C13.9716474,23.9407575 13.8899109,24.2972014 13.8628726,24.6627691 C13.8580554,24.6749856 13.8560353,24.6872021 13.8565015,24.699264 C13.7986954,24.9989552 13.7687046,25.30143 13.7629551,25.6065336 L13.7627997,25.6065336 C13.7175805,25.9663796 13.7236408,26.3280812 13.7295457,26.6890097 C13.7368491,27.1448868 13.7708801,27.5996814 13.8381651,28.0513832 C13.8997006,28.4639612 13.9637224,28.8762299 14.0808884,29.2781378 L14.0808884,29.2781378 C14.0843071,29.3025709 14.0853948,29.3274678 14.0914551,29.3511277 C14.3842149,30.4936039 14.842157,31.5652552 15.4875026,32.5551022 C15.7709387,32.9896391 16.0821902,33.4037635 16.4400594,33.7815476 C16.4607266,33.8070632 16.4799953,33.8338158 16.5020611,33.8579395 C17.136063,34.5487139 17.8592604,35.1312407 18.6638834,35.6138704 C19.0201987,35.8275821 19.3821082,36.0320154 19.7718329,36.1821703 C19.7733868,36.1826342 19.7750962,36.1829435 19.7768055,36.1835621 C19.7750962,36.1832528 19.7736976,36.1824796 19.7719883,36.1821703 C20.0144008,36.3156242 20.2749943,36.4080986 20.5346554,36.500109 C22.2955647,37.1248524 24.1125708,37.3342342 25.973553,37.2289247 C27.0600583,37.1672236 28.1195253,36.971914 29.1500893,36.6258309 C29.5634337,36.4871193 29.9752242,36.3420675 30.3598209,36.132995 C30.3601317,36.1328403 30.3604425,36.1328403 30.3605979,36.1326857 C30.3764479,36.1285104 30.3932303,36.1271187 30.4078372,36.1203146 C31.4982274,35.6059838 32.4680328,34.920931 33.3225369,34.0738162 C33.3825185,34.0145893 33.4529113,33.9604655 33.4858546,33.8774241 C33.4930026,33.870156 33.5001507,33.862888 33.5065218,33.8556199 C33.5076095,33.8543828 33.5086973,33.8533003 33.509785,33.8520632 C33.5090081,33.8533003 33.5080757,33.8542282 33.5072988,33.8554653 C33.661759,33.7393311 33.7728648,33.5842277 33.8911186,33.4351553 C33.8898754,33.4359285 33.8890985,33.437011 33.8880107,33.4376295 C33.8887877,33.437011 33.8894092,33.4360831 33.8903416,33.4353099 L33.8903416,33.4353099 Z" id="Fill-4" fill="#FFFFFF"></path>
            <path d="M24.4004885,25.488446 C24.7987363,25.4909885 25.1969841,25.4905118 25.595232,25.4886049 C26.1279231,25.4860624 26.4679583,25.1401208 26.4681123,24.5936381 C26.4696523,20.9459173 26.4696523,17.2981966 26.4687283,13.6504758 C26.4687283,13.5678439 26.4818185,13.4812394 26.4385441,13.4030569 C26.43839,13.402898 26.4385441,13.4027391 26.43839,13.4025802 C26.3777135,13.0723705 26.1043608,12.7941235 25.7872718,12.7707641 C25.287537,12.7337387 24.7856462,12.7415252 24.2859114,12.7642489 C23.9146139,12.7810931 23.6317131,13.0451973 23.5761186,13.371911 C23.5350002,13.4615349 23.5299182,13.5581506 23.5297642,13.6542896 C23.5293022,17.2977199 23.5291482,20.941309 23.5302262,24.5847393 C23.5303802,25.1267726 23.8768835,25.4851089 24.4004885,25.488446 L24.4004885,25.488446 Z" id="Fill-6" fill="#FFFFFF"></path>
        </g>
    </g>
</svg>