<?xml version="1.0" encoding="UTF-8"?>
<svg width="64px" height="64px" viewBox="0 0 64 64" version="1.1" xmlns="http://www.w3.org/2000/svg" xmlns:xlink="http://www.w3.org/1999/xlink">
    <!-- Generator: Sketch 53 (72520) - https://sketchapp.com -->
    <title>Monacoin</title>
    <desc>Created with Sketch.</desc>
    <defs>
        <linearGradient x1="100%" y1="0%" x2="0%" y2="100%" id="linearGradient-1">
            <stop stop-color="#767FFF" offset="0%"></stop>
            <stop stop-color="#5560FF" offset="100%"></stop>
        </linearGradient>
        <polygon id="path-2" points="0 0 62 0 62 61.9999 0 61.9999"></polygon>
    </defs>
    <g id="Monacoin" stroke="none" stroke-width="1" fill="none" fill-rule="evenodd">
        <circle id="Oval" fill="url(#linearGradient-1)" cx="32" cy="32" r="32"></circle>
        <g id="Group-34" transform="translate(1.000000, 1.000000)">
            <path d="M30.9419,51.7529 C19.4479,51.7529 10.1309,42.4359 10.1309,30.9419 C10.1309,19.4479 19.4479,10.1309 30.9419,10.1309 C42.4359,10.1309 51.7529,19.4479 51.7529,30.9419 C51.7529,42.4359 42.4359,51.7529 30.9419,51.7529 M30.9419,9.3039 C18.9919,9.3039 9.3039,18.9919 9.3039,30.9419 C9.3039,42.8929 18.9919,52.5799 30.9419,52.5799 C42.8919,52.5799 52.5799,42.8929 52.5799,30.9419 C52.5799,18.9919 42.8919,9.3039 30.9419,9.3039" id="Fill-1" fill="#FFFFFF"></path>
            <g id="Group-5">
                <mask id="mask-3" fill="white">
                    <use xlink:href="#path-2"></use>
                </mask>
                <g id="Clip-4"></g>
                <path d="M31,61.1729 C14.336,61.1729 0.827,47.6639 0.827,30.9999 C0.827,14.3359 14.336,0.8269 31,0.8269 C47.664,0.8269 61.173,14.3359 61.173,30.9999 C61.173,47.6639 47.664,61.1729 31,61.1729 M31,-0.0001 C13.879,-0.0001 0,13.8799 0,30.9999 C0,48.1209 13.879,61.9999 31,61.9999 C48.121,61.9999 62,48.1209 62,30.9999 C62,13.8799 48.121,-0.0001 31,-0.0001" id="Fill-3" fill="#FFFFFF" mask="url(#mask-3)"></path>
            </g>
            <polygon id="Fill-6" fill="#FFFFFF" points="53.2866 27.8306 59.3616 26.5966 59.1206 25.4126 53.0466 26.6456"></polygon>
            <polygon id="Fill-8" fill="#FFFFFF" points="14.2979 15.522 10.9899 12.918 11.0009 12.906 16.4239 13.021 16.9629 12.336 11.9949 8.426 11.2479 9.375 14.5229 11.954 14.5129 11.966 9.0899 11.851 8.5499 12.536 13.5499 16.472"></polygon>
            <path d="M49.8247,13.3301 C50.5247,12.6121 51.7137,12.3581 52.5317,13.1561 C53.3497,13.9541 53.1267,15.1481 52.4267,15.8671 C51.7617,16.5491 50.5987,17.0591 49.6397,16.1231 C48.6797,15.1881 49.1587,14.0131 49.8247,13.3301 M53.2877,16.7741 C54.5727,15.4551 54.6887,13.5931 53.3637,12.3021 C52.0387,11.0111 50.1807,11.1741 48.8947,12.4931 C47.6217,13.8001 47.4537,15.6571 48.8077,16.9771 C50.1617,18.2971 52.0137,18.0811 53.2877,16.7741" id="Fill-10" fill="#FFFFFF"></path>
            <polygon id="Fill-12" fill="#FFFFFF" points="52.624 36.8389 56.749 37.6809 56.746 37.6959 51.848 40.0289 51.674 40.8829 57.869 42.1459 58.11 40.9619 54.026 40.1289 54.029 40.1129 58.927 37.7799 59.101 36.9269 52.866 35.6549"></polygon>
            <path d="M39.3736,9.8076 C39.8606,9.9276 40.3366,9.8836 40.8276,9.7836 L41.1706,8.3866 C40.7506,8.6816 40.1836,8.8216 39.6806,8.6976 C38.5866,8.4286 38.1656,7.2496 38.4146,6.2356 C38.6696,5.1976 39.5716,4.3196 40.6976,4.5966 C41.2006,4.7196 41.6366,5.0806 41.8656,5.5606 L42.2106,4.1556 C41.8586,3.8316 41.4276,3.5906 40.9566,3.4746 C39.1916,3.0406 37.6156,4.2526 37.1946,5.9616 C36.7866,7.6216 37.6806,9.3906 39.3736,9.8076" id="Fill-14" fill="#FFFFFF"></path>
            <path d="M25.1572,4.1694 L26.5922,6.0704 L25.1932,6.5274 L25.1412,4.1744 L25.1572,4.1694 Z M25.1712,7.5724 L27.2192,6.9034 L28.0782,7.9984 L29.3052,7.5964 L25.0932,2.2794 L24.2022,2.5704 L23.8822,9.3694 L25.0932,8.9734 L25.1712,7.5724 Z" id="Fill-16" fill="#FFFFFF"></path>
            <polygon id="Fill-18" fill="#FFFFFF" points="7.4976 42.8184 7.4896 42.8044 10.1366 39.5984 9.9176 39.2414 5.8306 40.0894 5.8226 40.0754 8.8496 37.6484 8.2156 36.6104 3.2686 40.7194 3.7226 41.4634 7.9726 40.5834 5.2816 44.0174 5.7276 44.7474 11.7026 42.3224 11.0686 41.2834"></polygon>
            <path d="M3.585,25.5898 C3.663,24.4498 4.718,23.8458 5.719,23.9148 C6.67,23.9798 7.811,24.5358 7.719,25.8728 C7.627,27.2098 6.422,27.6058 5.471,27.5398 C4.47,27.4718 3.507,26.7298 3.585,25.5898 M8.908,25.9538 C9.038,24.0678 7.674,22.7958 5.853,22.6718 C4.016,22.5458 2.522,23.6628 2.396,25.5078 C2.27,27.3538 3.597,28.6648 5.435,28.7898 C7.255,28.9148 8.779,27.8408 8.908,25.9538" id="Fill-20" fill="#FFFFFF"></path>
            <path d="M40.7168,56.6221 L41.1478,54.3731 L41.1598,54.3691 L41.7548,56.3031 L40.7168,56.6221 Z M43.1608,55.8711 L42.6448,56.0291 L41.6198,52.6961 L40.7558,52.9621 L39.7168,57.2961 L39.8478,57.7221 L41.9888,57.0631 L42.2528,57.9211 L43.1418,57.6471 L42.8788,56.7901 L43.3948,56.6321 L43.1608,55.8711 Z" id="Fill-22" fill="#FFFFFF"></path>
            <polygon id="Fill-24" fill="#FFFFFF" points="33.2725 54.6982 33.2835 55.5612 33.9515 55.5522 34.0055 59.7752 34.9975 59.7622 34.9315 54.6772"></polygon>
            <path d="M21.8486,52.2266 C20.9626,51.6706 20.0876,52.0136 19.5106,52.8066 L20.4026,53.3656 C20.5896,53.0296 21.0186,52.7246 21.3956,52.9606 C21.7506,53.1836 21.7066,53.6976 21.5136,54.0056 C21.2086,54.4926 20.1046,54.8426 19.5656,55.0306 L17.6006,55.7256 L20.5046,57.5446 L20.9626,56.8136 L19.5516,55.9286 L20.6476,55.5896 C21.3286,55.3786 21.9806,55.1266 22.3786,54.4936 C22.8726,53.7046 22.6376,52.7206 21.8486,52.2266" id="Fill-26" fill="#FFFFFF"></path>
            <path d="M27.981,57.083 C27.845,57.57 27.355,58.8 26.673,58.609 C25.997,58.421 26.208,57.113 26.344,56.626 C26.481,56.133 26.973,54.925 27.648,55.113 C28.331,55.304 28.119,56.59 27.981,57.083 M27.88,54.282 C26.568,53.916 25.698,55.326 25.404,56.378 C25.112,57.424 25.141,59.078 26.44,59.44 C27.74,59.804 28.621,58.403 28.913,57.357 C29.207,56.305 29.193,54.648 27.88,54.282" id="Fill-28" fill="#FFFFFF"></path>
            <polygon id="Fill-30" fill="#FFFFFF" points="31.2886 36.8018 33.1146 33.7168 29.5346 33.7168"></polygon>
            <path d="M40.3364,31.2251 L37.9704,29.2061 L39.9954,29.2061 L41.4764,31.2251 L40.3364,31.2251 Z M31.2664,39.4611 L26.5674,31.2011 L27.7284,30.5401 L28.7754,32.3801 L33.9094,32.3801 L35.0034,30.5321 L36.1514,31.2131 L31.2664,39.4611 Z M21.9174,31.4581 L20.7864,31.4581 L22.6184,29.2061 L24.3984,29.2061 L21.9174,31.4581 Z M43.6824,26.7091 L41.2644,15.8361 L36.5124,23.3191 C32.8194,22.4291 28.9664,22.4291 25.2724,23.3191 L20.5314,15.8361 L18.1044,26.7091 C15.4944,28.7921 13.9044,31.5141 13.9044,34.5011 C13.9044,41.0441 21.5074,46.3501 30.8864,46.3501 C40.2664,46.3501 47.8694,41.0441 47.8694,34.5011 C47.8674,31.5141 46.2894,28.7921 43.6824,26.7091 L43.6824,26.7091 Z" id="Fill-32" fill="#FFFFFF"></path>
        </g>
    </g>
</svg>