<?xml version="1.0" encoding="UTF-8"?>
<svg width="64px" height="64px" viewBox="0 0 64 64" version="1.1" xmlns="http://www.w3.org/2000/svg" xmlns:xlink="http://www.w3.org/1999/xlink">
    <!-- Generator: Sketch 52.6 (67491) - http://www.bohemiancoding.com/sketch -->
    <title>Coin / NOAH Noah</title>
    <desc>Created with Sketch.</desc>
    <defs>
        <linearGradient x1="100%" y1="0%" x2="0%" y2="100%" id="linearGradient-1">
            <stop stop-color="#767FFF" offset="0%"></stop>
            <stop stop-color="#5560FF" offset="100%"></stop>
        </linearGradient>
        <polygon id="path-2" points="0 0.0855519481 49.9329058 0.0855519481 49.9329058 49.3506004 0 49.3506004"></polygon>
    </defs>
    <g id="Coin-/-NOAH-Noah" stroke="none" stroke-width="1" fill="none" fill-rule="evenodd">
        <circle id="Oval" fill="url(#linearGradient-1)" cx="32" cy="32" r="32"></circle>
        <g id="Group-16" transform="translate(7.000000, 7.000000)">
            <g id="Group-3" transform="translate(0.000000, 0.076786)">
                <mask id="mask-3" fill="white">
                    <use xlink:href="#path-2"></use>
                </mask>
                <g id="Clip-2"></g>
                <path d="M48.2131006,27.0056494 L47.8184578,27.4777273 L47.6837175,26.8772403 L47.112776,26.6478571 L47.6421591,26.3340584 L47.6838799,25.7202597 L48.1458929,26.1267532 L48.7426461,25.9767532 L48.4986526,26.5418506 L48.825763,27.0631169 L48.2131006,27.0056494 Z M48.5273864,29.6463961 L47.915211,29.5360065 L47.477224,29.9778896 L47.3931331,29.3614935 L46.8376136,29.081461 L47.3976786,28.8108442 L47.4923214,28.1960714 L47.9226786,28.6452597 L48.5368019,28.5450974 L48.2426461,29.0933117 L48.5273864,29.6463961 Z M47.9236526,32.1400649 L47.3161851,31.9767532 L46.837289,32.3845455 L46.8048214,31.7562987 L46.2689448,31.4267532 L46.8566071,31.2020779 L47.0043344,30.5905519 L47.3996266,31.0796753 L48.0268994,31.0312987 L47.6837175,31.5585714 L47.9236526,32.1400649 Z M47.0708929,34.529026 L46.4723539,34.3131169 L45.9551461,34.6835714 L45.9756006,34.0475325 L45.463263,33.6700974 L46.0744643,33.4931494 L46.2751136,32.8890909 L46.6324188,33.4157143 L47.2687825,33.4200974 L46.8783604,33.9223701 L47.0708929,34.529026 Z M45.9843669,36.7981818 L45.3988149,36.5301623 L44.8458929,36.8605195 L44.9199188,36.2209091 L44.4348539,35.7972078 L45.0661851,35.6699351 L45.3191071,35.0777273 L45.6353409,35.6387662 L46.276737,35.6963961 L45.8408604,36.1704221 L45.9843669,36.7981818 Z M44.6781981,38.917013 L44.1096916,38.5978571 L43.5246266,38.8851948 L43.6523864,38.2459091 L43.1983279,37.7782143 L43.8457305,37.7024026 L44.150276,37.1259416 L44.4225162,37.7181494 L45.0648864,37.8296753 L44.5856656,38.2715584 L44.6781981,38.917013 Z M43.1671591,40.8546753 L42.6199188,40.4853571 L42.0054708,40.7267532 L42.1876136,40.0923377 L41.7679708,39.5825974 L42.4278734,39.5597078 L42.7829058,39.0030519 L43.0085552,39.6236688 L43.6476786,39.7892532 L43.1273864,40.1955844 L43.1671591,40.8546753 Z M41.4799838,41.9590584 L41.4655357,42.6275649 L40.9437825,42.2093831 L40.3033604,42.4022403 L40.5398864,41.7765909 L40.1587175,41.2272403 L40.826737,41.2590584 L41.2314448,40.7265909 L41.4077435,41.3715584 L42.0389123,41.5921753 L41.4799838,41.9590584 Z M39.6579058,43.5473701 L39.587289,44.2212338 L39.0954058,43.7553247 L38.4327435,43.8963961 L38.7239773,43.2847078 L38.3850162,42.6980195 L39.0567695,42.7858442 L39.5100162,42.2822727 L39.6340422,42.9483442 L40.2530357,43.2236688 L39.6579058,43.5473701 Z M37.7018994,44.9463961 L37.5734903,45.6207468 L37.1163474,45.1085714 L36.4351786,45.1949351 L36.7809578,44.6019156 L36.4884253,43.9806494 L37.1593669,44.1262662 L37.6596916,43.6561364 L37.7285227,44.3392532 L38.3303084,44.6697727 L37.7018994,44.9463961 Z M35.6254383,46.141039 L35.437776,46.8111688 L35.0200812,46.254513 L34.324789,46.2829221 L34.7251136,45.7137662 L34.4832305,45.0614935 L35.1481656,45.2662013 L35.6939448,44.8345455 L35.7046591,45.5301623 L36.2838799,45.9158766 L35.6254383,46.141039 Z M24.9665097,46.0712338 C13.3764123,46.0712338 3.94719156,36.642013 3.94719156,25.0520779 C3.94719156,13.4618182 13.3764123,4.0325974 24.9665097,4.0325974 C36.5566071,4.0325974 45.9858279,13.4618182 45.9858279,25.0520779 C45.9858279,36.642013 36.5566071,46.0712338 24.9665097,46.0712338 Z M15.0325812,46.7678247 L14.4603409,46.3718831 L13.8098539,46.6186364 L14.0096916,45.9520779 L13.5739773,45.4095455 L14.2695942,45.3937987 L14.650763,44.8116558 L14.8809578,45.4683117 L15.5523864,45.6509416 L14.9988149,46.0728571 L15.0325812,46.7678247 Z M12.8717045,44.8905519 L12.8467045,45.5764286 L12.3173214,45.1392532 L11.6570942,45.3272403 L11.9095292,44.6889286 L11.5265747,44.1191234 L12.2116396,44.1618182 L12.6353409,43.6215584 L12.8066071,44.2863312 L13.45125,44.5222078 L12.8717045,44.8905519 Z M10.8868019,43.5038636 L10.8054708,44.1762662 L10.3210552,43.7027273 L9.65628247,43.8332468 L9.95709416,43.2262662 L9.6275487,42.6342208 L10.2976786,42.7327597 L10.7588799,42.2364935 L10.8723539,42.9043506 L11.4869643,43.1894156 L10.8868019,43.5038636 Z M8.95823052,42.5822727 L8.52040584,42.0769156 L7.85579545,42.1512662 L8.20108766,41.5787013 L7.92527597,40.9696104 L8.57641234,41.1209091 L9.07040584,40.6702597 L9.12771104,41.3364935 L9.70887987,41.667013 L9.09313312,41.9274026 L8.95823052,42.5822727 Z M7.2973539,40.8090584 L6.90741883,40.2764286 L6.24767857,40.2957468 L6.63371753,39.7601948 L6.41147727,39.1384416 L7.0400487,39.3402273 L7.56261364,38.9368182 L7.5650487,39.5970455 L8.11017857,39.9692857 L7.48306818,40.1756169 L7.2973539,40.8090584 Z M5.82284091,38.8715584 L5.48225649,38.3157143 L4.83128247,38.2812987 L5.25449675,37.7855195 L5.0861526,37.1556494 L5.68842532,37.4051623 L6.23534091,37.0502922 L6.18436688,37.7002922 L6.69086039,38.1108442 L6.05676948,38.2631169 L5.82284091,38.8715584 Z M4.2624513,36.2088961 L3.62430195,36.1222078 L4.08144481,35.668474 L3.96683442,35.0347078 L4.53956169,35.3291883 L5.10676948,35.0244805 L5.00368506,35.6601948 L5.46894481,36.105487 L4.83241883,36.2037013 L4.55271104,36.7837338 L4.2624513,36.2088961 Z M3.25206169,34.0134416 L2.63079545,33.8756169 L3.11797078,33.4663636 L3.05693182,32.8329221 L3.59686688,33.1697727 L4.18047078,32.916039 L4.02689935,33.5335714 L4.44849026,34.0100325 L3.81375,34.055 L3.49086039,34.6032143 L3.25206169,34.0134416 Z M1.87527597,31.5181494 L2.38891234,31.1551623 L2.38128247,30.5261039 L2.88517857,30.9025649 L3.48095779,30.7007792 L3.27868506,31.2965584 L3.65465909,31.8007792 L3.02576299,31.7923377 L2.66228896,32.3056494 L2.47576299,31.705 L1.87527597,31.5181494 Z M1.90498377,28.7444481 L1.94978896,28.1239935 L2.41488636,28.5369805 L3.01894481,28.3879545 L2.76975649,28.9577597 L3.09816558,29.4861688 L2.47917208,29.4254545 L2.07819805,29.9011039 L1.94459416,29.2936364 L1.36845779,29.0592208 L1.90498377,28.7444481 Z M1.67300325,26.2488312 L1.76910714,25.641039 L2.19313312,26.0871429 L2.80076299,25.9907143 L2.50758117,26.5316234 L2.78696429,27.08 L2.18193182,26.9683117 L1.74670455,27.403539 L1.66602273,26.7933117 L1.1176461,26.5140909 L1.67300325,26.2488312 Z M1.67397727,23.7053247 L1.81959416,23.1137662 L2.20043831,23.5890909 L2.80790584,23.5449351 L2.4736526,24.0538636 L2.70336039,24.6181494 L2.11586039,24.4574351 L1.65043831,24.8502922 L1.62170455,24.2418506 L1.10433442,23.9205844 L1.67397727,23.7053247 Z M1.94573052,21.2256169 L2.13810065,20.654026 L2.47478896,21.154513 L3.07787338,21.1608442 L2.70595779,21.6356818 L2.88631494,22.2111688 L2.31975649,22.0041883 L1.82819805,22.3537013 L1.8499513,21.7507792 L1.36569805,21.3912013 L1.94573052,21.2256169 Z M2.47397727,18.8332468 L2.71034091,18.2843831 L3.00222403,18.805974 L3.5973539,18.8610065 L3.19150974,19.2998052 L3.32300325,19.8827597 L2.78030844,19.6324351 L2.26650974,19.9376299 L2.33680195,19.3442857 L1.88793831,18.9498052 L2.47397727,18.8332468 Z M3.24459416,16.5275649 L3.52170455,16.004026 L3.76862013,16.5425 L4.35222403,16.6442857 L3.91650974,17.0455844 L3.9999513,17.6319481 L3.48371753,17.341526 L2.95173701,17.6022403 L3.06845779,17.0215584 L2.65612013,16.5960714 L3.24459416,16.5275649 Z M4.24297078,14.3113312 L4.55774351,13.8152273 L4.76017857,14.3668506 L5.32917208,14.5127922 L4.86715909,14.8757792 L4.90417208,15.4623052 L4.41618506,15.1348701 L3.86991883,15.3512662 L4.03030844,14.7861688 L3.65579545,14.3334091 L4.24297078,14.3113312 Z M5.45498377,12.2262662 L5.80433442,11.7592208 L5.9624513,12.3204221 L6.51456169,12.5084091 L6.02965909,12.8322727 L6.02154221,13.4153896 L5.56358766,13.0543506 L5.00660714,13.2267532 L5.20855519,12.6796753 L4.8723539,12.2030519 L5.45498377,12.2262662 Z M6.86650974,10.2860065 L7.24751623,9.84964286 L7.36196429,10.4173377 L7.89459416,10.6450974 L7.3900487,10.929513 L7.33826299,11.5061364 L6.91180195,11.1140909 L6.34719156,11.2431494 L6.58826299,10.716526 L6.29118506,10.2194481 L6.86650974,10.2860065 Z M7.90823052,8.39574675 L8.47349026,8.50451299 L8.88355519,8.10061688 L8.95482143,8.67172078 L9.46569805,8.93681818 L8.94443182,9.18113636 L8.85027597,9.74899351 L8.45693182,9.3287013 L7.88761364,9.41474026 L8.16569805,8.91068182 L7.90823052,8.39574675 Z M9.72625,6.74623377 L10.2788474,6.89590909 L10.7155357,6.52577922 L10.7437825,7.09737013 L11.2309578,7.39834416 L10.6958929,7.60191558 L10.5603409,8.15808442 L10.20125,7.71214286 L9.63047078,7.75516234 L9.94362013,7.27594156 L9.72625,6.74623377 Z M11.7035227,5.28438312 L12.2406981,5.47415584 L12.7015747,5.13909091 L12.687289,5.70873377 L13.1483279,6.04347403 L12.6020617,6.20581169 L12.42625,6.74785714 L12.1030357,6.27853896 L11.5332305,6.2787013 L11.8796591,5.82626623 L11.7035227,5.28438312 Z M13.8278734,4.02172078 L14.3471916,4.25045455 L14.8301461,3.95207792 L14.7731656,4.51685065 L15.2059578,4.8838961 L14.6514123,5.00435065 L14.4359903,5.52935065 L14.1501136,5.03909091 L13.5842045,4.99655844 L13.962289,4.57301948 L13.8278734,4.02172078 Z M16.0786851,2.9838961 L16.5775487,3.25077922 L17.0801461,2.99103896 L16.9806331,3.54801948 L17.3829058,3.94574675 L16.8225162,4.02318182 L16.5686201,4.52853896 L16.3218669,4.01961039 L15.7624513,3.93422078 L16.1704058,3.54233766 L16.0786851,2.9838961 Z M18.4488149,2.2088961 L18.9244643,2.51262987 L19.4442695,2.29314935 L19.3023864,2.83941558 L19.6717045,3.26603896 L19.1083929,3.29980519 L18.8168344,3.78292208 L18.6106656,3.2575974 L18.0609903,3.12967532 L18.4968669,2.77123377 L18.4488149,2.2088961 Z M20.9213799,1.67853896 L21.3708929,2.01831169 L21.9056331,1.84038961 L21.7215422,2.37318182 L22.0557955,2.82675325 L21.4924838,2.81603896 L21.1643994,3.27415584 L21.0004383,2.73519481 L20.463263,2.56457792 L20.925276,2.24217532 L20.9213799,1.67853896 Z M23.4411851,1.96912338 L23.4819318,1.40775974 L23.9028734,1.78178571 L24.4494643,1.64704545 L24.2239773,2.16295455 L24.5208929,2.64103896 L23.9606656,2.58584416 L23.5975162,3.0162013 L23.4768994,2.46636364 L22.9554708,2.25386364 L23.4411851,1.96912338 Z M26.0090422,1.96636364 L26.0945942,1.40987013 L26.4842045,1.81603896 L27.0398864,1.72529221 L26.7739773,2.22155844 L27.0319318,2.72204545 L26.477711,2.62237013 L26.0816071,3.02253247 L26.0051461,2.46457792 L25.502224,2.21149351 L26.0090422,1.96636364 Z M28.4861526,2.23292208 L28.6155357,1.68454545 L28.9720292,2.12090909 L29.5337175,2.07448052 L29.2288474,2.54850649 L29.4465422,3.06814935 L28.901737,2.92480519 L28.4746266,3.29233766 L28.4426461,2.72983766 L27.9609903,2.43730519 L28.4861526,2.23292208 Z M30.8786851,2.75581169 L31.0509253,2.21847403 L31.3726786,2.68194805 L31.9371266,2.67967532 L31.5955682,3.12902597 L31.7721916,3.66506494 L31.239237,3.47902597 L30.7840422,3.81262987 L30.7962175,3.24834416 L30.338263,2.91847403 L30.8786851,2.75581169 Z M33.1725162,3.52042208 L33.3863149,2.99672078 L33.6720292,3.48487013 L34.2363149,3.52642857 L33.8601786,3.94899351 L33.9950812,4.49834416 L33.4768994,4.2713961 L32.9960552,4.56944805 L33.0518994,4.0062987 L32.6199188,3.6412013 L33.1725162,3.52042208 Z M35.3535227,4.51019481 L35.6075812,4.00256494 L35.8559578,4.51279221 L36.4171591,4.59737013 L36.0085552,4.99152597 L36.1015747,5.55126623 L35.6006006,5.28438312 L35.0968669,5.54590909 L35.1957305,4.98698052 L34.7915097,4.5886039 L35.3535227,4.51019481 Z M37.4074188,5.67805195 L37.7001136,5.18909091 L37.9101786,5.7187987 L38.4656981,5.84590909 L38.0268994,6.20954545 L38.0775487,6.77707792 L37.5963799,6.47204545 L37.0721916,6.69574675 L37.2134253,6.14363636 L36.8389123,5.71425325 L37.4074188,5.67805195 Z M39.3202435,7.04574675 L39.6501136,6.57772727 L39.8208929,7.12399351 L40.3678084,7.29314935 L39.9009253,7.62448052 L39.9092045,8.19704545 L39.4499513,7.85516234 L38.9079058,8.04006494 L39.0910227,7.49753247 L38.7478409,7.03925325 L39.3202435,7.04574675 Z M41.077711,8.59850649 L41.4434578,8.15402597 L41.5738149,8.71474026 L42.1095292,8.92529221 L41.6166721,9.22237013 L41.5819318,9.79704545 L41.1470292,9.4200974 L40.5898864,9.56457792 L40.8139123,9.03454545 L40.5041721,8.54931818 L41.077711,8.59850649 Z M42.6658604,10.3225325 L43.0661851,9.90418831 L43.1548214,10.4765909 L43.6765747,10.7280519 L43.1595292,10.9892532 L43.0816071,11.5631169 L42.6733279,11.1522403 L42.1035227,11.255487 L42.3682955,10.7402273 L42.0941071,10.23 L42.6658604,10.3225325 Z M44.5385877,11.8140909 L44.5840422,12.3955844 L45.0885877,12.6879545 L44.5496266,12.9106818 L44.427711,13.4808117 L44.0493019,13.0371429 L43.4691071,13.0973701 L43.7743019,12.6004545 L43.537776,12.0671753 L44.1046591,12.2037013 L44.5385877,11.8140909 Z M45.8200812,13.8681494 L45.8205682,14.4556494 L46.3049838,14.7884416 L45.7462175,14.9704221 L45.5794968,15.5338961 L45.2337175,15.0587338 L44.6463799,15.0743182 L44.9913474,14.5986688 L44.7950812,14.0447727 L45.3540097,14.2259416 L45.8200812,13.8681494 Z M46.8856656,16.0582468 L46.839724,16.6489935 L47.3001136,17.0217208 L46.7241396,17.1605195 L46.5119643,17.7136039 L46.2020617,17.2085714 L45.6105032,17.1778896 L45.9947565,16.7270779 L45.8413474,16.1548377 L46.3889123,16.3811364 L46.8856656,16.0582468 Z M48.0655357,19.3673377 L47.475276,19.4603571 L47.2171591,19.9993182 L46.9463799,19.4666883 L46.3540097,19.3877922 L46.7768994,18.9655519 L46.6689448,18.3778896 L47.2010877,18.6494805 L47.726737,18.3652273 L47.6327435,18.9553247 L48.0655357,19.3673377 Z M48.5846916,21.8502922 L47.9832305,21.8952597 L47.6790097,22.416039 L47.4506006,21.8577597 L46.8613149,21.729513 L47.3215422,21.3397403 L47.2614773,20.7395779 L47.7743019,21.0567857 L48.3265747,20.8142532 L48.1832305,21.4002922 L48.5846916,21.8502922 Z M48.8428084,24.4262662 L48.2337175,24.4209091 L47.8840422,24.9194481 L47.7009253,24.3384416 L47.1186201,24.1600325 L47.6145617,23.806461 L47.6044968,23.1973701 L48.0941071,23.5597078 L48.6700812,23.3619805 L48.476737,23.9395779 L48.8428084,24.4262662 Z M24.9665097,0.0855194805 C11.1999513,0.0855194805 -4.87012987e-05,11.2853571 -4.87012987e-05,25.0520779 C-4.87012987e-05,36.6108442 7.89621753,46.3588961 18.5775487,49.1884416 C18.7217045,48.8493182 18.389724,48.3457468 18.6429708,47.6235065 C18.6829058,47.5098701 19.0126136,46.6395779 19.7939448,46.4918506 C20.5239773,46.3537013 21.1941071,47.1400649 21.2970292,47.2640909 C21.2924838,47.2718831 21.2843669,47.2838961 21.2717045,47.2955844 C21.1390747,47.4176623 20.8634253,47.1671753 20.5103409,47.1738312 C20.476737,47.1744805 20.1689448,47.1847078 19.9695942,47.406461 C19.7743019,47.6235065 19.7970292,47.916526 19.8069318,48.0463961 C19.850763,48.6153896 20.3169968,48.9580844 20.4182955,49.0325974 C20.5580682,49.1350325 20.6801461,49.1866558 20.7246266,49.2046753 C20.824789,49.2452597 21.2070942,49.3936364 21.6467045,49.2502922 C21.7014123,49.2325974 21.8876136,49.1676623 22.0796591,49.0067857 C22.2531981,48.8616558 22.3460552,48.7093831 22.377224,48.6551623 C22.4369643,48.5512662 22.4765747,48.4131169 22.5531981,48.141039 C22.6437825,47.8192857 22.6408604,47.7817857 22.7018994,47.6134416 C22.7551461,47.4668506 22.7976786,47.3494805 22.8778734,47.2210714 C22.9079058,47.1728571 23.0682955,46.9225325 23.3918344,46.7340584 C23.5364773,46.6501299 23.8781981,46.4511039 24.2846916,46.5379545 C24.4103409,46.5649026 24.5075812,46.6116558 24.5687825,46.6462338 C24.650763,46.6850325 24.7859903,46.755487 24.9340422,46.8694481 C25.1439448,47.0308117 25.4587175,47.3400649 25.400763,47.4308117 C25.3515747,47.5080844 25.0457305,47.4071104 24.9746266,47.3834091 C24.8241396,47.3338961 24.764724,47.2843831 24.5756006,47.2413636 C24.4725162,47.2181494 24.4134253,47.2124675 24.3592045,47.2144156 C24.3233279,47.2157143 24.2069318,47.2200974 24.1020617,47.2752922 C23.88875,47.3881169 23.8366396,47.6533766 23.8179708,47.7486688 C23.7814448,47.9353571 23.8153734,48.0847078 23.838263,48.1816234 C23.8921591,48.4095455 23.9994643,48.5619805 24.0614773,48.6483442 C24.1613149,48.7874675 24.2583929,48.8717208 24.3523864,48.9527273 C24.5661851,49.1369805 24.7079058,49.2590584 24.9340422,49.317987 C25.2171591,49.3918506 25.4574188,49.3213961 25.5564448,49.2908766 C25.6499513,49.2623052 25.852711,49.1877922 26.0434578,49.0067857 C26.1845292,48.8730195 26.262776,48.7340584 26.3275487,48.6009416 C26.5434578,48.1569481 26.5626136,47.8718831 26.652224,47.5999675 C26.6827435,47.5067857 26.9381006,46.7616558 27.5044968,46.5447727 C28.3199188,46.2325974 29.4717045,47.1338961 29.4051461,47.4239935 C29.3984903,47.4532143 29.3741396,47.5002922 29.3307955,47.5187987 C29.2173214,47.567013 29.1070942,47.3614935 28.8131006,47.2511039 C28.7618019,47.2319481 28.6358279,47.1881169 28.4717045,47.1873052 C28.3676461,47.1868182 28.2531981,47.1863312 28.1470292,47.255 C28.0463799,47.3202597 28.0059578,47.4134416 27.9509253,47.5457468 C27.9131006,47.6363312 27.8423214,47.8113312 27.8426461,48.0530519 C27.8431331,48.3587338 27.9570942,48.5788636 28.0049838,48.6686364 C28.0684578,48.7879545 28.1898864,49.0090584 28.4445942,49.1556494 C28.4760877,49.1738312 28.5963799,49.2408766 28.7692695,49.2774026 C28.9278734,49.3111688 29.052711,49.3028896 29.1210552,49.2976948 C29.6590422,49.2579221 30.0342045,48.9392532 30.0342045,48.9392532 C30.2906981,48.7215584 30.3945942,48.4780519 30.5212175,48.1816234 C30.6556331,47.867013 30.7116396,47.5874675 30.7376136,47.3970455 C30.8311201,47.179026 30.9525487,47.0345455 31.0353409,46.9506169 C31.3473539,46.6338961 31.7845292,46.4937987 32.165211,46.5144156 C32.1699188,46.5147403 32.1881006,46.5157143 32.212289,46.5176623 C32.3121266,46.5264286 32.6406981,46.5650649 33.0103409,46.8152273 C33.2249513,46.9606818 33.5074188,47.2137662 33.4635877,47.2887662 C33.4416721,47.3264286 33.349789,47.2993182 33.1457305,47.2616558 C32.6908604,47.1782143 32.4634253,47.1364935 32.2934578,47.1941234 C32.038263,47.2808117 31.8681331,47.5327597 31.8064448,47.7486688 C31.7926461,47.7965584 31.7556331,47.9426623 31.7928084,48.154513 C31.8663474,48.5735065 32.1608279,48.8525649 32.2426461,48.9358442 C42.4708929,45.8136039 49.9329058,36.2884416 49.9329058,25.0520779 C49.9329058,11.2853571 38.7330682,0.0855194805 24.9665097,0.0855194805 Z" id="Fill-1" fill="#FFFFFF" mask="url(#mask-3)"></path>
            </g>
            <path d="M26.5981656,35.6200487 L25.8129383,36.3854708 L25.9983279,37.4663149 L25.0275487,36.9559253 L24.0569318,37.4663149 L24.2423214,36.3854708 L23.4569318,35.6200487 L24.5421591,35.4622565 L25.0275487,34.4789773 L25.5129383,35.4622565 L26.5981656,35.6200487 Z M29.5205682,36.7068994 L30.0059578,35.7234578 L30.4911851,36.7068994 L31.5765747,36.8645292 L30.7911851,37.6301136 L30.9765747,38.7109578 L30.0059578,38.2005682 L29.0351786,38.7109578 L29.2205682,37.6301136 L28.4353409,36.8645292 L29.5205682,36.7068994 Z M20.8345292,37.6301136 L21.0199188,38.7109578 L20.0491396,38.2005682 L19.0785227,38.7109578 L19.2639123,37.6301136 L18.4785227,36.8645292 L19.56375,36.7068994 L20.0491396,35.7234578 L20.5345292,36.7068994 L21.6197565,36.8645292 L20.8345292,37.6301136 Z M24.9791721,33.2416396 C24.9476786,33.2414773 24.9166721,33.2401786 24.8851786,33.2401786 C21.6116396,33.2401786 18.5851786,33.9505682 16.1256006,35.7497565 C16.12625,35.755763 16.1265747,35.7570617 16.1270617,35.7601461 C16.1264123,35.7588474 16.1259253,35.7573864 16.124789,35.7581981 C16.4449188,38.2624188 17.7903734,40.5896916 19.7231656,42.1349838 C19.8156981,42.0476461 19.8842045,41.9271916 19.938263,41.8203734 C20.0452435,41.6094968 20.1296591,41.382224 20.2085552,41.1594968 C20.2754383,40.9703734 20.3590422,40.7872565 20.4811201,40.6263799 C20.6036851,40.4645292 20.7692695,40.3245942 20.9518994,40.2349838 C21.1592045,40.1333604 21.3866396,40.119724 21.6066071,40.1880682 C21.8356656,40.2591721 22.0381006,40.4039773 22.2018994,40.5768669 C22.2400487,40.6169643 22.3106656,40.6754058 22.3299838,40.7276786 C22.3496266,40.7801136 22.3040097,40.7815747 22.2665097,40.7750812 C22.1694318,40.757711 22.0730032,40.7354708 21.97625,40.7156656 C21.7330682,40.6661526 21.5041721,40.6710227 21.3033604,40.8338474 C21.1186201,40.9838474 21.0590422,41.2474838 21.1238149,41.4726461 C21.1913474,41.7075487 21.3957305,41.8828734 21.5778734,42.0323864 C21.7536851,42.1763799 21.9756006,42.2161526 22.1975162,42.1997565 C22.3361526,42.1895292 22.4454058,42.1392045 22.539724,42.0362825 C22.6286851,41.9395292 22.7028734,41.8323864 22.7596916,41.7137175 C22.877224,41.468263 22.9546591,41.2038149 23.0587175,40.9525162 C23.0971916,40.8594968 23.1356656,40.7726461 23.189724,40.6877435 C23.3033604,40.5093344 23.4570942,40.3398539 23.6569318,40.2590097 C23.8681331,40.1737825 24.114237,40.1864448 24.3249513,40.2655032 C24.5236526,40.3401786 24.6830682,40.4650162 24.7717045,40.6619318 C24.7945942,40.7127435 24.8655357,40.8622565 24.8286851,40.9195617 C24.8028734,40.9593344 24.665211,40.8426136 24.6312825,40.8221591 C24.4496266,40.7120942 24.1967045,40.6622565 24.0145617,40.8017045 C23.8403734,40.9349838 23.7754383,41.1856331 23.8067695,41.394724 C23.8324188,41.5663149 23.9234903,41.7161526 24.03875,41.8424513 C24.1554708,41.9705357 24.2983279,42.0794643 24.4583929,42.1471591 C24.6832305,42.242289 24.9609903,42.2469968 25.1816071,42.1356331 C25.2827435,42.0846591 25.3788474,42.0146916 25.4454058,41.9218344 C25.4947565,41.8531656 25.5225162,41.7739448 25.5569318,41.6974838 C25.6671591,41.4523539 25.6807955,41.1848214 25.7739773,40.9353084 C25.8486526,40.7354708 25.9788474,40.5523539 26.1428084,40.4161526 C26.3316071,40.2593344 26.5682955,40.1745942 26.8145617,40.1958604 C27.0432955,40.2155032 27.2728409,40.3168019 27.439724,40.4750812 C27.4937825,40.5263799 27.5363149,40.5840097 27.5707305,40.6495942 C27.589724,40.6861201 27.6773864,40.8583604 27.5671591,40.8000812 C27.4796591,40.7539773 27.4041721,40.7030032 27.3072565,40.6768669 C27.1981656,40.6478084 27.0825812,40.6440747 26.9725162,40.6703734 C26.7423214,40.7257305 26.5536851,40.8969968 26.5207305,41.1366071 C26.487289,41.3810877 26.5778734,41.6018669 26.7353409,41.7857955 C26.8918344,41.9685877 27.0889123,42.1370942 27.3285227,42.1898539 C27.4926461,42.2260552 27.6775487,42.2304383 27.8364773,42.1703734 C28.0234903,42.0997565 28.162289,41.9607955 28.275763,41.8007305 C28.3376136,41.7137175 28.3859903,41.6184253 28.4093669,41.5138799 C28.4259253,41.4398539 28.4281981,41.3635552 28.4432955,41.2890422 C28.4900487,41.0581981 28.5799838,40.8343344 28.7108279,40.6382305 C28.838263,40.4468344 29.0449188,40.2658279 29.2738149,40.2111201 C29.4746266,40.1630682 29.6845292,40.1731331 29.8807955,40.2359578 C30.0351786,40.2853084 30.1764123,40.3755682 30.2765747,40.5039773 C30.3171591,40.555763 30.477711,40.8255682 30.2915097,40.7831981 C30.1954058,40.7612825 30.1056331,40.717289 30.0087175,40.6966721 C29.890211,40.6713474 29.7728409,40.6750812 29.6551461,40.7020292 C29.3932955,40.7622565 29.2884253,40.9908279 29.2996266,41.2598214 C29.3061201,41.4159903 29.3837175,41.6171266 29.4619643,41.7518669 C29.5531981,41.9091721 29.6859903,42.0445617 29.8475162,42.1120942 C29.8723539,42.1224838 30.0699188,42.1354708 30.1822565,42.0918019 C30.2608279,42.0614448 30.3689448,41.9978084 30.5423214,41.8742695 C32.3095292,40.3318994 33.5301461,38.1190747 33.8327435,35.7497565 C31.3733279,33.9505682 28.3467045,33.2401786 25.0733279,33.2401786 C25.0418344,33.2401786 25.0106656,33.2414773 24.9791721,33.2416396 Z" id="Fill-4" fill="#FFFFFF"></path>
            <path d="M41.891039,31.9817208 C41.9739935,31.7792857 42.0543506,31.5757143 42.1303247,31.3697078 C36.8390909,28.3560714 30.9759416,26.7466558 25.1407143,26.7120779 C25.0772403,26.7117532 25.0140909,26.7114286 24.9506169,26.7114286 C18.9543506,26.7114286 13.1080844,28.3948701 7.99298701,31.5901623 C8.07188312,31.7958442 8.15353896,32.0003896 8.23957792,32.2026623 C13.3270779,28.9990909 19.1541883,27.3247403 25.1368182,27.3614286 C30.891039,27.3955195 36.6751299,28.9924351 41.891039,31.9817208" id="Fill-6" fill="#FFFFFF"></path>
            <path d="M40.970763,33.8979221 C41.0757955,33.708474 41.1779058,33.5174026 41.2762825,33.3240584 C31.1918669,27.2826623 19.1696266,27.3347727 8.83439935,33.4622078 C8.93439935,33.6547403 9.03780844,33.845 9.14446429,34.0333117 C19.2845617,28.0122078 31.082776,27.9609091 40.970763,33.8979221" id="Fill-8" fill="#FFFFFF"></path>
            <path d="M42.5751136,29.992776 C42.6358279,29.7757305 42.6921591,29.5570617 42.7449188,29.3370942 C37.6811201,26.318263 31.514724,24.6416396 25.3009253,24.6056006 C18.8046591,24.5625812 12.6080682,26.256737 7.33323052,29.4955357 C7.38793831,29.7153409 7.44621753,29.9335227 7.50904221,30.1499188 C12.7156981,26.9086851 18.8574188,25.2137175 25.2971916,25.2549513 C31.4635877,25.2905032 37.5793344,26.9708604 42.5751136,29.992776" id="Fill-10" fill="#FFFFFF"></path>
            <path d="M42.9843669,28.1694805 C43.0241396,27.9366883 43.0600162,27.7029221 43.0908604,27.4673701 C32.3463799,20.7496753 18.015211,20.8006494 6.96423701,27.5800325 C6.99621753,27.8133117 7.03176948,28.0454545 7.07267857,28.2758117 C18.0293344,21.4300325 32.3455682,21.3818182 42.9843669,28.1694805" id="Fill-12" fill="#FFFFFF"></path>
            <path d="M13.6742532,22.9394805 L12.090974,21.7487338 L13.6742532,20.5578247 L18.1239286,21.246461 C18.141461,21.0282792 18.1688961,20.8126948 18.2062338,20.6008442 L14.0778247,20.1047403 L14.8240909,19.5393182 L18.4005519,19.7852597 C18.5343182,19.3480844 18.7101299,18.9294156 18.9237662,18.5337987 L16.1934091,16.1549026 L16.0656494,15.2274675 L19.3685714,17.8219481 C19.4947078,17.6443506 19.628961,17.4729221 19.7710065,17.3083117 L16.1007143,14.6217857 L15.8231169,12.6600974 L17.7848052,12.9376948 L20.4701948,16.6062013 C20.6341558,16.4635065 20.8049351,16.3286039 20.9820455,16.2018182 L18.390487,12.9026299 L19.3180844,13.0303896 L21.691461,15.7545779 C22.0974675,15.532987 22.528474,15.3516558 22.9786364,15.2146429 L22.7296104,11.5958117 L23.2951948,10.8495455 L23.7963312,15.0211364 C24.0089935,14.983961 24.2249026,14.9568506 24.4435714,14.9398052 L23.7482792,10.445974 L24.9391883,8.86269481 L26.1299351,10.445974 L25.4356169,14.9328247 C25.6546104,14.9469481 25.8708442,14.9706494 26.0838312,15.0047403 L26.5830195,10.8495455 L27.1486039,11.5958117 L26.9013636,15.1886688 C27.3762013,15.3260065 27.8307468,15.5113961 28.2573701,15.7422403 L30.6424351,13.0047403 L31.5698701,12.8769805 L28.9693831,16.1875325 C29.1471429,16.3139935 29.3184091,16.4484091 29.4830195,16.5904545 L32.1757143,12.9118831 L34.1372403,12.6344481 L33.8598052,14.595974 L30.1825325,17.2876948 C30.3253896,17.4518182 30.4602922,17.6225974 30.5872403,17.7998701 L33.8948701,15.2018182 L33.7671104,16.1294156 L31.0346429,18.5099351 C31.2575325,18.9182143 31.439513,19.3521429 31.5766883,19.8055519 L35.2312338,19.5540909 L35.9773377,20.1196753 L31.7695455,20.6251948 C31.8062338,20.8383442 31.8330195,21.0547403 31.8495779,21.2738961 L36.3809091,20.5727597 L37.9641883,21.7636688 L36.5078571,22.858961 C38.8427597,23.6003571 41.1021753,24.5842857 43.239513,25.8131818 C43.2482792,25.5818506 43.2541234,25.3500325 43.2541234,25.1165909 C43.2541234,15.0664286 35.0776623,6.88996753 25.0276623,6.88996753 C14.9773377,6.88996753 6.80103896,15.0664286 6.80103896,25.1165909 C6.80103896,25.468539 6.81207792,25.8177273 6.83188312,26.1648052 C9.26272727,24.745974 11.8348052,23.6292532 14.4846429,22.8141558 L13.6742532,22.9394805 Z" id="Fill-14" fill="#FFFFFF"></path>
        </g>
    </g>
</svg>