<?xml version="1.0" encoding="utf-8"?>
<!-- Generator: Adobe Illustrator 21.0.0, SVG Export Plug-In . SVG Version: 6.00 Build 0)  -->
<svg version="1.1" id="Layer_1" xmlns="http://www.w3.org/2000/svg" xmlns:xlink="http://www.w3.org/1999/xlink" x="0px" y="0px"
	 viewBox="0 0 64 64" enable-background="new 0 0 64 64" xml:space="preserve">
<g id="Coin-_x2F_-ETH-Ethereum-">
	
		<linearGradient id="Oval_1_" gradientUnits="userSpaceOnUse" x1="-596.5156" y1="387.8906" x2="-597.5156" y2="386.8906" gradientTransform="matrix(64 0 0 -64 38241 24825)">
		<stop  offset="0" style="stop-color:#767FFF"/>
		<stop  offset="1" style="stop-color:#5560FF"/>
	</linearGradient>
	<circle id="Oval" fill="url(#Oval_1_)" cx="32" cy="32" r="32"/>
</g>
<path fill="#FFFFFF" d="M55.731,27.933c0.12,0.04,0.24,0.1,0.36,0.12c0.32,0.04,0.04,0.14,0.02,0.2c-0.14,0.16-0.3,0.28-0.52,0.32
	c-0.18,0.08-0.36,0.2-0.52,0.32c-0.02,0.06-0.06,0.1-0.1,0.12c-0.08,0.04-0.14,0.08-0.22,0.14c-0.12,0.06-0.22,0.12-0.32,0.2
	c-0.08,0.04-0.14,0.1-0.22,0.14c-0.28,0.16-0.56,0.34-0.84,0.521c-0.74,0.44-1.48,0.921-2.22,1.361c-0.64,0.38-1.26,0.781-1.9,1.181
	c-0.18,0.12-0.36,0.22-0.54,0.34c-0.32,0.22-0.68,0.38-1.02,0.641c0.34,0.1,0.66,0.14,0.96,0.24c0.68,0.18,1.32,0.44,1.92,0.781
	c0.48,0.28,0.86,0.641,1.14,1.121c0.2,0.44,0.28,0.881,0.28,1.361c-0.04,0.3-0.1,0.601-0.16,0.881c-0.3,0.961-0.74,1.882-1.12,2.823
	c-0.08,0.16-0.12,0.32-0.2,0.48c-0.02,0.04-0.04,0.08-0.06,0.12c-0.06,0.12-0.1,0.26-0.14,0.38c-0.2,0.46-0.4,0.941-0.58,1.421
	c-0.26,0.621-0.52,1.241-0.78,1.862c-0.06,0.18-0.14,0.34-0.28,0.48c-0.06,0.12-0.14,0.14-0.28,0.1c-0.42-0.12-0.86-0.2-1.28-0.3
	c-1.06-0.14-2.1-0.46-3.141-0.701c-0.46-0.1-0.9-0.22-1.36-0.34c-0.38-0.14-0.42-0.2-0.26-0.561c0.4-1.001,0.84-1.982,1.24-2.983
	c0.28-0.641,0.56-1.301,0.82-1.962c0.24-0.601,0.06-1.021-0.52-1.321c-0.56-0.26-1.16-0.38-1.76-0.521
	c-1.12-0.26-2.22-0.561-3.341-0.821c-0.28-0.08-0.58-0.12-0.86-0.22c-0.24-0.08-0.36-0.02-0.46,0.24
	c-0.32,0.841-0.7,1.682-1.04,2.523c-0.2,0.46-0.4,0.941-0.58,1.401c-0.02,0.06-0.06,0.12-0.08,0.16c-0.12,0.24-0.2,0.501-0.32,0.761
	c-0.02,0.04-0.02,0.06-0.04,0.08c-0.12,0.26-0.2,0.521-0.32,0.781c-0.22,0.501-0.22,0.501-0.74,0.38c-0.18-0.06-0.36-0.08-0.54-0.14
	c-0.78-0.2-1.56-0.4-2.34-0.561c-0.88-0.22-1.78-0.44-2.661-0.661c-0.28-0.08-0.32-0.24-0.22-0.501c0.04-0.1,0.1-0.22,0.14-0.32
	c0.16-0.36,0.32-0.721,0.46-1.081c0-0.02,0.02-0.06,0.04-0.08c0.08-0.14,0.14-0.3,0.2-0.46c0.72-1.722,1.44-3.423,2.14-5.145
	c0.58-1.361,1.16-2.723,1.72-4.104c0.08-0.2,0.18-0.4,0.26-0.601c0.44-1.041,0.88-2.102,1.3-3.143c0.22-0.521,0.48-1.041,0.64-1.582
	c0.04-0.14,0.12-0.26,0.18-0.38c0.2-0.42,0.2-0.42,0.64-0.32c0.1,0.04,0.2,0.04,0.28,0.08c0.1,0.02,0.2,0.04,0.28,0.06
	c0.62,0.14,1.22,0.32,1.84,0.44c0.26,0.08,0.52,0.12,0.76,0.2c0.1,0.04,0.18,0.06,0.28,0.08c0.04,0,0.06,0.02,0.1,0.02
	c0.66,0.16,1.32,0.32,1.98,0.501c0.36,0.1,0.38,0.14,0.3,0.501c-0.16,0.3-0.26,0.621-0.4,0.941c-0.06,0.1-0.1,0.22-0.14,0.34
	c-0.02,0.06-0.04,0.12-0.06,0.18c-0.36,0.881-0.74,1.762-1.1,2.643c-0.34,0.781-0.64,1.562-0.98,2.322c-0.08,0.14-0.12,0.3-0.2,0.46
	c-0.06,0.1-0.1,0.2-0.14,0.32c0,0.02-0.02,0.06-0.04,0.08c-0.1,0.22-0.18,0.44-0.3,0.681c0.26-0.14,0.46-0.26,0.66-0.4
	c1.18-0.681,2.3-1.441,3.461-2.162c0.76-0.48,1.52-0.961,2.3-1.441c1.12-0.701,2.24-1.401,3.361-2.102c0.1-0.08,0.22-0.14,0.32-0.22
	c0.3-0.24,0.64-0.32,1-0.18c1.48,0.38,3.001,0.721,4.481,1.101c0.32,0.1,0.66,0.16,1,0.26
	C55.531,27.813,55.651,27.833,55.731,27.933z"/>
<g>
	<path fill="#FFFFFF" d="M17.284,18.544c-0.38-0.06-0.76-0.02-1.12-0.02c-1.28,0.02-2.3,0.5-3.081,1.522
		c-0.58,0.761-0.92,1.642-1.28,2.503c-1.02,2.482-2.06,4.945-3.081,7.407c-0.42,1.021-0.94,2.022-1,3.163
		c-0.04,0.701,0.14,1.281,0.6,1.802c0.48,0.521,1.1,0.801,1.72,1.101c0.58,0.24,1.18,0.42,1.78,0.601
		c0.74,0.22,1.52,0.36,2.26,0.601c0.2,0.1,0.44,0.1,0.66,0.14c0.84,0.2,1.7,0.4,2.541,0.661c0.82,0.12,1.62,0.38,2.42,0.561
		c0.2,0.02,0.38,0.06,0.56,0.12c0.62,0.14,1.22,0.32,1.84,0.44c0.1,0.04,0.22,0.04,0.32,0.06c0.02,0,0.04,0.02,0.08,0.02
		c0.1,0.02,0.2,0.02,0.3,0.06c0.04,0,0.06,0.02,0.1,0.02c0.38,0.08,0.78,0.12,1.16,0.2c0.28,0,0.54,0.06,0.82,0.08
		c0.14,0,0.3,0,0.44,0c0.74-0.06,1.46-0.2,2.1-0.601c0.38-0.22,0.64-0.541,0.94-0.841c0.48-0.641,0.86-1.361,1.16-2.102
		c0.5-1.261,1.02-2.523,1.56-3.764c0.04-0.12,0.08-0.24,0.14-0.34c0.02-0.02,0.04-0.06,0.04-0.08c0.48-1.121,0.94-2.262,1.42-3.383
		c0.28-0.701,0.58-1.381,0.84-2.082c0.04-0.08,0.06-0.16,0.08-0.24c0.06-0.18,0.1-0.34,0.14-0.521c0.04-0.14,0.04-0.28,0.08-0.4
		c0.02-0.04,0.02-0.06,0.02-0.1c0.02-0.22,0.02-0.42,0-0.641c-0.04-0.26-0.12-0.5-0.22-0.741c-0.06-0.16-0.16-0.3-0.26-0.42
		c-0.4-0.5-0.92-0.841-1.5-1.101c-0.32-0.12-0.64-0.28-1-0.32 M15.563,32.418c-0.44-0.22-0.56-0.541-0.34-1.081
		c0.4-1.001,0.82-2.002,1.24-3.003c0.46-1.141,0.94-2.262,1.42-3.383c0.18-0.4,0.36-0.801,0.86-0.881
		c0.036-0.012,0.064-0.013,0.096-0.018c-0.035-0.005-0.051-0.026-0.096-0.023c0.44-0.14,0.88-0.02,1.3,0.08
		c1.76,0.42,3.501,0.861,5.261,1.301c0.2,0.06,0.42,0.12,0.6,0.22c0.5,0.24,0.64,0.561,0.46,1.081c-0.18,0.541-0.4,1.061-0.66,1.582
		c0,0,0,0,0,0l0,0c-0.398,1.056-0.836,2.092-1.314,3.128c0.003,0.02,0.013,0.034,0.013,0.055c-0.013,0.005-0.023,0-0.036,0.003
		c-0.237,0.684-0.51,1.332-0.824,1.979c-0.26,0.521-0.72,0.701-1.28,0.621"/>
</g>
</svg>
