<?xml version="1.0" encoding="UTF-8"?>
<svg width="64px" height="64px" viewBox="0 0 64 64" version="1.1" xmlns="http://www.w3.org/2000/svg" xmlns:xlink="http://www.w3.org/1999/xlink">
    <!-- Generator: Sketch 53 (72520) - https://sketchapp.com -->
    <title>PRC</title>
    <desc>Created with Sketch.</desc>
    <defs>
        <linearGradient x1="100%" y1="0%" x2="0%" y2="100%" id="linearGradient-1">
            <stop stop-color="#767FFF" offset="0%"></stop>
            <stop stop-color="#5560FF" offset="100%"></stop>
        </linearGradient>
        <polygon id="path-2" points="3.375e-05 3.375e-05 54 3.375e-05 54 54 3.375e-05 54"></polygon>
    </defs>
    <g id="PRC" stroke="none" stroke-width="1" fill="none" fill-rule="evenodd">
        <g id="CYVA" fill="url(#linearGradient-1)" fill-rule="nonzero">
            <circle id="Oval" cx="32" cy="32" r="32"></circle>
        </g>
        <g id="Group-24" transform="translate(5.000000, 5.000000)">
            <path d="M12,42 C12,42 14.1672355,35.9672131 19.5767918,30.6712146 C23.6040956,26.7123696 26.3515358,25.8554396 27,25.6840537 L27,19 C27,19 14.3720137,26.2496274 12,42" id="Fill-1" fill="#FFFFFF"></path>
            <path d="M16.6978022,13.2022059 C16.6978022,11.3327206 16.7307692,10.1580882 16.7967033,9.67830882 C17.043956,9.64522059 17.1923077,9.62867647 17.456044,9.62867647 C18.7087912,9.62867647 19.2857143,10.1911765 19.2857143,11.3988971 C19.2857143,12.65625 18.4945055,13.4172794 17.2087912,13.4172794 C17.0769231,13.4172794 17.043956,13.4172794 16.6978022,13.3841912 L16.6978022,13.2022059 Z M15.9065934,17.9338235 C16.1868132,17.9338235 16.4175824,17.9503676 16.8461538,17.9834559 C16.7307692,16.9080882 16.6813187,15.9485294 16.6813187,14.4595588 L16.6813187,14.0128676 C17.010989,14.0294118 17.1758242,14.0294118 17.4065934,14.0294118 C19.7307692,14.0294118 21,13.0698529 21,11.2996324 C21,9.76102941 20.043956,9 18.0989011,9 C17.9010989,9 17.5384615,9.01654412 17.1263736,9.03308824 C16.6978022,9.04963235 16.3846154,9.06617647 16.1373626,9.06617647 C15.7417582,9.06617647 15.478022,9.04963235 15,9.01654412 C15.0989011,10.6709559 15.1318681,11.5643382 15.1318681,13.3014706 C15.1318681,14.9724265 15.0659341,17.1231618 15,18 C15.4120879,17.9503676 15.6098901,17.9338235 15.9065934,17.9338235 L15.9065934,17.9338235 Z" id="Fill-3" fill="#FFFFFF"></path>
            <path d="M35.9294606,18 C37.0248963,18 37.8713693,17.7936508 38.7178423,17.3174603 L39,16.3650794 L38.9170124,16.3015873 C38.120332,16.984127 37.1576763,17.3492063 36.1286307,17.3492063 C34.1037344,17.3492063 32.8257261,15.8730159 32.8257261,13.5714286 C32.8257261,11.1904762 34.1037344,9.66666667 36.0954357,9.66666667 C37.2074689,9.66666667 38.186722,10.1587302 38.5020747,10.9206349 L38.6514523,10.9047619 C38.7510373,10.3492063 38.8340249,9.95238095 38.9834025,9.6031746 C38.1369295,9.20634921 37.2074689,9 36.1120332,9 C32.9751037,9.01587302 31,10.7936508 31,13.6349206 C31,16.3174603 32.9087137,18 35.9294606,18" id="Fill-5" fill="#FFFFFF"></path>
            <path d="M8.38037025,21.8683002 C9.63740082,18.9372129 8.59282612,17 8.59282612,17 C7.88463989,18.2633997 7.19415831,18.9877489 6.41515345,21.3966309 C5.44139737,24.4793262 6.48597207,28 6.48597207,28 C6.62760932,25.6079632 7.24727227,24.5130168 8.38037025,21.8683002" id="Fill-7" fill="#FFFFFF"></path>
            <path d="M40.6456212,44.0570265 C35.6727766,45.4996606 31.8031229,46.8065173 30.4623218,51.0156144 C29.5118805,51.1513917 28.5274949,51.2362525 27.5431093,51.2532247 C28.1710794,49.1147318 30.6999321,46.6537678 33.5682281,43.6496945 C36.8947726,40.1873727 39.2199593,40.5777325 39.2199593,40.5777325 C34.7393075,31.4297352 29.8513238,28.5614392 27.7637475,27.8995248 L27.2545825,51.2532247 L26.9660557,51.2532247 L26.6775289,51.2532247 L26.1683639,27.8995248 C24.0638153,28.5784114 19.1928038,31.4467074 14.7121521,40.5777325 C14.7121521,40.5777325 16.8676171,40.1534284 20.4317719,43.3102512 C23.520706,46.059742 25.8119484,49.2674813 26.389002,51.2532247 C25.4046164,51.2362525 24.437203,51.1513917 23.4697895,51.0156144 C22.1459606,46.8065173 18.2593347,45.4996606 13.2864902,44.0570265 C10.2145282,43.1744739 8.29667346,41.9694501 7.24439919,41.1547862 C4.42701969,37.1663272 2.72980312,32.2783435 2.72980312,27 C2.72980312,13.6259335 13.6259335,2.72980312 27,2.72980312 C40.3740665,2.72980312 51.2701969,13.6089613 51.2701969,27 C51.2701969,32.2783435 49.5729803,37.1663272 46.7046843,41.1547862 C45.65241,41.9694501 43.7175832,43.1744739 40.6456212,44.0570265 M27,2 C13.2186015,2 2,13.2186015 2,27 C2,40.7813985 13.2186015,52 27,52 C40.7813985,52 52,40.7813985 52,27 C52,13.2186015 40.7813985,2 27,2" id="Fill-9" fill="#FFFFFF"></path>
            <path d="M49.9178135,25 C49.9178135,25 49.3135771,28.3457211 47.1987494,30.0517075 C47.1987494,30.0517075 47.8029859,36.0143787 45,41 C45,41 47.131612,39.2938479 48.8603997,35.0373288 C50.4381283,31.1283009 49.9178135,25 49.9178135,25" id="Fill-11" fill="#FFFFFF"></path>
            <path d="M6.8012506,30.0517075 C4.6696386,28.3457211 4.08218647,25 4.08218647,25 C4.08218647,25 3.56187172,31.1450296 5.1396003,35.0373288 C6.86838799,39.2938479 9,41 9,41 C6.19701413,36.0143787 6.8012506,30.0517075 6.8012506,30.0517075" id="Fill-13" fill="#FFFFFF"></path>
            <path d="M47.5140279,28 C47.5140279,28 48.5586026,24.4624809 47.5848466,21.3966309 C46.8058417,18.9709035 46.1153601,18.2633997 45.4071739,17 C45.4071739,17 44.3625992,18.9372129 45.6196297,21.8683002 C46.7527277,24.5130168 47.3723907,25.6079632 47.5140279,28" id="Fill-15" fill="#FFFFFF"></path>
            <path d="M24.7627119,13.2518382 L24.7627119,13.0202206 C24.7627119,11.7959559 24.7966102,10.125 24.8305085,9.69485294 C25.3050847,9.66176471 25.5254237,9.64522059 25.6440678,9.64522059 C26.7627119,9.64522059 27.4237288,10.2738971 27.4237288,11.3161765 C27.4237288,12.5238971 26.6101695,13.2683824 25.2881356,13.2683824 C25.1186441,13.2849265 24.9830508,13.2849265 24.7627119,13.2518382 M28.8474576,17.9503676 C29.1694915,17.9503676 29.440678,17.9669118 30,18 C29.5254237,17.3878676 28.6440678,16.2132353 27.559322,14.6746324 C27.1016949,14.0294118 26.8305085,13.6819853 26.7627119,13.5661765 C27.3220339,13.4503676 27.6779661,13.3180147 28,13.1194853 C28.7288136,12.6893382 29.1525424,11.9779412 29.1525424,11.1507353 C29.1525424,10.4393382 28.8305085,9.81066176 28.2711864,9.44669118 C27.8135593,9.13235294 27.2033898,9 26.3220339,9 C26.0677966,9 25.6779661,9.01654412 25.220339,9.03308824 C24.7627119,9.04963235 24.4067797,9.06617647 24.1525424,9.06617647 C23.7288136,9.06617647 23.4745763,9.04963235 23,9.01654412 C23.1016949,9.92647059 23.1355932,11.2996324 23.1355932,12.9540441 C23.1355932,15.2536765 23.1016949,16.8088235 23,18 C23.3728814,17.9669118 23.559322,17.9503676 23.8983051,17.9503676 C24.2372881,17.9503676 24.4745763,17.9669118 24.8983051,18 C24.7966102,17.0404412 24.7288136,15.5680147 24.7288136,14.1783088 L24.7288136,13.78125 L25,13.78125 C25.5762712,14.5422794 26.8983051,16.5110294 27.8474576,18 C28.2881356,17.9669118 28.4915254,17.9503676 28.8474576,17.9503676" id="Fill-17" fill="#FFFFFF"></path>
            <g id="Group-21">
                <mask id="mask-3" fill="white">
                    <use xlink:href="#path-2"></use>
                </mask>
                <g id="Clip-20"></g>
                <path d="M45.6806588,45.6806587 C40.6856588,50.6756588 34.0537838,53.426115 27.0000338,53.426115 C19.9462838,53.426115 13.3144088,50.6756588 8.31940875,45.6806587 C3.32440875,40.68549 0.57378375,34.0537838 0.57378375,27.0000338 C0.57378375,19.9462837 3.32440875,13.3144087 8.31940875,8.31940875 C13.3144088,3.32440875 19.9462838,0.57378375 27.0000338,0.57378375 C34.0537838,0.57378375 40.6856588,3.32440875 45.6806588,8.31940875 C50.6756588,13.3144087 53.4262838,19.9462837 53.4262838,27.0000338 C53.4262838,34.0537838 50.6756588,40.68549 45.6806588,45.6806587 M27.0000337,3.375e-05 C12.0825337,3.375e-05 3.375e-05,12.0825337 3.375e-05,27.0000337 C3.375e-05,41.9175337 12.0825337,54.0000337 27.0000337,54.0000337 C41.9175337,54.0000337 54.0000337,41.9175337 54.0000337,27.0000337 C54.0000337,12.0825337 41.9175337,3.375e-05 27.0000337,3.375e-05" id="Fill-19" fill="#FFFFFF" mask="url(#mask-3)"></path>
            </g>
            <path d="M27,19 L27,25.6840537 C27.6484642,25.8554396 30.3959044,26.7295082 34.4232082,30.671386 C39.8327645,35.9672131 42,42 42,42 C39.6279863,26.2496274 27,19 27,19" id="Fill-22" fill="#FFFFFF"></path>
        </g>
    </g>
</svg>