<?xml version="1.0" encoding="UTF-8"?>
<svg width="19px" height="19px" viewBox="0 0 19 19" version="1.1" xmlns="http://www.w3.org/2000/svg" xmlns:xlink="http://www.w3.org/1999/xlink">
    <!-- Generator: Sketch 53.2 (72643) - https://sketchapp.com -->
    <title>Icon / QR</title>
    <desc>Created with Sketch.</desc>
    <g id="Deposit" stroke="none" stroke-width="1" fill="none" fill-rule="evenodd">
        <g id="Deposit---BTC-" transform="translate(-1375.000000, -251.000000)">
            <g id="Group-36" transform="translate(1012.000000, 210.000000)">
                <g id="Group-17-Copy">
                    <g id="Group-15" transform="translate(0.000000, 26.000000)">
                        <g id="Group-12" transform="translate(348.000000, 0.000000)">
                            <g id="Icon-/-QR" transform="translate(12.000000, 12.000000)">
                                <rect id="Rectangle" x="0" y="0" width="24" height="24"></rect>
                                <g id="Group-23" transform="translate(3.000000, 3.000000)">
                                    <path d="M6.2497,7.7497 L2.2497,7.7497 C1.4217,7.7497 0.7497,7.0787 0.7497,6.2497 L0.7497,2.2497 C0.7497,1.4217 1.4217,0.7497 2.2497,0.7497 L6.2497,0.7497 C7.0787,0.7497 7.7497,1.4217 7.7497,2.2497 L7.7497,6.2497 C7.7497,7.0787 7.0787,7.7497 6.2497,7.7497 Z" id="Stroke-1" stroke="#878BC8" stroke-width="1.5"></path>
                                    <path d="M5.2497,4.2497 C5.2497,4.8027 4.8027,5.2497 4.2497,5.2497 C3.6977,5.2497 3.2497,4.8027 3.2497,4.2497 C3.2497,3.6977 3.6977,3.2497 4.2497,3.2497 C4.8027,3.2497 5.2497,3.6977 5.2497,4.2497" id="Fill-3" fill="#656FFF"></path>
                                    <path d="M6.2497,17.6305 L2.2497,17.6305 C1.4217,17.6305 0.7497,16.9585 0.7497,16.1305 L0.7497,12.1305 C0.7497,11.3015 1.4217,10.6305 2.2497,10.6305 L6.2497,10.6305 C7.0787,10.6305 7.7497,11.3015 7.7497,12.1305 L7.7497,16.1305 C7.7497,16.9585 7.0787,17.6305 6.2497,17.6305 Z" id="Stroke-5" stroke="#878BC8" stroke-width="1.5"></path>
                                    <path d="M5.2497,14.1305 C5.2497,14.6825 4.8027,15.1305 4.2497,15.1305 C3.6977,15.1305 3.2497,14.6825 3.2497,14.1305 C3.2497,13.5775 3.6977,13.1305 4.2497,13.1305 C4.8027,13.1305 5.2497,13.5775 5.2497,14.1305" id="Fill-7" fill="#656FFF"></path>
                                    <path d="M16.0602,7.7497 L12.0602,7.7497 C11.2312,7.7497 10.5602,7.0787 10.5602,6.2497 L10.5602,2.2497 C10.5602,1.4217 11.2312,0.7497 12.0602,0.7497 L16.0602,0.7497 C16.8882,0.7497 17.5602,1.4217 17.5602,2.2497 L17.5602,6.2497 C17.5602,7.0787 16.8882,7.7497 16.0602,7.7497 Z" id="Stroke-9" stroke="#878BC8" stroke-width="1.5"></path>
                                    <path d="M15.0602,4.2497 C15.0602,4.8027 14.6122,5.2497 14.0602,5.2497 C13.5072,5.2497 13.0602,4.8027 13.0602,4.2497 C13.0602,3.6977 13.5072,3.2497 14.0602,3.2497 C14.6122,3.2497 15.0602,3.6977 15.0602,4.2497" id="Fill-11" fill="#656FFF"></path>
                                    <path d="M15.0602,14.1305 C15.0602,14.6825 14.6122,15.1305 14.0602,15.1305 C13.5072,15.1305 13.0602,14.6825 13.0602,14.1305 C13.0602,13.5775 13.5072,13.1305 14.0602,13.1305 C14.6122,13.1305 15.0602,13.5775 15.0602,14.1305" id="Fill-13" fill="#656FFF"></path>
                                    <path d="M17.5602,11.6305 C17.5602,12.1825 17.1122,12.6305 16.5602,12.6305 C16.0072,12.6305 15.5602,12.1825 15.5602,11.6305 C15.5602,11.0775 16.0072,10.6305 16.5602,10.6305 C17.1122,10.6305 17.5602,11.0775 17.5602,11.6305" id="Fill-15" fill="#656FFF"></path>
                                    <path d="M17.5602,16.6305 C17.5602,17.1825 17.1122,17.6305 16.5602,17.6305 C16.0072,17.6305 15.5602,17.1825 15.5602,16.6305 C15.5602,16.0775 16.0072,15.6305 16.5602,15.6305 C17.1122,15.6305 17.5602,16.0775 17.5602,16.6305" id="Fill-17" fill="#656FFF"></path>
                                    <path d="M12.5602,11.6305 C12.5602,12.1825 12.1122,12.6305 11.5602,12.6305 C11.0072,12.6305 10.5602,12.1825 10.5602,11.6305 C10.5602,11.0775 11.0072,10.6305 11.5602,10.6305 C12.1122,10.6305 12.5602,11.0775 12.5602,11.6305" id="Fill-19" fill="#656FFF"></path>
                                    <path d="M12.5602,16.6305 C12.5602,17.1825 12.1122,17.6305 11.5602,17.6305 C11.0072,17.6305 10.5602,17.1825 10.5602,16.6305 C10.5602,16.0775 11.0072,15.6305 11.5602,15.6305 C12.1122,15.6305 12.5602,16.0775 12.5602,16.6305" id="Fill-21" fill="#656FFF"></path>
                                </g>
                            </g>
                        </g>
                    </g>
                </g>
            </g>
        </g>
    </g>
</svg>