<?xml version="1.0" encoding="UTF-8"?>
<svg width="47px" height="49px" viewBox="0 0 47 49" version="1.1" xmlns="http://www.w3.org/2000/svg" xmlns:xlink="http://www.w3.org/1999/xlink">
    <!-- Generator: Sketch 53.2 (72643) - https://sketchapp.com -->
    <title>Group</title>
    <desc>Created with Sketch.</desc>
    <g id="Invite-Friends" stroke="none" stroke-width="1" fill="none" fill-rule="evenodd">
        <g id="2.-Invite-Friends---Empty-State" transform="translate(-861.000000, -199.000000)">
            <g id="Group-14" transform="translate(837.000000, 176.000000)">
                <g id="Icon-/-ic_procent" transform="translate(16.000000, 16.000000)">
                    <g id="Group" transform="translate(10.000000, 9.000000)">
                        <path d="M16.3128,15.6248 C16.3128,16.7288 15.4168,17.6248 14.3128,17.6248 C13.2061333,17.6248 12.3128,16.7288 12.3128,15.6248 C12.3128,14.5208 13.2061333,13.6248 14.3128,13.6248 C15.4168,13.6248 16.3128,14.5208 16.3128,15.6248" id="Fill-1" fill="#FFFFFF"></path>
                        <path d="M30.3546667,29.708 C30.3546667,30.812 29.4586667,31.708 28.3546667,31.708 C27.248,31.708 26.3546667,30.812 26.3546667,29.708 C26.3546667,28.604 27.248,27.708 28.3546667,27.708 C29.4586667,27.708 30.3546667,28.604 30.3546667,29.708" id="Fill-3" fill="#FFFFFF"></path>
                        <path d="M13.8128,30.208 L28.7301333,15.2906667" id="Stroke-5" stroke="#FFFFFF" stroke-width="3" stroke-linecap="round" stroke-linejoin="round"></path>
                        <path d="M41.9066667,27.6586667 L42.6666667,29.672 L40.8826667,30.848 C38.032,32.728 35.9626667,35.6026667 35.072,38.928 L34.5173333,41.0053333 L32.3893333,40.8986667 C28.9866667,40.7253333 25.6426667,41.824 22.992,43.9813333 L21.3333333,45.3333333 L19.672,43.9813333 C17.0213333,41.824 13.6773333,40.7253333 10.2773333,40.8986667 L8.14933333,41.0053333 L7.592,38.928 C6.70133333,35.6026667 4.632,32.728 1.78133333,30.848 L0,29.672 L0.757333333,27.6586667 C1.968,24.4426667 1.968,20.8906667 0.757333333,17.6746667 L0,15.6613333 L1.78133333,14.4853333 C4.632,12.6026667 6.70133333,9.728 7.592,6.40533333 L8.14933333,4.328 L10.2773333,4.43733333 C13.6773333,4.60533333 17.0213333,3.50933333 19.672,1.352 L21.3333333,0 L22.992,1.352 C25.6426667,3.50933333 28.9866667,4.60533333 32.3893333,4.43733333 L34.5173333,4.328 L35.072,6.40533333 C35.9626667,9.728 38.032,12.6026667 40.8826667,14.4853333 L42.6666667,15.6613333 L41.9066667,17.6746667 C40.696,20.8906667 40.696,24.4426667 41.9066667,27.6586667 Z" id="Stroke-7" stroke="#FFFFFF" stroke-width="3" stroke-linecap="round" stroke-linejoin="round"></path>
                    </g>
                </g>
            </g>
        </g>
    </g>
</svg>