<?xml version="1.0" encoding="UTF-8"?>
<svg width="64px" height="64px" viewBox="0 0 64 64" version="1.1" xmlns="http://www.w3.org/2000/svg" xmlns:xlink="http://www.w3.org/1999/xlink">
    <!-- Generator: Sketch 58 (84663) - https://sketch.com -->
    <title>Robotina</title>
    <desc>Created with Sketch.</desc>
    <defs>
        <linearGradient x1="100%" y1="0%" x2="0%" y2="100%" id="linearGradient-1">
            <stop stop-color="#767FFF" offset="0%"></stop>
            <stop stop-color="#5560FF" offset="100%"></stop>
        </linearGradient>
        <polygon id="path-2" points="0.00057512084 0.0008 39.16654 0.0008 39.16654 36.8434667 0.00057512084 36.8434667"></polygon>
    </defs>
    <g id="Robotina" stroke="none" stroke-width="1" fill="none" fill-rule="evenodd">
        <g id="CYVA" fill="url(#linearGradient-1)" fill-rule="nonzero">
            <circle id="Oval" cx="32" cy="32" r="32"></circle>
        </g>
        <g id="Group-3" transform="translate(12.000000, 14.000000)">
            <mask id="mask-3" fill="white">
                <use xlink:href="#path-2"></use>
            </mask>
            <g id="Clip-2"></g>
            <path d="M16.6354667,14.4098667 C16.4434667,15.6872 16.4354667,16.8712 16.0381333,17.9032 C15.8568,18.3778667 14.9154667,18.8098667 14.3048,18.8285333 C11.1848,18.9192 8.05946667,18.8712 4.97146667,18.8712 C4.18746667,24.0765333 8.41413333,30.1218667 14.4141333,32.3058667 C14.9714667,29.2152 15.5421333,26.1725333 16.0754667,23.1245333 C17.1528,16.9565333 18.1341333,10.7752 19.3501333,4.63653333 C19.5501333,3.6232 20.6888,2.77253333 21.4594667,1.90586667 C23.8648,-0.8168 26.3688,-0.275466667 29.2301333,1.37253333 C36.1394667,5.35653333 40.2461333,13.5272 38.9181333,21.3378667 C38.8381333,21.8178667 38.2408,22.5832 37.8728,22.5912 C32.6488,22.6738667 27.4221333,22.6472 21.9234667,22.6472 C22.0941333,21.4205333 22.2728,20.5005333 22.3394667,19.5725333 C22.4301333,18.2712 23.0888,17.8605333 24.3501333,17.8845333 C27.5954667,17.9458667 30.8434667,17.9058667 34.0621333,17.9058667 C34.7634667,12.5378667 30.0114667,6.0632 24.1848,4.48453333 C23.6088,7.68186667 23.0221333,10.8552 22.4648,14.0338667 C21.4088,20.0765333 20.4621333,26.1352 19.2381333,32.1432 C19.0114667,33.2525333 17.7261333,34.1618667 16.8861333,35.1298667 C14.7261333,37.6258667 12.4301333,37.0712 9.9688,35.5245333 C2.8728,31.0658667 -0.4952,24.7352 0.0594666667,16.3352 C0.155466667,14.8578667 0.6728,14.2232 2.2888,14.2632 C6.44346667,14.3698667 10.6034667,14.2872 14.7634667,14.2898667 C15.3208,14.2898667 15.8781333,14.3592 16.6354667,14.4098667" id="Fill-1" fill="#FFFFFF" mask="url(#mask-3)"></path>
        </g>
    </g>
</svg>