<?xml version="1.0" encoding="UTF-8"?>
<svg width="64px" height="64px" viewBox="0 0 64 64" version="1.1" xmlns="http://www.w3.org/2000/svg" xmlns:xlink="http://www.w3.org/1999/xlink">
    <!-- Generator: Sketch 53 (72520) - https://sketchapp.com -->
    <title>Raven Coin</title>
    <desc>Created with Sketch.</desc>
    <defs>
        <linearGradient x1="100%" y1="0%" x2="0%" y2="100%" id="linearGradient-1">
            <stop stop-color="#767FFF" offset="0%"></stop>
            <stop stop-color="#5560FF" offset="100%"></stop>
        </linearGradient>
    </defs>
    <g id="Raven-Coin" stroke="none" stroke-width="1" fill="none" fill-rule="evenodd">
        <circle id="Oval" fill="url(#linearGradient-1)" cx="32" cy="32" r="32"></circle>
        <g id="raven-" transform="translate(19.000000, 11.000000)" fill="#FFFFFF" fill-rule="nonzero">
            <g id="Group" transform="translate(13.000000, 21.500000) scale(-1, 1) rotate(-180.000000) translate(-13.000000, -21.500000) ">
                <path d="M14.8424645,42.976477 C14.8751572,42.9435449 19.4147656,41.1134573 19.4614694,41.1134573 C19.5455362,41.1134573 19.5081732,41.2592998 19.4007544,41.3628009 C19.3447099,41.419256 18.97575,41.8097374 18.5787677,42.233151 L17.8641997,42.9952954 L16.3416562,42.9952954 C15.5056583,42.9952954 14.8331238,42.9858862 14.8424645,42.976477 Z" id="Path"></path>
                <path d="M13.5534399,42.3225383 C12.9369499,42.0308534 12.3204599,41.7391685 12.1896892,41.6780088 C12.0542482,41.616849 11.9421592,41.5556893 11.9421592,41.5415755 C11.9421592,41.5274617 12.1803485,41.4145514 12.469912,41.2922319 C12.7548051,41.1699125 14.1886115,40.5489059 15.6504401,39.9184902 C17.1122687,39.2833698 18.3172265,38.7705689 18.3312377,38.7799781 C18.3499192,38.8035011 18.0696964,39.1328228 17.2710616,40.036105 C17.0515538,40.280744 16.7292976,40.6477024 16.5471529,40.8547046 C16.3650081,41.0617068 16.1221484,41.3345733 16.0007185,41.466302 C15.883959,41.593326 15.5617029,41.9602845 15.2861505,42.2801969 C15.0105982,42.5954048 14.7583977,42.8541575 14.7303754,42.8541575 C14.6976828,42.8541575 14.1699299,42.6142232 13.5534399,42.3225383 Z" id="Path"></path>
                <path d="M15.2581283,42.6471554 C15.2581283,42.6236324 15.8932998,41.837965 16.0847853,41.6309628 C16.2716005,41.419256 16.3416562,41.3439825 16.8787498,40.7041575 C17.1262799,40.4124726 17.3457877,40.1866521 17.37381,40.2054705 C17.4018322,40.2195842 17.4065026,40.2101751 17.3924915,40.1866521 C17.3551284,40.1254923 17.4718879,40.0172867 17.5232621,40.0690372 C17.546614,40.0878556 17.546614,40.0737418 17.5279325,40.0408096 C17.4812287,39.9655361 17.6306808,39.7867615 17.7007365,39.8291028 C17.7287588,39.8432166 17.7334291,39.8338074 17.7147476,39.8055799 C17.6960661,39.7773523 17.7894737,39.6315098 17.9295851,39.4809628 C18.065026,39.3304158 18.2658523,39.1045952 18.3732711,38.9728665 C18.5133824,38.8082057 18.5787677,38.7611597 18.5974493,38.8082057 C18.6114604,38.8458425 18.779594,39.3445295 18.9710796,39.9137856 C19.3166876,40.9393873 19.3166876,40.9487965 19.2139393,40.9864333 C19.1578947,41.0099562 19.0925094,41.0334792 19.0644872,41.0381838 C19.0411353,41.0428884 18.9523981,41.0805252 18.8730016,41.1275711 C18.7936052,41.1699125 18.5180528,41.2875274 18.2658523,41.3910284 C18.0136519,41.4945295 17.5326028,41.6968271 17.1963355,41.8426696 C16.6499012,42.0826039 15.6317586,42.5154267 15.365547,42.6236324 C15.304832,42.6471554 15.2581283,42.6565646 15.2581283,42.6471554 Z" id="Path"></path>
                <path d="M11.6852883,41.2922319 C11.6152326,41.2075492 11.2929765,40.8641138 10.9660499,40.5253829 C10.6391234,40.1913567 10.2795042,39.8102845 10.1627447,39.6832604 L9.95724807,39.4527352 L11.2649542,39.490372 C11.9841926,39.5044858 12.6754087,39.5280088 12.8015089,39.5374179 C12.9276091,39.5468271 13.6188252,39.5703501 14.342734,39.5891685 C15.0666427,39.6079869 15.6971439,39.6362144 15.7438477,39.6550328 C15.809233,39.6785558 15.6317586,39.7726477 15.0899946,40.0078775 C14.6836716,40.1819475 13.80097,40.5677243 13.1331058,40.8641138 C12.4652416,41.1652079 11.8954554,41.4145514 11.8674331,41.4286652 C11.8394108,41.4380744 11.755344,41.3769147 11.6852883,41.2922319 Z" id="Path"></path>
                <path d="M19.6949883,40.9629103 C19.6949883,40.9017505 19.8210886,40.4407002 19.9752111,39.9373085 C20.1293336,39.4339168 20.3301599,38.7376368 20.4282378,38.3942013 L20.6010419,37.7637856 L20.7691755,37.7826039 C20.8579127,37.7967177 21.1848392,37.8719912 21.4930842,37.9613786 C21.8013293,38.0460613 22.4832046,38.2295405 23.0109574,38.3706783 C23.5387103,38.5071116 24.1692114,38.676477 24.4120711,38.7423414 C24.6549308,38.8082057 25.0659242,38.9164114 25.322795,38.9822757 C25.7804922,39.095186 26,39.1939825 26,39.2739606 C26,39.3304158 25.8458775,39.3868709 24.9491647,39.6362144 C24.5148195,39.7585339 23.9777259,39.909081 23.7582181,39.9702407 C23.5387103,40.0314004 22.79612,40.2384026 22.1002335,40.431291 C21.4090174,40.6241794 20.7318125,40.8170678 20.5963715,40.8594092 C20.4609305,40.897046 20.3254895,40.9158643 20.2927968,40.897046 C20.2601042,40.8782276 20.2507634,40.8829322 20.2694449,40.9017505 C20.2881265,40.9252735 20.2040596,40.9723195 20.0826298,41.0052516 C19.7557033,41.0899344 19.6949883,41.0852298 19.6949883,40.9629103 Z" id="Path"></path>
                <path d="M19.0971798,39.7632385 C18.8870128,39.1516411 18.7188791,38.6435449 18.7282199,38.6388403 C18.7562421,38.6059081 20.3721933,37.8343545 20.3862044,37.8437637 C20.4002156,37.8531729 19.5128435,40.8405908 19.4848213,40.8688184 C19.4801509,40.873523 19.3026765,40.3795405 19.0971798,39.7632385 Z" id="Path"></path>
                <path d="M15.673792,39.4950766 C15.6644512,39.4856674 15.1927429,39.4621444 14.6276271,39.4480306 C14.0625112,39.4292123 13.221843,39.3962801 12.7594755,39.3727571 C12.297108,39.3492341 11.4984731,39.316302 10.9847315,39.2974836 C10.3775822,39.2786652 10.0319741,39.2504376 9.99928148,39.2175055 C9.94790731,39.1610503 9.17262439,36.8746171 9.19597629,36.8510941 C9.20531705,36.8463895 9.882522,37.1098468 10.7045087,37.4391685 C11.5264954,37.7684902 13.0023352,38.35186 13.9831148,38.7376368 C15.538351,39.3492341 15.9026406,39.513895 15.7345069,39.513895 C15.711155,39.513895 15.6831327,39.5044858 15.673792,39.4950766 Z" id="Path"></path>
                <path d="M13.5067361,38.4130197 C12.0682594,37.8343545 10.5130232,37.2133479 10.0506556,37.0345733 L9.20998743,36.700547 L8.58882702,35.5573304 C8.24788935,34.9269147 7.87425903,34.2306346 7.75282917,34.0142232 C7.6360697,33.7978118 7.57068439,33.6378556 7.60337704,33.6613786 C7.86958865,33.8213348 16.1922041,39.4245077 16.1922041,39.443326 C16.1922041,39.4574398 16.1781929,39.466849 16.1595114,39.4621444 C16.1361595,39.4621444 14.9452129,38.9869803 13.5067361,38.4130197 Z" id="Path"></path>
                <path d="M16.0941261,39.1939825 C15.7998922,38.9869803 9.5042213,34.7340263 8.43937489,34.0236324 C8.04239267,33.7554705 7.74348841,33.5390591 7.77618107,33.5390591 C7.80887372,33.5390591 8.12645949,33.633151 8.47673792,33.7460613 C8.82701635,33.8636761 9.56026585,34.0989059 10.0973594,34.2682713 C11.349021,34.6681619 15.4869768,35.9901532 18.1070595,36.8322757 C19.22328,37.1898249 20.2180708,37.514442 20.3161487,37.5473742 L20.4936231,37.6132385 L18.4479971,38.4929978 C17.3224358,38.9775711 16.38836,39.3727571 16.3743488,39.3727571 C16.3603377,39.3727571 16.2342375,39.292779 16.0941261,39.1939825 Z" id="Path"></path>
                <path d="M20.0686186,37.2509847 C19.8491108,37.1804158 18.9383869,36.8840263 18.0370038,36.597046 C17.140291,36.3100656 16.2856116,36.0371991 16.1455003,35.9901532 C16.0053889,35.9431072 15.6644512,35.8349015 15.3888989,35.7502188 C15.1133465,35.6608315 14.8985091,35.5761488 14.9125202,35.5526258 C14.9265313,35.5338074 14.9078498,35.5291028 14.8704868,35.5432166 C14.8331238,35.5573304 14.650979,35.5149891 14.4594934,35.4491247 C14.2680079,35.387965 13.7682773,35.2280088 13.3432729,35.0915755 C12.9182684,34.9551422 12.3204599,34.7622538 12.0122148,34.6634573 C11.7039698,34.5646608 11.4284175,34.4799781 11.3957248,34.4799781 C11.3630322,34.4799781 11.3350099,34.4658643 11.3350099,34.447046 C11.3350099,34.423523 11.2883061,34.4047046 11.2275912,34.4 C11.1715466,34.4 11.0641279,34.3670678 10.9847315,34.3341357 C10.9100054,34.3059081 10.8165978,34.2729759 10.7792348,34.2635667 C10.5877492,34.22593 7.91629244,33.3461707 7.93497395,33.3273523 C7.95365547,33.3085339 8.54212323,33.2285558 10.424286,32.9745077 C11.1948985,32.8710066 12.3531525,32.7110503 12.9929944,32.621663 C13.6375067,32.5322757 14.7163643,32.3817287 15.3982396,32.2923414 C16.080115,32.1982495 17.2477097,32.0382932 17.9903,31.9347921 C18.7375606,31.831291 19.6482845,31.7089716 20.0219149,31.657221 C20.3955452,31.6054705 20.9559907,31.5301969 21.2735764,31.4878556 C21.5864918,31.4408096 21.8527034,31.4172867 21.8620442,31.4266958 C21.8713849,31.436105 21.6612179,32.3676149 21.3950063,33.4920131 C21.1241243,34.6164114 20.8112089,35.9431072 20.6944494,36.4323851 C20.5823603,36.9263676 20.4842824,37.340372 20.4749416,37.3544858 C20.4702712,37.3685996 20.2881265,37.3215536 20.0686186,37.2509847 Z" id="Path"></path>
                <path d="M7.55200287,33.1391685 C7.55200287,33.1109409 8.14514101,31.7419037 8.46272678,31.0456236 C8.60750853,30.7210066 8.92509431,30.0153173 9.16328364,29.4695842 C9.40147297,28.9285558 10.2841746,26.9243982 11.1248428,25.0237418 C11.965511,23.1230853 12.7641459,21.3118162 12.8995869,21.0013129 C13.2078319,20.2862144 13.4787138,19.6746171 13.6608586,19.2841357 C13.7355847,19.1147702 13.9457518,18.6396061 14.1278965,18.2256018 C14.3053709,17.8115974 14.6416382,17.049453 14.8751572,16.5319475 C15.1040057,16.014442 15.440273,15.2522976 15.6224178,14.8382932 C15.8045626,14.4242888 16.0147297,13.9491247 16.0894557,13.7797593 C16.215556,13.5068928 17.4251841,10.7641138 18.1304114,9.14573304 C18.2798635,8.81170678 18.4433267,8.44945295 18.4947009,8.34595186 L18.5927789,8.15776805 L18.6488234,8.53413567 C18.6768457,8.74113786 18.8029459,9.58796499 18.9243758,10.4159737 C19.0411353,11.2439825 19.2326208,12.5659737 19.3493803,13.3563457 C19.4661398,14.1467177 19.6809772,15.6474836 19.8350997,16.6966083 C19.9845518,17.745733 20.2367523,19.4723195 20.3908748,20.5308534 C20.5449973,21.5940919 20.8112089,23.4147702 20.9793426,24.5768053 C21.1474762,25.7435449 21.3996767,27.4889497 21.539788,28.4580963 C21.6845698,29.4272429 21.8200108,30.3728665 21.8433627,30.5516411 C21.8713849,30.7351204 21.9040776,30.9468271 21.9180887,31.0315098 C21.9507814,31.2055799 22.0255075,31.1867615 20.7925274,31.3514223 C20.306808,31.4172867 19.4427879,31.5396061 18.877672,31.6148796 C18.3125561,31.6948578 17.7147476,31.7748359 17.546614,31.7983589 C17.3784803,31.8218818 16.7806718,31.90186 16.215556,31.9818381 C15.6504401,32.0618162 14.7910904,32.1794311 14.3007006,32.2452954 C13.8149811,32.3111597 13.1284354,32.4052516 12.7828274,32.4570022 C12.4372193,32.5040481 11.8253997,32.5934354 11.4284175,32.645186 C10.4569786,32.7769147 8.80833483,33.0074398 8.21519669,33.0921225 C7.71546614,33.1673961 7.55200287,33.1768053 7.55200287,33.1391685 Z" id="Path"></path>
                <path d="M7.36518771,32.8286652 C7.36518771,32.7439825 7.99568888,28.9191466 8.49074906,26.0117068 C8.56547512,25.5600656 8.94377582,23.3065646 9.3267469,21.0013129 C9.71438836,18.6960613 10.2701635,15.3746171 10.5643973,13.6150985 C10.8586312,11.8555799 11.176217,9.93610503 11.274295,9.35273523 L11.447099,8.28479212 L12.3811748,8.25656455 C14.861146,8.17658643 18.3405784,8.12013129 18.3405784,8.15306346 C18.3405784,8.17188184 18.2238189,8.45415755 18.0790372,8.78347921 C17.313095,10.528884 13.1657985,19.9380744 12.9929944,20.3191466 C12.8295312,20.686105 11.6058919,23.4665208 9.95724807,27.2113786 C9.79845518,27.5736324 9.2146578,28.8956236 8.66355308,30.1517505 C8.10777798,31.4078775 7.60804742,32.5463895 7.55200287,32.6828228 C7.44458416,32.9368709 7.36518771,32.9980306 7.36518771,32.8286652 Z" id="Path"></path>
                <path d="M6.20693372,28.2322757 C5.66049937,25.7576586 4.80582001,21.8669584 4.30141908,19.5899344 C3.80168852,17.3129103 3.25525418,14.8382932 3.09179091,14.085558 C2.73684211,12.4671772 2.34453027,10.6841357 2.08765942,9.54562363 C1.98491108,9.09398249 1.67199569,7.65437637 1.38243219,6.34649891 C1.09753907,5.03862144 0.6678642,3.08150985 0.42967487,1.99474836 C0.186815161,0.907986871 -1.73472348e-18,0.0141137856 0.00458469801,0.00468023962 C0.0140111371,-5.20417043e-18 0.962098078,0.677461707 2.1156817,1.51487965 C3.26926531,2.347593 4.59098258,3.30733042 5.0533501,3.64135667 C5.51571762,3.97538293 6.60858631,4.77045952 7.48194719,5.40557987 C8.35530807,6.04070022 9.438836,6.82636761 9.88719238,7.15098468 C10.3355488,7.47560175 10.8352793,7.83315098 10.9940722,7.95076586 C11.1528651,8.06367615 11.2883061,8.18599562 11.2883061,8.22363239 C11.2883061,8.26126915 11.0127537,9.95492341 10.6811568,11.9873085 C10.0693372,15.6851204 9.76109215,17.5857768 9.13993174,21.3776805 C8.95778696,22.4926696 8.50476019,25.2448578 8.13580025,27.4936543 C7.76684031,29.7471554 7.43991378,31.7371991 7.4118915,31.9159737 C7.33249506,32.4334792 7.26710975,32.7392779 7.2344171,32.7392779 C7.21573558,32.7392779 6.75336806,30.7115974 6.20693372,28.2322757 Z" id="Path"></path>
                <path d="M21.8760553,29.3660832 C21.6612179,27.8606127 21.5070954,26.7926696 20.787857,21.8246171 C20.5963715,20.4932166 20.2834561,18.3243982 20.0919705,17.002407 C19.900485,15.6851204 19.554877,13.295186 19.321358,11.690919 C19.0925094,10.0913567 18.9010239,8.75054705 18.9056943,8.70350109 C18.9103646,8.6047046 18.9991019,8.92461707 20.0826298,12.9564551 C21.5211065,18.3008753 22.0348482,20.2156455 22.5392491,22.1068928 C22.79612,23.0760394 23.2724987,24.8449672 23.5947548,26.0352298 C23.917011,27.2254923 24.1738818,28.2463895 24.1692114,28.3028446 C24.1552003,28.3969365 22.1889707,30.8950766 22.1235854,30.9044858 C22.1095743,30.9044858 21.9974852,30.2129103 21.8760553,29.3660832 Z" id="Path"></path>
            </g>
        </g>
    </g>
</svg>