<?xml version="1.0" encoding="UTF-8"?>
<svg width="36px" height="36px" viewBox="0 0 36 36" version="1.1" xmlns="http://www.w3.org/2000/svg" xmlns:xlink="http://www.w3.org/1999/xlink">
    <!-- Generator: Sketch 58 (84663) - https://sketch.com -->
    <title>Icon / Selfie Copy</title>
    <desc>Created with Sketch.</desc>
    <g id="Icon-/-Selfie-Copy" stroke="none" stroke-width="1" fill="none" fill-rule="evenodd">
        <g id="Icon-/-ic_ivite-friends-Copy">
            <rect id="Rectangle-Copy-7" x="0" y="6" width="36" height="24"></rect>
            <g id="Group-13" transform="translate(6.000000, 4.500000)" stroke="#656FFF" stroke-width="1.5">
                <path d="M12.8391,6.12885 C12.8391,8.89185 10.5996,11.13285 7.8351,11.13285 C5.0706,11.13285 2.8311,8.89185 2.8311,6.12885 C2.8311,3.36585 5.0706,1.12485 7.8351,1.12485 C10.5996,1.12485 12.8391,3.36585 12.8391,6.12885 Z" id="Stroke-1"></path>
                <path d="M7.806,15.51255 C4.3815,15.51255 0,17.68155 0,20.35755 L0,23.23455" id="Stroke-3" stroke-linecap="round"></path>
            </g>
            <g id="Group-6" transform="translate(16.500000, 16.500000)" fill-rule="nonzero">
                <path d="M16.9733894,13.5 L3.35994398,13.5 C2.1483307,13.5 1.16666667,12.5168189 1.16666667,11.3043446 L1.16666667,2.19565543 C1.16666667,0.982450102 2.14805268,0 3.35994398,0 L16.9733894,0 C18.1845505,0 19.1666667,0.982728422 19.1666667,2.19565543 L19.1666667,11.3043446 C19.1666667,12.5165404 18.1842723,13.5 16.9733894,13.5 Z" id="Path" fill="#FFFFFF"></path>
                <path d="M16.9733894,0 C18.1845505,0 19.1666667,0.982728422 19.1666667,2.19565543 L19.1666667,11.3043446 C19.1666667,12.5165404 18.1842723,13.5 16.9733894,13.5 L10.8546667,13.5 L10.8547003,12.8225267 C10.8547003,10.8395571 9.30097524,9.22018063 7.34564678,9.11776817 L7.14881793,9.11262619 C5.16799604,9.11262619 3.55037352,10.6680359 3.44807199,12.6254845 L3.44293557,12.8225267 L3.44266667,13.5 L3.35994398,13.5 C2.1483307,13.5 1.16666667,12.5168189 1.16666667,11.3043446 L1.16666667,2.19565543 C1.16666667,0.982450102 2.14805268,0 3.35994398,0 L16.9733894,0 Z M7.14881793,10.4754468 C8.38985907,10.4754468 9.40546806,11.4403909 9.48794756,12.6618143 L9.49335574,12.8225267 L9.49266667,13.5 L4.80366667,13.5 L4.80428011,12.8225267 C4.80428011,11.6341568 5.68618387,10.652266 6.83064716,10.4968701 L6.9882796,10.4808608 L7.14881793,10.4754468 Z M15.4095574,6.85206012 L12.340986,6.85206012 C11.9650611,6.85206012 11.6603137,7.26227772 11.6603137,7.76830678 C11.6603137,8.27433583 11.9650611,8.68455343 12.340986,8.68455343 L12.340986,8.68455343 L15.4095574,8.68455343 C15.7854823,8.68455343 16.0902297,8.27433583 16.0902297,7.76830678 C16.0902297,7.26227772 15.7854823,6.85206012 15.4095574,6.85206012 L15.4095574,6.85206012 Z M7.14881793,3.0418156 C5.79848715,3.0418156 4.70343978,4.1376177 4.70343978,5.48984521 C4.70343978,6.84135159 5.79877537,7.93787482 7.14881793,7.93787482 C8.49958084,7.93787482 9.59419608,6.84164011 9.59419608,5.48984521 C9.59419608,4.13732934 8.49986889,3.0418156 7.14881793,3.0418156 Z M7.14881793,4.40463621 C7.74801906,4.40463621 8.23285154,4.88999438 8.23285154,5.48984521 C8.23285154,6.08909547 7.7476107,6.57505421 7.14881793,6.57505421 C6.55062519,6.57505421 6.06478431,6.08868655 6.06478431,5.48984521 C6.06478431,4.89040318 6.55021672,4.40463621 7.14881793,4.40463621 Z M15.4095574,3.73685411 L12.340986,3.73685411 C11.9650611,3.73685411 11.6603137,4.14707171 11.6603137,4.65310076 C11.6603137,5.12020451 11.9199801,5.50567009 12.2556039,5.56220856 L12.340986,5.56934742 L15.4095574,5.56934742 C15.7854823,5.56934742 16.0902297,5.15912982 16.0902297,4.65310076 C16.0902297,4.14707171 15.7854823,3.73685411 15.4095574,3.73685411 Z" id="Combined-Shape" fill="#3A3751"></path>
            </g>
        </g>
    </g>
</svg>