<?xml version="1.0" encoding="UTF-8"?>
<svg width="64px" height="64px" viewBox="0 0 64 64" version="1.1" xmlns="http://www.w3.org/2000/svg" xmlns:xlink="http://www.w3.org/1999/xlink">
    <!-- Generator: Sketch 52.6 (67491) - http://www.bohemiancoding.com/sketch -->
    <title>Coin / EURT_coin</title>
    <desc>Created with Sketch.</desc>
    <defs>
        <linearGradient x1="100%" y1="0%" x2="0%" y2="100%" id="linearGradient-1">
            <stop stop-color="#767FFF" offset="0%"></stop>
            <stop stop-color="#5560FF" offset="100%"></stop>
        </linearGradient>
    </defs>
    <g id="Coin-/-EURT_coin" stroke="none" stroke-width="1" fill="none" fill-rule="evenodd">
        <circle id="Oval" fill="url(#linearGradient-1)" cx="32" cy="32" r="32"></circle>
        <path d="M42.3355924,16.0840439 C42.63718,15.8712856 43.0535167,16.0870139 43.0535167,16.456101 L43.0535167,40.8968498 C43.0535167,41.4071458 42.6085602,41.8026927 42.1020442,41.7435632 L27.7570564,40.0612064 C27.4408889,40.0239466 27.2745702,39.6670094 27.4495288,39.4013315 L38.8275098,22.5561633 C38.9376689,22.3930846 38.7073607,22.2170459 38.5791117,22.3663548 L24.0848151,39.4361612 C23.9924758,39.5447004 23.8515369,39.59978 23.7100581,39.5833101 L12.460326,38.2676104 C11.9862098,38.2119908 11.830961,37.6007156 12.2208379,37.3255878 L42.3355924,16.0840439 Z M32.3340606,43.1440692 C32.5198191,43.1543292 32.6407782,43.3435977 32.5721987,43.5163963 L30.7761728,47.8882021 C30.7189332,48.033461 30.5150848,48.038321 30.4505553,47.8960321 L28.2489925,43.1443392 C28.1617832,42.9510208 28.3105521,42.7342124 28.5222304,42.7460924 L32.3340606,43.1440692 Z" id="Combined-Shape" fill="#FFFFFF"></path>
    </g>
</svg>