<?xml version="1.0" encoding="UTF-8"?>
<svg width="64px" height="64px" viewBox="0 0 64 64" version="1.1" xmlns="http://www.w3.org/2000/svg" xmlns:xlink="http://www.w3.org/1999/xlink">
    <!-- Generator: Sketch 53 (72520) - https://sketchapp.com -->
    <title>USDT</title>
    <desc>Created with Sketch.</desc>
    <defs>
        <linearGradient x1="100%" y1="0%" x2="0%" y2="100%" id="linearGradient-1">
            <stop stop-color="#767FFF" offset="0%"></stop>
            <stop stop-color="#5560FF" offset="100%"></stop>
        </linearGradient>
        <polygon id="path-2" points="0 0.167030303 63.8329697 0.167030303 63.8329697 63.999903 0 63.999903"></polygon>
    </defs>
    <g id="USDT" stroke="none" stroke-width="1" fill="none" fill-rule="evenodd">
        <circle id="Oval" fill="url(#linearGradient-1)" cx="32" cy="32" r="32"></circle>
        <g id="Group-3">
            <mask id="mask-3" fill="white">
                <use xlink:href="#path-2"></use>
            </mask>
            <g id="Clip-2"></g>
        </g>
        <path d="M36.4623065,26.7615176 L36.4623065,22.1138211 L47.3854219,22.1138211 L47.3854219,15 L17.6145781,15 L17.6145781,22.0948509 L28.5571643,22.0948509 L28.5571643,26.7425474 C19.6784823,27.1409214 13,28.8482385 13,30.9159892 C13,32.9837398 19.6784823,34.6910569 28.5571643,35.0894309 L28.5571643,50 L36.4623065,50 L36.4623065,35.0704607 C45.3409885,34.6720867 52,32.9647696 52,30.897019 C52,28.8292683 45.3215177,27.1598916 36.4623065,26.7615176 M36.4092664,33.9195402 L36.4092664,33.9195402 C36.1969112,33.9396552 35.0579151,34 32.5289575,34 C30.5019305,34 29.0926641,33.9396552 28.5907336,33.9195402 L28.5907336,33.9195402 C20.8108108,33.5574713 15,32.1494253 15,30.4597701 C15,28.7701149 20.8108108,27.362069 28.5907336,27 L28.5907336,32.5114943 C29.0926641,32.5517241 30.5598456,32.6321839 32.5675676,32.6321839 C34.980695,32.6321839 36.1969112,32.5316092 36.4285714,32.5114943 L36.4285714,27 C44.1891892,27.362069 50,28.7701149 50,30.4597701 C50,32.1494253 44.1698842,33.5373563 36.4092664,33.9195402" id="Shape" fill="#FFFFFF" fill-rule="nonzero"></path>
    </g>
</svg>