<?xml version="1.0" encoding="utf-8"?>
<!-- Generator: Adobe Illustrator 21.0.0, SVG Export Plug-In . SVG Version: 6.00 Build 0)  -->
<svg version="1.1" id="Layer_1" xmlns="http://www.w3.org/2000/svg" xmlns:xlink="http://www.w3.org/1999/xlink" x="0px" y="0px"
	 viewBox="0 0 64 64" enable-background="new 0 0 64 64" xml:space="preserve">
<g>
	
		<linearGradient id="Oval_1_" gradientUnits="userSpaceOnUse" x1="-596.5156" y1="387.8906" x2="-597.5156" y2="386.8906" gradientTransform="matrix(64 0 0 -64 38241 24825)">
		<stop  offset="0" style="stop-color:#767FFF"/>
		<stop  offset="1" style="stop-color:#5560FF"/>
	</linearGradient>
	<circle id="Oval" fill="url(#Oval_1_)" cx="32" cy="32" r="32"/>
	<g>
		<path fill="#FFFFFF" d="M23.339,43.035c0.268-0.411,0.538-0.82,0.804-1.233c3.332-5.16,6.663-10.32,9.994-15.481
			c1.335-2.068,2.675-4.132,3.998-6.207c0.553-0.868,0.981-1.787,0.946-2.857c-0.029-0.885-0.598-1.573-1.458-1.768
			c-0.497-0.112-0.999-0.138-1.504-0.117c-0.236,0.01-0.27-0.069-0.213-0.28c0.108-0.399,0.2-0.802,0.282-1.207
			c0.035-0.173,0.112-0.228,0.285-0.227c3.632,0.004,7.265,0.004,10.897,0c0.171,0,0.241,0.026,0.172,0.217
			c-0.154,0.427-0.29,0.86-0.436,1.29c-0.035,0.104-0.063,0.21-0.217,0.205c-1.522-0.048-2.564,0.807-3.567,1.819
			c-1.644,1.659-2.833,3.64-4.081,5.581c-1.68,2.613-3.351,5.232-5.027,7.848c-2.812,4.391-5.626,8.781-8.438,13.171
			c-1.708,2.667-3.418,5.332-5.122,8.002c-0.115,0.181-0.24,0.261-0.462,0.252c-0.474-0.018-0.949-0.02-1.422,0
			c-0.237,0.01-0.285-0.08-0.289-0.292c-0.034-1.795-0.074-3.59-0.116-5.385c-0.07-2.994-0.145-5.989-0.213-8.983
			c-0.034-1.462-0.056-2.925-0.088-4.387c-0.056-2.551-0.119-5.101-0.175-7.651c-0.046-2.077-0.082-4.155-0.135-6.232
			c-0.015-0.573-0.048-1.148-0.189-1.71c-0.294-1.174-1.052-1.835-2.379-2.038c-0.762-0.117-1.531-0.033-2.297-0.052
			c-0.36-0.009-0.361-0.002-0.261-0.362c0.097-0.35,0.204-0.697,0.287-1.05c0.042-0.176,0.111-0.245,0.304-0.245
			c5.045,0.005,10.09,0.005,15.134,0.002c0.178,0,0.257,0.024,0.202,0.23c-0.112,0.418-0.215,0.84-0.298,1.265
			c-0.036,0.185-0.125,0.219-0.289,0.217c-0.767-0.006-1.535,0.031-2.3-0.01c-1.494-0.079-2.775,1.105-2.792,2.788
			c-0.019,1.813,0.056,3.627,0.087,5.44c0.015,0.868,0.019,1.736,0.031,2.604c0.04,2.825,0.08,5.65,0.124,8.475
			c0.037,2.42,0.081,4.84,0.12,7.259c0.006,0.361,0.001,0.723,0.001,1.085C23.272,43.021,23.306,43.028,23.339,43.035z"/>
		<g>
			<path fill="#FFFFFF" d="M60.648,27.488c-0.512-3.348-1.603-6.492-3.291-9.426c-1.458-2.536-3.284-4.783-5.388-6.811
				c-2.947-2.842-6.286-5.067-10.134-6.502c-2.879-1.074-5.858-1.622-8.922-1.745C32.753,3.002,32.592,3.001,32.431,3
				c-0.306,0.001-0.611,0.002-0.917,0.004c-0.141,0-0.282,0-0.423,0c-1.27,0.054-2.533,0.168-3.789,0.37
				C23.311,4.019,19.625,5.45,16.28,7.722c-3.669,2.492-6.696,5.616-9.059,9.374c-2.501,3.977-3.828,8.333-4.153,13.006
				c-0.133,1.907-0.067,3.809,0.164,5.707c0.45,3.702,1.577,7.178,3.435,10.413c1.69,2.941,3.855,5.492,6.392,7.731
				c3.092,2.728,6.589,4.731,10.554,5.898c2.324,0.684,4.7,1.033,7.116,1.145c0.141,0.001,0.282,0.002,0.423,0.003
				c0.567,0,1.133,0,1.7,0c0.141-0.001,0.282-0.003,0.423-0.004c0.724-0.042,1.447-0.097,2.169-0.175
				c2.695-0.291,5.29-0.964,7.784-2.025c2.552-1.085,4.876-2.543,7.007-4.312c2.77-2.299,5.133-4.954,6.975-8.056
				c1.976-3.327,3.151-6.928,3.588-10.767C61.108,32.933,61.064,30.207,60.648,27.488z M59.038,33.049
				c0.011,0.483-0.021,0.963-0.06,1.444c-0.011,0.144-0.066,0.173-0.127,0.162c0.035,0.023,0.067,0.056,0.095,0.103
				c-0.151,1.191-0.317,2.378-0.588,3.549c-0.86,3.71-2.503,7.038-4.874,10.007c-1.972,2.47-4.273,4.587-6.908,6.336
				c-3.023,2.007-6.322,3.33-9.892,3.972c-1.841,0.331-3.697,0.503-5.567,0.422c-6.748-0.293-12.611-2.71-17.545-7.347
				c-2.479-2.33-4.534-4.975-6.035-8.038c-1.364-2.783-2.162-5.724-2.49-8.804c-0.41-3.854,0.021-7.611,1.25-11.277
				c0.85-2.534,2.091-4.871,3.676-7.022c2.373-3.221,5.224-5.928,8.665-7.986c3.278-1.96,6.829-3.101,10.621-3.519
				c4.871-0.538,9.497,0.34,13.907,2.419c2.677,1.262,5.048,2.979,7.194,5.013c2.301,2.181,4.263,4.626,5.751,7.436
				c1.855,3.503,2.804,7.244,2.92,11.201c0.016,0.544,0.023,1.089,0.034,1.634C59.007,32.848,59.035,32.951,59.038,33.049z"/>
		</g>
		<path fill="#FFFFFF" d="M58.708,34.591c-0.296-0.152-0.579-0.329-0.865-0.499c-1.396-0.831-2.799-1.649-4.197-2.477
			c-0.686-0.406-1.373-0.809-2.061-1.212c-0.226-0.132-0.296-0.291-0.237-0.549c0.354-1.555,0.705-3.111,1.054-4.667
			c0.239-1.064,0.47-2.129,0.719-3.19c0.009-0.038,0.024-0.078-0.013-0.132c-0.425,0.336-0.815,0.71-1.215,1.071
			c-1.218,1.103-2.435,2.207-3.658,3.305c-0.368,0.33-0.731,0.665-1.095,0.999c-0.323,0.296-0.357,0.281-0.739,0.059
			c-2.348-1.361-4.695-2.723-7.093-4.098c0.259,0.643,0.542,1.228,0.81,1.82c0.841,1.856,1.685,3.712,2.517,5.572
			c0.158,0.354,0.138,0.367-0.141,0.615c-0.777,0.689-1.532,1.402-2.302,2.099c-0.822,0.744-1.642,1.491-2.461,2.239
			c-0.368,0.337-0.764,0.648-1.142,1.076c0.943-0.088,1.82-0.178,2.699-0.248c0.108,0.008,0.224-0.007,0.3,0.098
			c0.039,0.137-0.054,0.23-0.119,0.328c-1.431,2.175-2.837,4.366-4.258,6.547c-1.778,2.731-3.545,5.47-5.323,8.201
			c-0.071,0.109-0.149,0.215-0.187,0.344c0.056,0.093,0.146,0.054,0.218,0.054c0.948,0.003,1.897-0.004,2.845,0.006
			c0.251,0.003,0.412-0.087,0.545-0.298c1.328-2.097,2.679-4.179,4.019-6.269c0.986-1.537,1.976-3.072,2.962-4.609
			c0.975-1.52,1.955-3.037,2.926-4.56c0.101-0.252,0.349-0.18,0.536-0.244c0.316-0.043,0.632-0.085,0.951-0.104
			c0.144-0.008,0.264,0.018,0.329,0.151c0.197,0.402,0.407,0.798,0.508,1.24c-0.011,0.065-0.06,0.108-0.093,0.161
			c-0.798,1.286-1.615,2.561-2.428,3.837c-1.394,2.187-2.786,4.376-4.178,6.564c-0.812,1.277-1.627,2.553-2.443,3.829
			c-0.048,0.075-0.148,0.153-0.11,0.237c0.049,0.109,0.18,0.058,0.275,0.059c0.969,0.003,1.937-0.003,2.906,0.006
			c0.238,0.002,0.385-0.077,0.516-0.282c2.221-3.468,4.44-6.936,6.648-10.411c0.086-0.135,0.16-0.282,0.301-0.375
			c0.062-0.03,0.125-0.046,0.188-0.003c0.261,0.341,0.378,0.755,0.545,1.14c0.233,0.536,0.495,1.06,0.695,1.634
			c0.609-2.632,1.186-5.247,1.8-7.854c0.1-0.424,0.201-0.497,0.642-0.523c1.115-0.067,2.226-0.189,3.34-0.279
			c1.063-0.086,2.126-0.181,3.189-0.268c0.371-0.031,0.742-0.064,1.113-0.102c0.099-0.01,0.207-0.034,0.304-0.014
			C58.736,34.606,58.721,34.598,58.708,34.591z M52.583,33.537c-1.056,0.067-2.112,0.136-3.168,0.191
			c-0.214,0.011-0.308,0.071-0.364,0.294c-0.323,1.3-0.668,2.595-1.006,3.892c-0.027,0.103-0.059,0.205-0.112,0.389
			c-0.165-0.36-0.3-0.645-0.428-0.933c-0.452-1.013-0.908-2.023-1.348-3.041c-0.1-0.232-0.218-0.298-0.475-0.277
			c-1.386,0.114-2.774,0.204-4.161,0.301c-0.028,0.002-0.057-0.008-0.138-0.021c0.428-0.398,0.827-0.773,1.231-1.144
			c0.646-0.594,1.287-1.193,1.946-1.771c0.182-0.16,0.187-0.285,0.091-0.485c-0.551-1.145-1.091-2.294-1.634-3.443
			c-0.038-0.081-0.073-0.164-0.146-0.326c0.311,0.176,0.557,0.313,0.801,0.454c1.001,0.584,2.005,1.164,3,1.759
			c0.187,0.111,0.3,0.105,0.467-0.041c0.996-0.867,2.004-1.721,3.009-2.579c0.045-0.038,0.093-0.073,0.213-0.166
			c-0.139,0.74-0.263,1.402-0.389,2.063c-0.133,0.703-0.262,1.408-0.407,2.108c-0.044,0.21,0.006,0.318,0.196,0.428
			c1.221,0.707,2.434,1.43,3.649,2.148c0.041,0.024,0.079,0.053,0.183,0.124C53.21,33.489,52.897,33.517,52.583,33.537z"/>
	</g>
</g>
</svg>
