<?xml version="1.0" encoding="UTF-8"?>
<svg width="64px" height="64px" viewBox="0 0 64 64" version="1.1" xmlns="http://www.w3.org/2000/svg" xmlns:xlink="http://www.w3.org/1999/xlink">
    <!-- Generator: Sketch 53 (72520) - https://sketchapp.com -->
    <title>Coin / empty Copy</title>
    <desc>Created with Sketch.</desc>
    <defs>
        <linearGradient x1="100%" y1="0%" x2="0%" y2="100%" id="linearGradient-1">
            <stop stop-color="#767FFF" offset="0%"></stop>
            <stop stop-color="#5560FF" offset="100%"></stop>
        </linearGradient>
        <path d="M32,0 C49.673,0 64,14.326 64,32 C64,49.673 49.673,64 32,64 C14.327,64 0,49.673 0,32 C0,14.326 14.327,0 32,0 Z" id="path-2"></path>
        <linearGradient x1="0%" y1="0%" x2="0%" y2="1600%" id="linearGradient-4">
            <stop stop-color="#767FFF" offset="0%"></stop>
            <stop stop-color="#5560FF" offset="100%"></stop>
        </linearGradient>
        <path d="M0,32 C0,49.673 14.327,64 32,64 L32,64 C49.673,64 64,49.673 64,32 L64,32 C64,14.326 49.673,0 32,0 L32,0 C14.327,0 0,14.326 0,32" id="path-5"></path>
        <linearGradient x1="100%" y1="0%" x2="0%" y2="100%" id="linearGradient-7">
            <stop stop-color="#767FFF" offset="0%"></stop>
            <stop stop-color="#5560FF" offset="100%"></stop>
        </linearGradient>
        <path d="M32,0 C49.673,0 64,14.326 64,32 C64,49.673 49.673,64 32,64 C14.327,64 0,49.673 0,32 C0,14.326 14.327,0 32,0 Z" id="path-8"></path>
        <path d="M0,32 C0,49.673 14.327,64 32,64 L32,64 C49.673,64 64,49.673 64,32 L64,32 C64,14.326 49.673,0 32,0 L32,0 C14.327,0 0,14.326 0,32" id="path-10"></path>
    </defs>
    <g id="Coin-/-empty-Copy" stroke="none" stroke-width="1" fill="none" fill-rule="evenodd">
        <circle id="Oval" fill="url(#linearGradient-1)" cx="32" cy="32" r="32"></circle>
        <g id="Group-135">
            <g id="Group-3">
                <mask id="mask-3" fill="white">
                    <use xlink:href="#path-2"></use>
                </mask>
                <g id="Clip-2"></g>
                <polygon id="Fill-1" fill="url(#linearGradient-4)" mask="url(#mask-3)" points="0 64 64 64 64 0 0 0"></polygon>
            </g>
            <g id="Group-6">
                <mask id="mask-6" fill="white">
                    <use xlink:href="#path-5"></use>
                </mask>
                <g id="Clip-5"></g>
                <path d="M0,32 C0,49.673 14.327,64 32,64 L32,64 C49.673,64 64,49.673 64,32 L64,32 C64,14.326 49.673,0 32,0 L32,0 C14.327,0 0,14.326 0,32" id="Fill-4" fill="url(#linearGradient-7)" mask="url(#mask-6)"></path>
            </g>
            <g id="Group-67" transform="translate(6.000000, 9.000000)" fill="#FFFFFF">
                <path d="M13.3857,2.229 C13.8907,2.229 14.3007,1.82 14.3007,1.314 C14.3007,0.809 13.8907,0.4 13.3857,0.4 C12.8807,0.4 12.4707,0.809 12.4707,1.314 C12.4707,1.82 12.8807,2.229 13.3857,2.229" id="Fill-7"></path>
                <path d="M9.522,4.9282 C10.027,4.9282 10.437,4.5182 10.437,4.0132 C10.437,3.5082 10.027,3.0982 9.522,3.0982 C9.017,3.0982 8.607,3.5082 8.607,4.0132 C8.607,4.5182 9.017,4.9282 9.522,4.9282" id="Fill-9"></path>
                <path d="M6.2129,8.3667 C6.7179,8.3667 7.1279,7.9567 7.1279,7.4517 C7.1279,6.9467 6.7179,6.5367 6.2129,6.5367 C5.7079,6.5367 5.2979,6.9467 5.2979,7.4517 C5.2979,7.9567 5.7079,8.3667 6.2129,8.3667" id="Fill-11"></path>
                <path d="M3.6431,12.397 C4.1481,12.397 4.5581,11.987 4.5581,11.482 C4.5581,10.977 4.1481,10.567 3.6431,10.567 C3.1381,10.567 2.7281,10.977 2.7281,11.482 C2.7281,11.987 3.1381,12.397 3.6431,12.397" id="Fill-13"></path>
                <path d="M1.8921,16.8237 C2.3971,16.8237 2.8071,16.4147 2.8071,15.9087 C2.8071,15.4037 2.3971,14.9937 1.8921,14.9937 C1.3871,14.9937 0.9771,15.4037 0.9771,15.9087 C0.9771,16.4147 1.3871,16.8237 1.8921,16.8237" id="Fill-15"></path>
                <path d="M0.9795,21.5288 C1.4845,21.5288 1.8945,21.1188 1.8945,20.6138 C1.8945,20.1088 1.4845,19.6988 0.9795,19.6988 C0.4745,19.6988 0.0645,20.1088 0.0645,20.6138 C0.0645,21.1188 0.4745,21.5288 0.9795,21.5288" id="Fill-17"></path>
                <path d="M1.9009,25.3701 C1.9009,24.8651 1.4909,24.4561 0.9859,24.4561 C0.4809,24.4561 0.0709,24.8651 0.0709,25.3701 C0.0709,25.8761 0.4809,26.2851 0.9859,26.2851 C1.4909,26.2851 1.9009,25.8761 1.9009,25.3701" id="Fill-19"></path>
                <path d="M1.9194,29.1279 C1.4144,29.1279 1.0044,29.5379 1.0044,30.0429 C1.0044,30.5479 1.4144,30.9579 1.9194,30.9579 C2.4244,30.9579 2.8344,30.5479 2.8344,30.0429 C2.8344,29.5379 2.4244,29.1279 1.9194,29.1279" id="Fill-21"></path>
                <path d="M3.7104,33.5537 C3.2054,33.5537 2.7954,33.9637 2.7954,34.4687 C2.7954,34.9737 3.2054,35.3837 3.7104,35.3837 C4.2154,35.3837 4.6254,34.9737 4.6254,34.4687 C4.6254,33.9637 4.2154,33.5537 3.7104,33.5537" id="Fill-23"></path>
                <path d="M6.2754,37.5752 C5.7704,37.5752 5.3604,37.9842 5.3604,38.4892 C5.3604,38.9952 5.7704,39.4042 6.2754,39.4042 C6.7804,39.4042 7.1904,38.9952 7.1904,38.4892 C7.1904,37.9842 6.7804,37.5752 6.2754,37.5752" id="Fill-25"></path>
                <path d="M9.5752,41.0137 C9.0702,41.0137 8.6602,41.4227 8.6602,41.9277 C8.6602,42.4337 9.0702,42.8427 9.5752,42.8427 C10.0802,42.8427 10.4902,42.4337 10.4902,41.9277 C10.4902,41.4227 10.0802,41.0137 9.5752,41.0137" id="Fill-27"></path>
                <path d="M13.4673,43.7705 C12.9623,43.7705 12.5523,44.1805 12.5523,44.6855 C12.5523,45.1905 12.9623,45.6005 13.4673,45.6005 C13.9723,45.6005 14.3823,45.1905 14.3823,44.6855 C14.3823,44.1805 13.9723,43.7705 13.4673,43.7705" id="Fill-29"></path>
                <path d="M38.6143,43.7705 C38.1093,43.7705 37.7003,44.1805 37.7003,44.6855 C37.7003,45.1905 38.1093,45.6005 38.6143,45.6005 C39.1203,45.6005 39.5293,45.1905 39.5293,44.6855 C39.5293,44.1805 39.1203,43.7705 38.6143,43.7705" id="Fill-31"></path>
                <path d="M42.4785,41.0713 C41.9725,41.0713 41.5635,41.4813 41.5635,41.9863 C41.5635,42.4913 41.9725,42.9013 42.4785,42.9013 C42.9835,42.9013 43.3925,42.4913 43.3925,41.9863 C43.3925,41.4813 42.9835,41.0713 42.4785,41.0713" id="Fill-33"></path>
                <path d="M45.7871,37.6328 C45.2821,37.6328 44.8721,38.0428 44.8721,38.5478 C44.8721,39.0528 45.2821,39.4628 45.7871,39.4628 C46.2931,39.4628 46.7021,39.0528 46.7021,38.5478 C46.7021,38.0428 46.2931,37.6328 45.7871,37.6328" id="Fill-35"></path>
                <path d="M48.3574,33.6035 C47.8514,33.6035 47.4424,34.0125 47.4424,34.5175 C47.4424,35.0235 47.8514,35.4325 48.3574,35.4325 C48.8624,35.4325 49.2714,35.0235 49.2714,34.5175 C49.2714,34.0125 48.8624,33.6035 48.3574,33.6035" id="Fill-37"></path>
                <path d="M50.1084,29.1758 C49.6024,29.1758 49.1934,29.5858 49.1934,30.0908 C49.1934,30.5958 49.6024,31.0058 50.1084,31.0058 C50.6134,31.0058 51.0224,30.5958 51.0224,30.0908 C51.0224,29.5858 50.6134,29.1758 50.1084,29.1758" id="Fill-39"></path>
                <path d="M51.0205,24.4707 C50.5155,24.4707 50.1055,24.8807 50.1055,25.3857 C50.1055,25.8907 50.5155,26.3007 51.0205,26.3007 C51.5255,26.3007 51.9355,25.8907 51.9355,25.3857 C51.9355,24.8807 51.5255,24.4707 51.0205,24.4707" id="Fill-41"></path>
                <path d="M50.0996,20.6294 C50.0996,21.1344 50.5086,21.5444 51.0136,21.5444 C51.5196,21.5444 51.9286,21.1344 51.9286,20.6294 C51.9286,20.1244 51.5196,19.7144 51.0136,19.7144 C50.5086,19.7144 50.0996,20.1244 50.0996,20.6294" id="Fill-43"></path>
                <path d="M50.0801,16.8716 C50.5861,16.8716 50.9951,16.4616 50.9951,15.9566 C50.9951,15.4516 50.5861,15.0416 50.0801,15.0416 C49.5751,15.0416 49.1661,15.4516 49.1661,15.9566 C49.1661,16.4616 49.5751,16.8716 50.0801,16.8716" id="Fill-45"></path>
                <path d="M48.29,12.4458 C48.795,12.4458 49.204,12.0368 49.204,11.5308 C49.204,11.0258 48.795,10.6168 48.29,10.6168 C47.784,10.6168 47.375,11.0258 47.375,11.5308 C47.375,12.0368 47.784,12.4458 48.29,12.4458" id="Fill-47"></path>
                <path d="M45.7246,8.4253 C46.2296,8.4253 46.6396,8.0153 46.6396,7.5103 C46.6396,7.0053 46.2296,6.5953 45.7246,6.5953 C45.2196,6.5953 44.8096,7.0053 44.8096,7.5103 C44.8096,8.0153 45.2196,8.4253 45.7246,8.4253" id="Fill-49"></path>
                <path d="M42.4248,4.9868 C42.9298,4.9868 43.3398,4.5768 43.3398,4.0718 C43.3398,3.5668 42.9298,3.1568 42.4248,3.1568 C41.9198,3.1568 41.5098,3.5668 41.5098,4.0718 C41.5098,4.5768 41.9198,4.9868 42.4248,4.9868" id="Fill-51"></path>
                <path d="M38.5322,2.229 C39.0382,2.229 39.4472,1.82 39.4472,1.314 C39.4472,0.809 39.0382,0.4 38.5322,0.4 C38.0272,0.4 37.6182,0.809 37.6182,1.314 C37.6182,1.82 38.0272,2.229 38.5322,2.229" id="Fill-53"></path>
                <path d="M26,3.5 C15.2,3.5 6.5,12.3 6.5,23 C6.5,33.8 15.3,42.5 26,42.5 C36.7,42.5 45.5,33.8 45.5,23 C45.5,12.2 36.8,3.5 26,3.5 M26,44.1 C14.4,44.1 4.9,34.7 4.9,23 C4.9,11.4 14.3,1.9 26,1.9 C37.7,1.9 47.1,11.4 47.1,23 C47.1,34.6 37.6,44.1 26,44.1" id="Fill-55"></path>
                <path d="M21.6001,31.4004 C22.3001,31.4004 22.8001,31.5004 23.2001,31.7004 L23.4001,30.9004 C23.1001,30.7994 22.5001,30.5994 21.5001,30.5994 C19.1001,30.5994 17.4001,32.0994 17.4001,34.2994 C17.4001,36.5994 19.1001,37.9004 21.3001,37.9004 C22.3001,37.9004 23.0001,37.7004 23.4001,37.5994 L23.2001,37.0004 C22.8001,37.2004 22.2001,37.2994 21.5001,37.2994 C19.6001,37.2994 18.5001,36.2004 18.5001,34.4004 C18.5001,32.5004 19.8001,31.4004 21.6001,31.4004" id="Fill-57"></path>
                <path d="M33.2002,30.7998 L31.9002,30.7998 L30.5002,34.2998 C30.2002,35.1998 29.9002,35.9998 29.7002,36.6998 C29.5002,35.9998 29.2002,35.1998 28.9002,34.2998 L27.5992,30.7998 L26.3002,30.7998 L25.8002,37.9008 L26.8002,37.9008 L27.0002,34.7998 C27.0992,33.6998 27.0992,32.4998 27.2002,31.5998 C27.4002,32.4008 27.7002,33.4008 28.0992,34.4008 L29.4002,37.7998 L30.2002,37.7998 L31.5992,34.2998 C32.0002,33.2998 32.3002,32.4008 32.5992,31.5998 C32.5992,32.4998 32.7002,33.6998 32.7002,34.6998 L32.9002,37.7998 L33.9002,37.7998 L33.2002,30.7998 Z" id="Fill-59"></path>
                <path d="M15.7002,25.4004 C15.4002,25.7004 15.4002,26.2004 15.7002,26.5004 L16.4002,27.2004 C16.7002,27.5004 17.2002,27.5004 17.5002,27.2004 L24.8002,20.0004 L23.0002,18.2004 L15.7002,25.4004 Z" id="Fill-61"></path>
                <path d="M36.4004,14.7002 L34.9004,13.2002 C34.7004,13.0002 34.2004,13.0002 34.0004,13.3002 L33.7994,13.5002 L33.5004,13.2002 L33.7994,12.9002 C34.0994,12.6002 34.0994,12.2002 33.9004,12.0002 L32.0004,10.2002 C32.0004,10.2002 29.0004,6.5002 26.4004,9.0002 C26.4004,9.0002 27.5004,8.8002 29.4004,10.4002 L28.0004,11.7002 C27.7004,12.0002 27.7004,12.4002 27.9004,12.6002 L28.2994,13.0002 C28.2004,13.0002 28.2004,13.1002 28.0994,13.1002 L25.4004,15.8002 L27.2004,17.6002 L29.9004,14.9002 L30.0004,14.8002 L30.4004,15.2002 C30.5994,15.4002 31.0994,15.4002 31.2994,15.1002 L31.5994,14.8002 L31.9004,15.1002 L31.5004,15.4002 C31.2004,15.7002 31.2004,16.1002 31.4004,16.3002 L32.9004,17.8002 C33.0994,18.0002 33.5994,18.0002 33.7994,17.7002 L36.0994,15.5002 C36.5994,15.3002 36.7004,14.9002 36.4004,14.7002" id="Fill-63"></path>
                <path d="M32.7002,21.2002 C32.2002,21.0002 31.5992,21.0002 31.0992,21.0002 C30.5992,21.0002 30.0992,20.9002 29.7002,20.6002 C28.2002,19.1002 26.7002,17.7002 25.2002,16.2002 C24.4002,15.4002 23.6002,14.7002 22.9002,13.9002 C22.6002,13.6002 22.2002,13.3002 22.1002,12.9002 C21.9002,12.4002 21.9002,11.9002 21.9002,11.5002 C21.8002,10.7002 21.5002,10.1002 20.9002,9.6002 C20.2002,9.0002 19.3002,8.6002 18.4002,8.6002 C18.2002,8.6002 18.1002,8.9002 18.2002,9.0002 C18.8002,9.5002 19.3002,10.1002 19.9002,10.6002 C19.8002,11.2002 19.7002,11.9002 19.6002,12.5002 C19.0002,12.6002 18.3002,12.7002 17.7002,12.8002 C17.1002,12.3002 16.6002,11.7002 16.0002,11.2002 C15.8002,11.0002 15.5002,11.2002 15.5002,11.4002 C15.5002,12.1002 15.8002,12.7002 16.1002,13.2002 C16.4002,13.7002 16.9002,14.2002 17.4002,14.5002 C18.3002,14.9002 19.5002,14.6002 20.3002,15.1002 C20.5002,15.2002 20.7002,15.5002 20.9002,15.6002 C21.1002,15.8002 21.4002,16.0002 21.6002,16.3002 C22.1002,16.8002 22.6002,17.2002 23.0002,17.7002 C24.0002,18.6002 24.9002,19.6002 25.9002,20.5002 C26.5002,21.0002 27.0002,21.6002 27.5992,22.1002 C27.9002,22.3002 28.0002,22.6002 28.0992,22.9002 C28.2002,23.2002 28.2002,23.6002 28.2002,23.9002 C28.3002,24.7002 28.4002,25.4002 29.0992,25.9002 C29.8002,26.5992 30.7002,27.0002 31.7002,27.0002 C31.9002,27.0002 32.0002,26.7002 31.9002,26.5992 C31.3002,26.0992 30.8002,25.5002 30.2002,25.0002 C30.3002,24.4002 30.4002,23.7002 30.5002,23.1002 C31.0992,23.0002 31.8002,22.9002 32.4002,22.8002 C33.0002,23.3002 33.5002,23.9002 34.0992,24.4002 C34.3002,24.5992 34.5992,24.4002 34.5992,24.2002 C34.5992,23.5002 34.3002,22.9002 34.0002,22.4002 C33.8002,22.0002 33.3002,21.5002 32.7002,21.2002" id="Fill-65"></path>
            </g>
            <g id="Group-70">
                <mask id="mask-9" fill="white">
                    <use xlink:href="#path-8"></use>
                </mask>
                <g id="Clip-69"></g>
                <polygon id="Fill-68" fill="url(#linearGradient-4)" mask="url(#mask-9)" points="0 64 64 64 64 0 0 0"></polygon>
            </g>
            <g id="Group-73">
                <mask id="mask-11" fill="white">
                    <use xlink:href="#path-10"></use>
                </mask>
                <g id="Clip-72"></g>
                <path d="M0,32 C0,49.673 14.327,64 32,64 L32,64 C49.673,64 64,49.673 64,32 L64,32 C64,14.326 49.673,0 32,0 L32,0 C14.327,0 0,14.326 0,32" id="Fill-71" fill="url(#linearGradient-7)" mask="url(#mask-11)"></path>
            </g>
            <g id="Group-134" transform="translate(6.000000, 9.000000)" fill="#FFFFFF">
                <path d="M13.3857,2.229 C13.8907,2.229 14.3007,1.82 14.3007,1.314 C14.3007,0.809 13.8907,0.4 13.3857,0.4 C12.8807,0.4 12.4707,0.809 12.4707,1.314 C12.4707,1.82 12.8807,2.229 13.3857,2.229" id="Fill-74"></path>
                <path d="M9.522,4.9282 C10.027,4.9282 10.437,4.5182 10.437,4.0132 C10.437,3.5082 10.027,3.0982 9.522,3.0982 C9.017,3.0982 8.607,3.5082 8.607,4.0132 C8.607,4.5182 9.017,4.9282 9.522,4.9282" id="Fill-76"></path>
                <path d="M6.2129,8.3667 C6.7179,8.3667 7.1279,7.9567 7.1279,7.4517 C7.1279,6.9467 6.7179,6.5367 6.2129,6.5367 C5.7079,6.5367 5.2979,6.9467 5.2979,7.4517 C5.2979,7.9567 5.7079,8.3667 6.2129,8.3667" id="Fill-78"></path>
                <path d="M3.6431,12.397 C4.1481,12.397 4.5581,11.987 4.5581,11.482 C4.5581,10.977 4.1481,10.567 3.6431,10.567 C3.1381,10.567 2.7281,10.977 2.7281,11.482 C2.7281,11.987 3.1381,12.397 3.6431,12.397" id="Fill-80"></path>
                <path d="M1.8921,16.8237 C2.3971,16.8237 2.8071,16.4147 2.8071,15.9087 C2.8071,15.4037 2.3971,14.9937 1.8921,14.9937 C1.3871,14.9937 0.9771,15.4037 0.9771,15.9087 C0.9771,16.4147 1.3871,16.8237 1.8921,16.8237" id="Fill-82"></path>
                <path d="M0.9795,21.5288 C1.4845,21.5288 1.8945,21.1188 1.8945,20.6138 C1.8945,20.1088 1.4845,19.6988 0.9795,19.6988 C0.4745,19.6988 0.0645,20.1088 0.0645,20.6138 C0.0645,21.1188 0.4745,21.5288 0.9795,21.5288" id="Fill-84"></path>
                <path d="M1.9009,25.3701 C1.9009,24.8651 1.4909,24.4561 0.9859,24.4561 C0.4809,24.4561 0.0709,24.8651 0.0709,25.3701 C0.0709,25.8761 0.4809,26.2851 0.9859,26.2851 C1.4909,26.2851 1.9009,25.8761 1.9009,25.3701" id="Fill-86"></path>
                <path d="M1.9194,29.1279 C1.4144,29.1279 1.0044,29.5379 1.0044,30.0429 C1.0044,30.5479 1.4144,30.9579 1.9194,30.9579 C2.4244,30.9579 2.8344,30.5479 2.8344,30.0429 C2.8344,29.5379 2.4244,29.1279 1.9194,29.1279" id="Fill-88"></path>
                <path d="M3.7104,33.5537 C3.2054,33.5537 2.7954,33.9637 2.7954,34.4687 C2.7954,34.9737 3.2054,35.3837 3.7104,35.3837 C4.2154,35.3837 4.6254,34.9737 4.6254,34.4687 C4.6254,33.9637 4.2154,33.5537 3.7104,33.5537" id="Fill-90"></path>
                <path d="M6.2754,37.5752 C5.7704,37.5752 5.3604,37.9842 5.3604,38.4892 C5.3604,38.9952 5.7704,39.4042 6.2754,39.4042 C6.7804,39.4042 7.1904,38.9952 7.1904,38.4892 C7.1904,37.9842 6.7804,37.5752 6.2754,37.5752" id="Fill-92"></path>
                <path d="M9.5752,41.0137 C9.0702,41.0137 8.6602,41.4227 8.6602,41.9277 C8.6602,42.4337 9.0702,42.8427 9.5752,42.8427 C10.0802,42.8427 10.4902,42.4337 10.4902,41.9277 C10.4902,41.4227 10.0802,41.0137 9.5752,41.0137" id="Fill-94"></path>
                <path d="M13.4673,43.7705 C12.9623,43.7705 12.5523,44.1805 12.5523,44.6855 C12.5523,45.1905 12.9623,45.6005 13.4673,45.6005 C13.9723,45.6005 14.3823,45.1905 14.3823,44.6855 C14.3823,44.1805 13.9723,43.7705 13.4673,43.7705" id="Fill-96"></path>
                <path d="M38.6143,43.7705 C38.1093,43.7705 37.7003,44.1805 37.7003,44.6855 C37.7003,45.1905 38.1093,45.6005 38.6143,45.6005 C39.1203,45.6005 39.5293,45.1905 39.5293,44.6855 C39.5293,44.1805 39.1203,43.7705 38.6143,43.7705" id="Fill-98"></path>
                <path d="M42.4785,41.0713 C41.9725,41.0713 41.5635,41.4813 41.5635,41.9863 C41.5635,42.4913 41.9725,42.9013 42.4785,42.9013 C42.9835,42.9013 43.3925,42.4913 43.3925,41.9863 C43.3925,41.4813 42.9835,41.0713 42.4785,41.0713" id="Fill-100"></path>
                <path d="M45.7871,37.6328 C45.2821,37.6328 44.8721,38.0428 44.8721,38.5478 C44.8721,39.0528 45.2821,39.4628 45.7871,39.4628 C46.2931,39.4628 46.7021,39.0528 46.7021,38.5478 C46.7021,38.0428 46.2931,37.6328 45.7871,37.6328" id="Fill-102"></path>
                <path d="M48.3574,33.6035 C47.8514,33.6035 47.4424,34.0125 47.4424,34.5175 C47.4424,35.0235 47.8514,35.4325 48.3574,35.4325 C48.8624,35.4325 49.2714,35.0235 49.2714,34.5175 C49.2714,34.0125 48.8624,33.6035 48.3574,33.6035" id="Fill-104"></path>
                <path d="M50.1084,29.1758 C49.6024,29.1758 49.1934,29.5858 49.1934,30.0908 C49.1934,30.5958 49.6024,31.0058 50.1084,31.0058 C50.6134,31.0058 51.0224,30.5958 51.0224,30.0908 C51.0224,29.5858 50.6134,29.1758 50.1084,29.1758" id="Fill-106"></path>
                <path d="M51.0205,24.4707 C50.5155,24.4707 50.1055,24.8807 50.1055,25.3857 C50.1055,25.8907 50.5155,26.3007 51.0205,26.3007 C51.5255,26.3007 51.9355,25.8907 51.9355,25.3857 C51.9355,24.8807 51.5255,24.4707 51.0205,24.4707" id="Fill-108"></path>
                <path d="M50.0996,20.6294 C50.0996,21.1344 50.5086,21.5444 51.0136,21.5444 C51.5196,21.5444 51.9286,21.1344 51.9286,20.6294 C51.9286,20.1244 51.5196,19.7144 51.0136,19.7144 C50.5086,19.7144 50.0996,20.1244 50.0996,20.6294" id="Fill-110"></path>
                <path d="M50.0801,16.8716 C50.5861,16.8716 50.9951,16.4616 50.9951,15.9566 C50.9951,15.4516 50.5861,15.0416 50.0801,15.0416 C49.5751,15.0416 49.1661,15.4516 49.1661,15.9566 C49.1661,16.4616 49.5751,16.8716 50.0801,16.8716" id="Fill-112"></path>
                <path d="M48.29,12.4458 C48.795,12.4458 49.204,12.0368 49.204,11.5308 C49.204,11.0258 48.795,10.6168 48.29,10.6168 C47.784,10.6168 47.375,11.0258 47.375,11.5308 C47.375,12.0368 47.784,12.4458 48.29,12.4458" id="Fill-114"></path>
                <path d="M45.7246,8.4253 C46.2296,8.4253 46.6396,8.0153 46.6396,7.5103 C46.6396,7.0053 46.2296,6.5953 45.7246,6.5953 C45.2196,6.5953 44.8096,7.0053 44.8096,7.5103 C44.8096,8.0153 45.2196,8.4253 45.7246,8.4253" id="Fill-116"></path>
                <path d="M42.4248,4.9868 C42.9298,4.9868 43.3398,4.5768 43.3398,4.0718 C43.3398,3.5668 42.9298,3.1568 42.4248,3.1568 C41.9198,3.1568 41.5098,3.5668 41.5098,4.0718 C41.5098,4.5768 41.9198,4.9868 42.4248,4.9868" id="Fill-118"></path>
                <path d="M38.5322,2.229 C39.0382,2.229 39.4472,1.82 39.4472,1.314 C39.4472,0.809 39.0382,0.4 38.5322,0.4 C38.0272,0.4 37.6182,0.809 37.6182,1.314 C37.6182,1.82 38.0272,2.229 38.5322,2.229" id="Fill-120"></path>
                <path d="M26,3.5 C15.2,3.5 6.5,12.3 6.5,23 C6.5,33.8 15.3,42.5 26,42.5 C36.7,42.5 45.5,33.8 45.5,23 C45.5,12.2 36.8,3.5 26,3.5 M26,44.1 C14.4,44.1 4.9,34.7 4.9,23 C4.9,11.4 14.3,1.9 26,1.9 C37.7,1.9 47.1,11.4 47.1,23 C47.1,34.6 37.6,44.1 26,44.1" id="Fill-122"></path>
                <path d="M21.6001,31.4004 C22.3001,31.4004 22.8001,31.5004 23.2001,31.7004 L23.4001,30.9004 C23.1001,30.7994 22.5001,30.5994 21.5001,30.5994 C19.1001,30.5994 17.4001,32.0994 17.4001,34.2994 C17.4001,36.5994 19.1001,37.9004 21.3001,37.9004 C22.3001,37.9004 23.0001,37.7004 23.4001,37.5994 L23.2001,37.0004 C22.8001,37.2004 22.2001,37.2994 21.5001,37.2994 C19.6001,37.2994 18.5001,36.2004 18.5001,34.4004 C18.5001,32.5004 19.8001,31.4004 21.6001,31.4004" id="Fill-124"></path>
                <path d="M33.2002,30.7998 L31.9002,30.7998 L30.5002,34.2998 C30.2002,35.1998 29.9002,35.9998 29.7002,36.6998 C29.5002,35.9998 29.2002,35.1998 28.9002,34.2998 L27.5992,30.7998 L26.3002,30.7998 L25.8002,37.9008 L26.8002,37.9008 L27.0002,34.7998 C27.0992,33.6998 27.0992,32.4998 27.2002,31.5998 C27.4002,32.4008 27.7002,33.4008 28.0992,34.4008 L29.4002,37.7998 L30.2002,37.7998 L31.5992,34.2998 C32.0002,33.2998 32.3002,32.4008 32.5992,31.5998 C32.5992,32.4998 32.7002,33.6998 32.7002,34.6998 L32.9002,37.7998 L33.9002,37.7998 L33.2002,30.7998 Z" id="Fill-126"></path>
                <path d="M15.7002,25.4004 C15.4002,25.7004 15.4002,26.2004 15.7002,26.5004 L16.4002,27.2004 C16.7002,27.5004 17.2002,27.5004 17.5002,27.2004 L24.8002,20.0004 L23.0002,18.2004 L15.7002,25.4004 Z" id="Fill-128"></path>
                <path d="M36.4004,14.7002 L34.9004,13.2002 C34.7004,13.0002 34.2004,13.0002 34.0004,13.3002 L33.7994,13.5002 L33.5004,13.2002 L33.7994,12.9002 C34.0994,12.6002 34.0994,12.2002 33.9004,12.0002 L32.0004,10.2002 C32.0004,10.2002 29.0004,6.5002 26.4004,9.0002 C26.4004,9.0002 27.5004,8.8002 29.4004,10.4002 L28.0004,11.7002 C27.7004,12.0002 27.7004,12.4002 27.9004,12.6002 L28.2994,13.0002 C28.2004,13.0002 28.2004,13.1002 28.0994,13.1002 L25.4004,15.8002 L27.2004,17.6002 L29.9004,14.9002 L30.0004,14.8002 L30.4004,15.2002 C30.5994,15.4002 31.0994,15.4002 31.2994,15.1002 L31.5994,14.8002 L31.9004,15.1002 L31.5004,15.4002 C31.2004,15.7002 31.2004,16.1002 31.4004,16.3002 L32.9004,17.8002 C33.0994,18.0002 33.5994,18.0002 33.7994,17.7002 L36.0994,15.5002 C36.5994,15.3002 36.7004,14.9002 36.4004,14.7002" id="Fill-130"></path>
                <path d="M32.7002,21.2002 C32.2002,21.0002 31.5992,21.0002 31.0992,21.0002 C30.5992,21.0002 30.0992,20.9002 29.7002,20.6002 C28.2002,19.1002 26.7002,17.7002 25.2002,16.2002 C24.4002,15.4002 23.6002,14.7002 22.9002,13.9002 C22.6002,13.6002 22.2002,13.3002 22.1002,12.9002 C21.9002,12.4002 21.9002,11.9002 21.9002,11.5002 C21.8002,10.7002 21.5002,10.1002 20.9002,9.6002 C20.2002,9.0002 19.3002,8.6002 18.4002,8.6002 C18.2002,8.6002 18.1002,8.9002 18.2002,9.0002 C18.8002,9.5002 19.3002,10.1002 19.9002,10.6002 C19.8002,11.2002 19.7002,11.9002 19.6002,12.5002 C19.0002,12.6002 18.3002,12.7002 17.7002,12.8002 C17.1002,12.3002 16.6002,11.7002 16.0002,11.2002 C15.8002,11.0002 15.5002,11.2002 15.5002,11.4002 C15.5002,12.1002 15.8002,12.7002 16.1002,13.2002 C16.4002,13.7002 16.9002,14.2002 17.4002,14.5002 C18.3002,14.9002 19.5002,14.6002 20.3002,15.1002 C20.5002,15.2002 20.7002,15.5002 20.9002,15.6002 C21.1002,15.8002 21.4002,16.0002 21.6002,16.3002 C22.1002,16.8002 22.6002,17.2002 23.0002,17.7002 C24.0002,18.6002 24.9002,19.6002 25.9002,20.5002 C26.5002,21.0002 27.0002,21.6002 27.5992,22.1002 C27.9002,22.3002 28.0002,22.6002 28.0992,22.9002 C28.2002,23.2002 28.2002,23.6002 28.2002,23.9002 C28.3002,24.7002 28.4002,25.4002 29.0992,25.9002 C29.8002,26.5992 30.7002,27.0002 31.7002,27.0002 C31.9002,27.0002 32.0002,26.7002 31.9002,26.5992 C31.3002,26.0992 30.8002,25.5002 30.2002,25.0002 C30.3002,24.4002 30.4002,23.7002 30.5002,23.1002 C31.0992,23.0002 31.8002,22.9002 32.4002,22.8002 C33.0002,23.3002 33.5002,23.9002 34.0992,24.4002 C34.3002,24.5992 34.5992,24.4002 34.5992,24.2002 C34.5992,23.5002 34.3002,22.9002 34.0002,22.4002 C33.8002,22.0002 33.3002,21.5002 32.7002,21.2002" id="Fill-132"></path>
            </g>
        </g>
    </g>
</svg>