<?xml version="1.0" encoding="UTF-8"?>
<svg width="64px" height="64px" viewBox="0 0 64 64" version="1.1" xmlns="http://www.w3.org/2000/svg" xmlns:xlink="http://www.w3.org/1999/xlink">
    <!-- Generator: Sketch 52.6 (67491) - http://www.bohemiancoding.com/sketch -->
    <title>Coin / XLM Stellar</title>
    <desc>Created with Sketch.</desc>
    <defs>
        <linearGradient x1="100%" y1="0%" x2="0%" y2="100%" id="linearGradient-1">
            <stop stop-color="#767FFF" offset="0%"></stop>
            <stop stop-color="#5560FF" offset="100%"></stop>
        </linearGradient>
    </defs>
    <g id="Coin-/-XLM-Stellar" stroke="none" stroke-width="1" fill="none" fill-rule="evenodd">
        <circle id="Oval" fill="url(#linearGradient-1)" cx="32" cy="32" r="32"></circle>
        <path d="M26.3067079,63.4949489 C22.1197802,62.7429793 18.2154589,61.1764738 14.7634307,58.9653085 C14.8009379,58.9333599 14.8344986,58.8970497 14.8634011,58.8571479 L18.3688616,53.9707183 C18.5635242,53.6846757 18.4945616,53.2955839 18.2134488,53.0938684 C17.932336,52.892153 17.5416515,52.9514203 17.3330097,53.227432 L13.8275492,58.114144 C13.7917134,58.165983 13.7636472,58.2227817 13.7442405,58.282739 C13.2901375,57.9661645 12.8439418,57.6394235 12.4073478,57.3005392 L16.8469953,51.0656324 C16.9837729,50.8804615 17.0100181,50.6359054 16.9156468,50.4259279 C16.8212756,50.2159505 16.6209683,50.0732159 16.3916876,50.0525661 C16.1624068,50.0319162 15.9398197,50.1365633 15.809449,50.3262997 L11.4147035,56.4982306 C4.4362587,50.6281892 0,41.8327288 0,32 C0,14.3268998 14.3268366,0 31.9998588,0 C49.672881,0 64,14.3268998 64,32 C64,49.6731002 49.6731634,64 32.0001412,64 C49.6731501,63.9999618 64,49.6730885 64,32 C64,14.326888 49.673112,0 32,0 C14.326888,0 0,14.326888 0,32 C0,47.7300246 11.349706,60.8091834 26.3066802,63.4950385 Z M36.8837252,19.942778 C34.4878236,19.942778 32.5454602,21.8845852 32.5454602,24.2804974 C32.5454602,26.6761272 34.4878236,28.6182168 36.8837252,28.6182168 C39.2787797,28.6182168 41.2211431,26.6761272 41.2211431,24.2804974 C41.2214255,21.8845852 39.2790621,19.942778 36.8837252,19.942778 Z M24.246502,38.0392012 C24.2388771,38.0502149 24.230405,38.0595342 24.2227802,38.0702655 C22.2970785,40.6774157 21.9206361,43.6669402 23.3834803,44.7468516 C24.8454774,45.8264806 27.5912755,44.5892704 29.5178244,41.9815555 C29.5316622,41.9629169 29.5435231,41.9437134 29.5573608,41.92451 C28.5497491,41.2162417 27.4571344,40.3642301 26.5438452,39.7011464 C25.850265,39.1990328 25.0248029,38.621235 24.246502,38.0392012 Z M43.2747731,31.5046641 C41.2564434,33.9471729 39.290923,36.3552284 39.290923,36.3552284 C39.290923,36.3552284 41.018943,39.1032979 40.3143491,42.9877596 C39.61032,46.871374 37.379059,49.500834 37.379059,49.500834 C37.379059,49.500834 37.1935206,47.2167536 36.6880204,45.9419837 C36.1839322,44.6669314 34.1921483,42.1439376 34.1921483,42.1439376 C34.1921483,42.1439376 33.2895904,43.2422052 32.244984,43.2952971 C31.8501855,43.3147829 31.2156274,43.006963 30.474886,42.5401499 C30.3870589,42.6723147 30.2969726,42.8041972 30.2040622,42.9346677 C27.2964475,47.042793 23.245668,49.1743754 21.1570201,47.6965573 C19.0680899,46.2173272 19.7317354,41.6892678 22.6401973,37.5811425 C22.7630424,37.4066171 22.888429,37.2380221 23.0157925,37.0716864 C22.2002144,36.3845984 21.6077343,35.7531439 21.5687628,35.3100527 C21.4800884,34.3007422 21.9401219,33.6108302 21.9401219,33.6108302 C21.9401219,33.6108302 19.9929576,32.796943 18.0452285,32.7432863 C16.0980642,32.6896296 14.0613784,33.2739227 14.0613784,33.2739227 C14.0613784,33.2739227 15.9382245,30.086998 19.0014429,28.3874931 C22.0643789,26.6877057 25.9417633,26.758589 25.9417633,26.758589 C25.9417633,26.758589 27.7118613,23.6959219 28.5621749,22.2618764 C29.4119236,20.8272661 31.1294947,17.7112247 35.6617702,15.2684335 C40.1937633,12.8253598 45.6116526,13.197003 45.6116526,13.197003 C45.6116526,13.197003 47.0632008,17.3039987 47.0632008,21.5536081 C47.0632008,25.8029352 45.2931028,29.0607433 43.2747731,31.5046641 Z" id="Combined-Shape" fill="#FFFFFF"></path>
    </g>
</svg>