<?xml version="1.0" encoding="UTF-8"?>
<svg width="64px" height="64px" viewBox="0 0 64 64" version="1.1" xmlns="http://www.w3.org/2000/svg" xmlns:xlink="http://www.w3.org/1999/xlink">
    <!-- Generator: Sketch 52.6 (67491) - http://www.bohemiancoding.com/sketch -->
    <title>Coin / XRP Ripple</title>
    <desc>Created with Sketch.</desc>
    <defs>
        <linearGradient x1="100%" y1="0%" x2="0%" y2="100%" id="linearGradient-1">
            <stop stop-color="#767FFF" offset="0%"></stop>
            <stop stop-color="#5560FF" offset="100%"></stop>
        </linearGradient>
    </defs>
    <g id="Coin-/-XRP-Ripple" stroke="none" stroke-width="1" fill="none" fill-rule="evenodd">
        <circle id="Oval" fill="url(#linearGradient-1)" cx="32" cy="32" r="32"></circle>
        <path d="M41.8081643,35.8083921 C40.8081643,35.5083921 39.8081643,35.4083921 38.9081643,35.4083921 C38.0081643,35.5083921 37.0081643,35.1083921 36.5081643,34.3083921 L36.2081643,33.9083921 C35.6081643,33.0083921 35.6081643,31.9083921 36.2081643,31.0083921 L36.5081643,30.5083921 C37.0081643,29.8083921 37.8081643,29.4083921 38.7081643,29.4083921 C39.8081643,29.4083921 40.9081643,29.2083921 42.0081643,28.6083921 C44.7081643,27.2083921 46.5081643,24.5083921 46.4081643,21.5083921 C46.3081643,17.2083921 42.7081643,13.8083921 38.3081643,14.0083921 C34.6081643,14.2083921 31.5081643,17.2083921 31.1081643,20.9083921 C30.9081643,22.9083921 31.5081643,24.7083921 32.5081643,26.2083921 C33.1081643,27.1083921 33.1081643,28.3083921 32.5081643,29.2083921 L32.4081643,29.3083921 C31.9081643,30.0083921 31.1081643,30.4083921 30.3081643,30.4083921 L29.8081643,30.4083921 C28.8081643,30.4083921 27.9081643,29.8083921 27.5081643,28.9083921 C26.2081643,26.3083921 23.5081643,24.6083921 20.4081643,24.7083921 C16.4081643,24.8083921 13.1081643,28.1083921 13.0081643,32.1083921 C12.8081643,36.5083921 16.3081643,40.1083921 20.7081643,40.1083921 C23.7081643,40.1083921 26.3081643,38.4083921 27.5081643,35.9083921 C27.9081643,35.0083921 28.8081643,34.4083921 29.8081643,34.4083921 L30.2081643,34.4083921 C31.1081643,34.4083921 31.9081643,34.8083921 32.3081643,35.5083921 L32.8081643,36.2083921 C33.4081643,37.0083921 33.3081643,38.1083921 32.8081643,38.9083921 C31.9081643,40.3083921 31.5081643,41.9083921 31.7081643,43.7083921 C32.0081643,47.3083921 35.0081643,50.2083921 38.5081643,50.6083921 C43.4081643,51.1083921 47.4081643,47.0083921 47.0081643,42.2083921 C46.8081643,39.3083921 44.7081643,36.7083921 41.8081643,35.8083921 Z" id="Shape" fill="#FFFFFF" fill-rule="nonzero"></path>
    </g>
</svg>