<?xml version="1.0" encoding="UTF-8"?>
<svg width="64px" height="64px" viewBox="0 0 64 64" version="1.1" xmlns="http://www.w3.org/2000/svg" xmlns:xlink="http://www.w3.org/1999/xlink">
    <!-- Generator: Sketch 53 (72520) - https://sketchapp.com -->
    <title>xpv</title>
    <desc>Created with Sketch.</desc>
    <defs>
        <linearGradient x1="100%" y1="0%" x2="0%" y2="100%" id="linearGradient-1">
            <stop stop-color="#767FFF" offset="0%"></stop>
            <stop stop-color="#5560FF" offset="100%"></stop>
        </linearGradient>
    </defs>
    <g id="xpv" stroke="none" stroke-width="1" fill="none" fill-rule="evenodd">
        <g id="CYVA" fill="url(#linearGradient-1)" fill-rule="nonzero">
            <circle id="Oval" cx="32" cy="32" r="32"></circle>
        </g>
        <g id="Group" transform="translate(3.000000, 3.000000)" fill-rule="nonzero">
            <path d="M58.8590444,29.4598639 C58.8187713,45.8353741 45.609215,58.9197279 29.1979522,58.8595238 C13.2095563,58.7993197 0.0805460751,45.5142857 0.100682594,29.4197279 C0.140955631,13.244898 13.4109215,0.0802721088 29.6409556,0.14047619 C45.6897611,0.200680272 58.9194539,13.4455782 58.8590444,29.4598639 Z" id="Path" fill="#FEFEFE"></path>
            <path d="M56.3017065,29.5802721 C56.3017065,44.5108844 44.2600683,56.3710884 29.0771331,56.2908163 C14.51843,56.2105442 2.41638225,44.0894558 2.65802048,29.0384354 C2.87952218,14.5292517 14.9010239,2.5085034 30.0235495,2.66904762 C44.4010239,2.82959184 56.321843,14.8904762 56.3017065,29.5802721 Z" id="Path" fill="#6C75FF"></path>
            <path d="M44.3406143,32.0486395 C40.1119454,32.0085034 36.5880546,28.4163265 36.6484642,24.1619048 C36.6887372,19.927551 40.2730375,16.4357143 44.5419795,16.4758503 C48.790785,16.5159864 52.2744027,20.1081633 52.2341297,24.362585 C52.1737201,28.5969388 48.5894198,32.0887755 44.3406143,32.0486395 Z" id="Path" fill="#FDFEFD"></path>
            <path d="M34.5341297,37.6676871 C32.6614334,37.7078231 31.0303754,36.0823129 31.0303754,34.2159864 C31.0303754,32.3897959 32.6010239,30.8044218 34.4133106,30.7843537 C36.2860068,30.7442177 37.9170648,32.3697279 37.9170648,34.2360544 C37.9170648,36.0421769 36.3464164,37.627551 34.5341297,37.6676871 Z" id="Path" fill="#FDFEFD"></path>
            <path d="M29.9832765,42.744898 C30.003413,44.270068 28.6542662,45.5945578 27.1440273,45.5744898 C25.6539249,45.5544218 24.4054608,44.2901361 24.3853242,42.805102 C24.3651877,41.3401361 25.6337884,40.0156463 27.1037543,39.9755102 C28.6341297,39.9153061 29.9832765,41.2197279 29.9832765,42.744898 Z" id="Path" fill="#FCFEFC"></path>
            <path d="M24.8887372,34.2159864 C24.8887372,35.1993197 24.0430034,36.0823129 23.056314,36.142517 C22.0293515,36.1826531 21.0829352,35.2795918 21.0627986,34.2561224 C21.0627986,33.2326531 22.009215,32.3095238 23.0361775,32.3295918 C24.0027304,32.3496599 24.8686007,33.2326531 24.8887372,34.2159864 Z" id="Path" fill="#FBFDFB"></path>
            <path d="M17.0354949,27.2122449 C16.0890785,27.0316327 15.4849829,26.5098639 15.4447099,25.5064626 C15.4044369,24.6034014 16.3307167,23.7605442 17.2167235,23.9010204 C18.1832765,24.0414966 18.787372,24.6435374 18.7269625,25.6268707 C18.6665529,26.6102041 18.0020478,27.1119048 17.0354949,27.2122449 Z" id="Path" fill="#F8FDF9"></path>
            <path d="M11.3569966,18.3421769 C11.256314,19.164966 10.8334471,19.7268707 10.0279863,19.7670068 C9.14197952,19.8071429 8.578157,19.2452381 8.578157,18.3823129 C8.578157,17.5595238 9.121843,17.0377551 9.92730375,17.0176871 C10.752901,16.997619 11.1959044,17.5595238 11.3569966,18.3421769 Z" id="Path" fill="#F7FCF8"></path>
        </g>
        <g id="Group" transform="translate(41.000000, 25.000000)" fill="#6C75FF" fill-rule="nonzero">
            <path d="M0.0835820896,3.81052632 L0.0835820896,0.126315789 L1.27462687,0.126315789 C1.73432836,0.126315789 2.02686567,0.147368421 2.15223881,0.189473684 C2.36119403,0.252631579 2.52835821,0.357894737 2.67462687,0.547368421 C2.82089552,0.736842105 2.88358209,0.968421053 2.88358209,1.26315789 C2.88358209,1.49473684 2.84179104,1.68421053 2.75820896,1.83157895 C2.67462687,1.97894737 2.57014925,2.10526316 2.44477612,2.18947368 C2.31940299,2.27368421 2.19402985,2.33684211 2.06865672,2.35789474 C1.90149254,2.4 1.62985075,2.42105263 1.29552239,2.42105263 L0.814925373,2.42105263 L0.814925373,3.81052632 L0.0835820896,3.81052632 Z M0.814925373,0.736842105 L0.814925373,1.78947368 L1.2119403,1.78947368 C1.50447761,1.78947368 1.69253731,1.76842105 1.79701493,1.72631579 C1.90149254,1.68421053 1.9641791,1.62105263 2.02686567,1.53684211 C2.08955224,1.45263158 2.11044776,1.36842105 2.11044776,1.24210526 C2.11044776,1.11578947 2.06865672,0.989473684 1.98507463,0.905263158 C1.90149254,0.821052632 1.81791045,0.757894737 1.69253731,0.736842105 C1.60895522,0.715789474 1.42089552,0.715789474 1.17014925,0.715789474 L0.814925373,0.715789474 L0.814925373,0.736842105 Z" id="Shape"></path>
            <polygon id="Path" points="3.76119403 3.81052632 3.76119403 0.147368421 4.49253731 0.147368421 4.49253731 3.17894737 6.33134328 3.17894737 6.33134328 3.81052632"></polygon>
            <path d="M7.12537313,0.105263158 L7.85671642,0.105263158 L7.85671642,2.10526316 C7.85671642,2.42105263 7.85671642,2.63157895 7.87761194,2.71578947 C7.91940299,2.86315789 7.98208955,2.98947368 8.10746269,3.07368421 C8.23283582,3.15789474 8.37910448,3.22105263 8.5880597,3.22105263 C8.79701493,3.22105263 8.9641791,3.17894737 9.06865672,3.09473684 C9.17313433,3.01052632 9.2358209,2.90526316 9.25671642,2.77894737 C9.27761194,2.65263158 9.29850746,2.44210526 9.29850746,2.14736842 L9.29850746,0.105263158 L10.0298507,0.105263158 L10.0298507,2.04210526 C10.0298507,2.48421053 10.0089552,2.8 9.96716418,2.98947368 C9.92537313,3.17894737 9.86268657,3.32631579 9.73731343,3.45263158 C9.6119403,3.57894737 9.48656716,3.68421053 9.29850746,3.74736842 C9.11044776,3.83157895 8.88059701,3.85263158 8.5880597,3.85263158 C8.23283582,3.85263158 7.98208955,3.81052632 7.79402985,3.72631579 C7.60597015,3.64210526 7.48059701,3.53684211 7.35522388,3.41052632 C7.25074627,3.28421053 7.1880597,3.13684211 7.14626866,3.01052632 C7.10447761,2.8 7.08358209,2.48421053 7.08358209,2.08421053 L7.08358209,0.105263158 L7.12537313,0.105263158 Z" id="Path"></path>
            <path d="M10.8865672,2.61052632 L11.5970149,2.54736842 C11.638806,2.8 11.7223881,2.96842105 11.8686567,3.07368421 C11.9940299,3.17894737 12.1820896,3.24210526 12.4119403,3.24210526 C12.641791,3.24210526 12.8298507,3.2 12.9552239,3.09473684 C13.080597,2.98947368 13.1432836,2.88421053 13.1432836,2.73684211 C13.1432836,2.65263158 13.1223881,2.56842105 13.0597015,2.50526316 C13.0179104,2.44210526 12.9134328,2.4 12.7880597,2.33684211 C12.7044776,2.31578947 12.4955224,2.25263158 12.2029851,2.16842105 C11.8059701,2.06315789 11.5343284,1.95789474 11.3671642,1.81052632 C11.1373134,1.6 11.0328358,1.36842105 11.0328358,1.07368421 C11.0328358,0.884210526 11.0955224,0.715789474 11.2,0.547368421 C11.3044776,0.378947368 11.4507463,0.252631579 11.6597015,0.168421053 C11.8686567,0.0842105263 12.0985075,0.0421052632 12.3701493,0.0421052632 C12.8298507,0.0421052632 13.1850746,0.147368421 13.4149254,0.336842105 C13.6447761,0.547368421 13.7701493,0.821052632 13.7910448,1.15789474 L13.0597015,1.2 C13.0179104,1.01052632 12.9552239,0.884210526 12.8507463,0.8 C12.7462687,0.715789474 12.6,0.673684211 12.3910448,0.673684211 C12.1820896,0.673684211 12.0149254,0.715789474 11.8895522,0.8 C11.8059701,0.863157895 11.7641791,0.926315789 11.7641791,1.03157895 C11.7641791,1.11578947 11.8059701,1.2 11.8686567,1.26315789 C11.9522388,1.34736842 12.1820896,1.43157895 12.558209,1.51578947 C12.9343284,1.6 13.1850746,1.68421053 13.3522388,1.78947368 C13.519403,1.87368421 13.6656716,2 13.7492537,2.16842105 C13.8328358,2.33684211 13.8955224,2.52631579 13.8955224,2.75789474 C13.8955224,2.96842105 13.8328358,3.15789474 13.7283582,3.34736842 C13.6029851,3.53684211 13.4567164,3.66315789 13.2268657,3.76842105 C13.0179104,3.85263158 12.7462687,3.89473684 12.4328358,3.89473684 C11.9731343,3.89473684 11.6179104,3.78947368 11.3671642,3.57894737 C11.0955224,3.32631579 10.9492537,3.01052632 10.8865672,2.61052632 Z" id="Path"></path>
        </g>
    </g>
</svg>